<svg xmlns="http://www.w3.org/2000/svg" width="339" height="307" fill="none" viewBox="0 0 339 307">
  <path fill="#35AB99" fill-opacity=".44" d="M129.523.04c-3.336-.075-5.542.494-6.918 1.824-7.444 6.998-8.309 40.64-1.763 68.29 6.406 27.076 4.241 38.492-5.245 27.748-2.58-2.919-3.25-5.37-1.492-5.435 3.372-.075-26.032-10.598-53.262-18.996-8.883-2.747-21.664-4.975-28.394-4.975-12.165 0-12.253.074-12.253 16.403 0 11.324-3.466 23.107-11.259 38.118-10.83 20.866-11.015 22.015-4.837 28.43 7.06 7.335 33.36 15.284 61.897 18.696 10.073 1.209 21.206 2.953 24.732 3.865 11.029 2.862 6.818 12.886-9.269 22.055-23.32 13.292-57.624 65.23-43.088 65.23 12.162 0 45.424 18.905 52.176 29.661 4.015 6.398 10.281 11.645 13.881 11.645 14.519 0 43.734-38.106 56.382-73.475 1.24-3.47 4.227-5.665 6.601-4.925 4.935 1.546 7.048 4.819 18.085 27.876 4.379 9.15 16.113 25.054 26.089 35.314v.037c9.975 10.258 19.58 18.655 21.295 18.655 1.716 0 7.957-6.611 13.881-14.703 10.584-14.459 17.991-19.591 38.206-26.474 5.591-1.908 11.175-5.913 12.388-8.882 4.058-9.939-10.582-32.306-36.035-55.073-13.873-12.409-24.252-24.028-23.059-25.837 1.192-1.818 9.187-3.315 17.769-3.315 27.516 0 82.866-19.027 82.831-28.471-.008-2.327-4.908-11.15-10.896-19.633-7.491-10.613-11.624-21.742-13.293-35.61-1.396-11.6-4.477-20.89-7.234-21.885-7.741-2.796-45.487 8.847-69.584 21.417-28.125 14.672-31.637 12.258-24.461-16.7 5.786-23.348 4.825-62.096-1.673-68.205-3.027-2.854-10.348-2.837-27.942.037-18.271 2.969-27.728 2.928-40.556-.329C137.311.922 132.859.091 129.523 0v.04Zm18.628 116.988c2.382.329 4.993 1.899 7.596 4.843 6.064 6.85 17.952 6.505 26.495-.74 5.972-5.082 7.39-5.18 10.309-.847 1.861 2.763 3.406 10.738 3.436 17.678.043 9.727 2.338 14.182 9.992 19.42 8.549 5.855 9.226 7.565 5.019 12.324-2.688 3.042-8.647 5.526-13.293 5.526-8.411 0-19.984 8.042-19.984 13.895v.037c0 1.694-3.191 4.663-7.099 6.629-7.402 3.725-8.732 2.771-16.729-11.814-2.04-3.725-9.877-8.149-17.407-9.816-16.225-3.61-16.812-5.995-4.205-17.848 7.217-6.784 8.958-11.05 7.189-17.678-3.535-13.233 1.534-22.67 8.681-21.587v-.022Z"/>
</svg>
