<svg xmlns="http://www.w3.org/2000/svg" width="228" height="250" fill="none" viewBox="0 0 228 250">
  <path fill="#35AB99" fill-opacity=".53" d="M89.937 123.326c1.41 1.41 2.16.58 2.97-.11 4.15-3.55 8.7-6.49 13.64-8.86 1.28-.61 2.49-1.42 3.6-2.31 2.73-2.19 5.69-3.92 9.19-4.37 1.46-.19 3.07-.09 4.47.35 2.78.87 3.45 3.69 1.6 5.94-1.12 1.35-2.6 2.25-4.27 2.48-2.44.34-4.99.78-7.36.39-2.82-.46-5.18.08-7.52 1.44-.9.52-1.86.94-2.73 1.51-2.46 1.6-4.88 3.26-7.32 4.89l.09.49c3.14.46 5.54 2.35 8.1 3.94 1.88 1.17 3.98 1.75 6.15 1.81 2.63.07 5.27-.03 7.89-.28 5.44-.52 10.64-2.16 15.84-3.71 3.32-.99 6.6-1.04 9.91-.02 1.76.54 3.54 1.01 5.33 1.39 4.26.91 8.27.26 11.95-2.12 3.33-2.15 4.57-5.29 3.54-9.11-.37-1.38-.83-2.78-1.53-4.02-1.5-2.63-3.14-5.19-4.8-7.73-.83-1.27-1.86-2.4-2.7-3.67-1.78-2.68-1.68-4.73.41-7.21 1.03-1.22 2.26-2.26 3.37-3.4 1.56-1.6 3.26-3.11 4.58-4.89 1.21-1.65 2.1-3.56 2.92-5.45.93-2.12.32-4.11-1.18-5.77-.85-.94-1.82-1.8-2.85-2.55-3.41-2.51-7.29-3.96-11.4-4.8-2.5-.52-5.03-.94-7.54-1.39-4.2-.76-7.6-2.83-10.21-6.19-1.28-1.64-2.45-3.38-3.83-4.92-1.86-2.08-3.66-4.31-5.87-5.95-5.84-4.31-12.12-4.83-18.72-1.54-4.58 2.28-7.72 5.88-10.04 10.28-.99 1.87-2.34 2.71-4.44 2.5-1.03-.11-2.1-.2-3.11-.04-3.23.5-6.87 1.84-6.2 6.51.44 3.06-.7 5.82-2.64 8.23-.8 1-1.64 1.99-2.25 3.1-.68 1.24-1.4 2.58-1.62 3.95-.93 5.87.31 11.13 4.86 15.29.77.7 1.55 1.39 2.32 2.08 2.04 1.81 2.96 4.12 2.97 6.81 0 .96-.08 1.92-.08 2.88 0 .4.1.8.16 1.29 3.14-3.29 6.14-6.39 9.07-9.55.52-.56.81-1.36 1.09-2.09 1-2.57 2.34-4.91 4.41-6.76 1.55-1.39 3.33-2.18 5.46-2.03 3.4.25 5.21 3.25 3.82 6.37-.71 1.59-1.88 2.86-3.45 3.54-2.03.88-4.16 1.6-6.31 2.17-1.2.32-2.23.73-3.08 1.66-3.15 3.51-6.38 6.95-9.5 10.48-2.06 2.33-1.94 4.42.24 6.92.35-.31.7-.64 1.06-.94 5.86-4.82 11.68-9.7 17.63-14.42 1.91-1.51 3.8-2.83 4.41-5.38.2-.81.77-1.59 1.32-2.26 2.23-2.72 5.09-4.11 8.64-3.7 3.21.37 4.62 3.44 2.66 5.98-.94 1.21-2.3 2.26-3.69 2.93-1.62.79-3.49 1.09-5.24 1.63-.9.28-1.92.43-2.66.96-6.76 4.84-13.35 9.91-19.49 15.54-.62.63-1.3 1.18-2.04 1.81Zm-9.02-63.59c3.14-2.46 6.89-3.22 10.43-2.79 2.87-3.55 5.48-6.76 8.27-10.2-2.11-2.72-4.24-5.72-6.64-8.49-8.96-10.35-19.82-18.31-31.72-24.93-6.51-3.62-13.18-6.9-20.41-8.85-1.59-.43-3.21-.74-4.92-1.12-.18.63-.3 1-.39 1.38-2.1 9.3-3.66 18.68-3.67 28.24-.02 9.94.95 19.81 2.57 29.6.55 3.36 1.76 6.62 2.75 9.9.42 1.39 1.36 2.21 2.95 2.41 1.57.2 3.11.72 4.65 1.15 6.31 1.77 11.91 5 17.44 8.4 2.31 1.42 4.72 2.69 7.12 3.95.71.38 1.55.52 2.68.88-1.1-6.57.35-12.02 4.95-16.66-9.3-5.98-14.34-15.05-19.43-24.08 3.28 3.78 6.52 7.59 9.72 11.44 3.2 3.85 6.56 7.52 10.52 10.94.3-.73.54-1.09.57-1.46.1-1.19.09-2.39.18-3.59.1-1.5.67-3.13.27-4.48-.43-1.45-1.81-2.59-2.65-3.95-1.37-2.21-2.49-4.55-3.55-6.9.16-.1.31-.2.47-.3 2.56 3.14 5.14 6.25 7.84 9.51Zm-31.99 71.69c-2.21 4.85-4.43 9.45-6.41 14.16-4.87 11.55-6.32 23.57-4.52 35.95 1.08 7.43 2.33 14.84 3.53 22.25.08.5.4.97.64 1.51 25.84-3.91 45.9-16.28 59.34-38.84-.37-.81-.73-1.52-1.02-2.26-3.21-8.03-6.02-16.15-5.99-25.31-1.84-.26-3.84-.55-5.66-.81-6.47 10.15-14.05 18.98-21.75 27.74.09-.55.29-1.03.58-1.44 3.67-5.24 7.33-10.48 11.03-15.69 1.99-2.8 4.06-5.55 6.06-8.34.54-.75.99-1.57 1.52-2.42-1.71-.82-3.19-1.53-4.74-2.28-2.23 3.04-4.39 6.01-6.59 8.96-2.15 2.88-4.3 5.78-6.54 8.58s-4.61 5.49-6.92 8.23c5.03-9.97 11.74-18.78 18.49-27.4-.78-1.32-1.38-2.34-2.11-3.56-9.5 1.07-18.99 2.71-28.94.97Zm93.97 34.45c-.26-.39-.54-.77-.79-1.17-2.9-4.6-5.76-9.22-8.69-13.8-1.55-2.42-3.21-4.78-4.89-7.11-.44-.61-1.11-1.2-1.8-1.45-1.64-.61-3.35-1.05-5.05-1.49-2.84-.73-5.23.37-7.76 1.82 5.98 5.74 9.75 12.64 13.33 19.67-5.69-5.77-9.7-12.9-15.29-18.6-8.31 1.76-8.33 1.76-13.85-.85 0 .51-.07.99.01 1.44 2.2 11.71 5.99 22.71 14.09 31.82 3.95 4.45 8.3 8.45 13.09 11.94 8.99 6.54 18.01 13.03 27.08 19.45 2.28 1.61 4.71 3.02 7.17 4.34 2.14 1.15 3.24.88 4.27-1.34 1.06-2.3 1.93-4.75 2.39-7.23 1.16-6.24 1.08-12.55.66-18.88-1.07-15.87-6.36-30.23-15.09-43.43-1.43-2.16-3.07-3.49-5.67-3.79-1.18-.14-2.1-.11-3.1.66-2.9 2.24-6.24 3.53-9.81 4.27-.92.19-1.84.36-3.1.61 5.66 7.07 9.6 14.85 12.8 23.12Zm-96.94-62.51c7.96 3.3 15.57 7.42 23.7 10.43.68-1.68 1.23-3.04 1.85-4.58-7.05-2.44-12.89-6.49-18.19-11.46l19.24 9.98 5.81-6.82c-2-2.76-3.89-5.38-5.9-8.15-3.2-.34-6.17-1.88-9.07-3.59-3.3-1.95-6.53-4.03-9.9-5.87-7.51-4.1-15.57-6.07-24.13-6.16-6.52-.07-12.9.96-19.25 2.23-2.17.43-4.33.94-6.75 1.47.35 1.15.57 2.07.9 2.93 5.56 14.33 14.22 26.4 26.5 35.73 5.34 4.06 11.24 7.05 17.86 8.4 5.86 1.2 11.77 1 17.68.45 3.31-.31 6.6-.82 10.24-1.28-2.42-3.99-6.78-6.33-6.98-11.2-9.32-1.74-16.6-6.85-23.61-12.51Zm92.92-42.92c1.54-2.57 2.7-4.66 4.02-6.66 1.36-2.06 2.85-4.05 4.34-6.03 1.38-1.83 2.84-3.59 4.26-5.38-1.25 3.45-2.65 6.76-4.39 9.89-1.77 3.19-3.86 6.19-6 9.59 2.13.52 4.04 1.08 5.98 1.43 4.09.73 8.2 1.35 12.07 2.99 1.38.58 2.73 1.25 4.02 1.85.24-.17.42-.23.49-.35.3-.56.59-1.13.86-1.71 3.81-8.35 6.24-17.1 7.38-26.19.91-7.28.64-14.52-1.32-21.64-.99-3.58-2.49-6.91-5.07-9.66-2.12-2.26-4.56-3.09-7.57-1.97-3.59 1.34-7.21 2.61-10.81 3.92-6.47 2.35-12.79 5.03-18.67 8.65-8.89 5.48-16.58 12.23-22.16 21.18-.7 1.12-1.27 2.31-1.9 3.46 4.38-1.39 8.63-2.09 13.08-1.34 4.55.77 8.31 3.02 11.75 6.21 1.13-1.7 2.09-3.16 3.08-4.6 1-1.45 2-2.9 3.05-4.31 1.05-1.41 2.14-2.79 3.25-4.16 1.11-1.36 2.25-2.7 3.4-4.04 1.07-1.25 2.16-2.48 3.25-3.72.12.11.24.21.36.32-4.8 7.51-9.61 15.01-14.45 22.58 2.5 3.19 4.98 6.28 7.7 9.69Zm85.25 59.53c-.57-.69-.88-1.14-1.26-1.53-3.6-3.64-7.18-7.29-10.81-10.89-5.38-5.34-11.43-9.79-18.3-12.97-5.28-2.44-10.73-4.54-16.18-6.61-2.3-.87-4.78-1.27-7.17-1.91-1.07-.29-1.7.08-2.42.94-1.88 2.27-3.92 4.41-5.93 6.57-.92.99-1.99 1.86-2.88 2.88-1.3 1.5-1.32 1.97-.21 3.59.81 1.19 1.85 2.23 2.56 3.47 1.2 2.11 2.79 3.35 5.32 3.21.63-.04 1.26.17 1.9.26 5.77.81 11.15 2.89 16.47 5.18-6.63-1.24-13.27-2.48-20.02-3.74 1.29 3.11 2.49 6.03 3.76 9.11 5.96 1.13 12.06 2.22 17.79 4.66-6.04-.18-12-.82-17.91-2.69-.33 5.7-3.51 8.88-8.12 10.96-3.06 1.38-6.25 1.84-9.59 1.54-2.21-.2-2.32-.08-3.32 2.2 7.06 1.5 14.09 2.89 21.33 3.04 10.96.22 21.66-1.43 32.16-4.47 5.87-1.69 11.42-4.17 16.44-7.67 2.21-1.53 4.21-3.36 6.39-5.13Zm-143.03-16.9c-1.66 1.91-3.29 3.63-4.71 5.51-1.1 1.46-2.02 3.07-2.82 4.71-.97 1.96-.69 3.89.69 5.62.45.56.89 1.14 1.4 1.64 2.57 2.5 4.41 5.43 5.64 8.81 1.01 2.77 3.11 4.42 5.97 5 1.8.37 3.63.62 5.45.78 2.98.25 5.34 1.46 7.03 3.98 1.22 1.81 3.03 2.46 5.18 2.48 2.74.03 5.22-.83 7.54-2.12 4.33-2.42 8.72-2.92 13.35-.98 1.89.79 3.9.89 5.9.53 4.95-.9 9.22-3.1 12.66-6.81.34-.36.55-.84.83-1.29-3.72-1.67-7.27-1.66-10.92-.47-5.1 1.65-10.28 2.98-15.62 3.64-6.76.84-13.23.55-18.97-3.85-1.2-.92-2.9-1.23-4.41-1.7-1.06-.33-2.2-.4-3.29-.65-6.2-1.41-9.2-4.71-9.76-11.08-.25-2.85-.11-5.74-.11-8.61-.01-1.67.23-3.35-1.03-5.14Zm18.6-4.6c2.51-.29 4.33-.97 5.53-2.05.72-.64 1.49-1.33 1.06-2.44-.27-.7-1.67-.75-2.82-.08-1.72 1-2.82 2.52-3.77 4.57Zm23.08 13.03c-2.5-1.08-6.16-.19-8.01 1.94 3.67.6 6.41-.06 8.01-1.94Zm-8.86-10.14c3.7-.33 5.53-1.32 6.3-3.31-2.85-.4-4.6.47-6.3 3.31Z"/>
</svg>
