<svg xmlns="http://www.w3.org/2000/svg" width="189" height="487" fill="none" class="flower-values"  viewBox="0 0 189 487">
  <path fill="" fill-opacity="100" class="flower-values-path" d="M91.266 301.307c1.137-5.813 2.38-11.509 4.03-17.102 2.491-8.437 6.274-16.214 11.022-23.478 1.897-2.91 3.863-5.767 5.829-8.625 3.535-5.133 6.768-10.46 9.76-15.961.365-.674.76-1.335 1.193-1.964.34-.492.884-.81 1.422-.518.383.207.853.693.89 1.088.136 1.536.272 3.111.111 4.634-.754 7.271-2.12 14.431-3.684 21.553-1.941 8.833-4.061 17.627-7.084 26.136-3.801 10.705-8.456 21.002-14.038 30.814-1.514 2.663-3.294 5.171-5 7.705-1.082 1.607-2.294 3.11-3.363 4.731-.272.408-.29 1.062-.278 1.6.124 6.066.309 12.125.414 18.19.173 9.747.359 19.487.451 29.233.198 21.36.359 42.712.495 64.072.03 5.288-.1 10.576-.167 15.864-.006.57-.062 1.14-.142 1.704-.05.35-.142.713-.29 1.037-.26.557-.68.926-1.311.719-.63-.214-.705-.726-.643-1.374.167-1.801.37-3.609.37-5.417-.036-20.945-.03-41.889-.19-62.834-.118-15.553-.403-31.099-.706-46.652-.166-8.71-.531-17.406-.785-26.116-.24-8.444-.414-16.894-.686-25.338-.204-6.422-.482-12.844-.797-19.266-.488-9.837-1.039-19.668-1.576-29.499-.105-1.892-.266-3.784-.693-5.735-.136.499-.29.992-.395 1.497-2.157 10.22-3.9 20.524-5.409 30.866-1.125 7.679-2.244 15.365-3.11 23.083-.821 7.355-1.44 14.75-1.91 22.137-.512 8.068-.902 16.149-1.069 24.23-.216 10.414-.222 20.834-.204 31.255.025 13.019.724 26.012 1.502 38.999.6 9.979 1.373 19.953 2.04 29.932.915 13.596 1.811 27.198 2.72 40.794.037.564.223 1.141.155 1.692-.05.388-.334.939-.643 1.049-.31.117-.927-.097-1.119-.382-.29-.428-.42-1.043-.451-1.588-.31-4.86-.557-9.727-.866-14.587-.303-4.86-.624-9.72-.989-14.581-.642-8.528-1.316-17.05-1.984-25.571-.025-.305-.055-.609-.08-.907-4.797-2.191-8.679-5.586-12.134-9.559-7.616-8.755-12.95-18.903-16.585-30.075-2.936-9.021-4.735-18.314-5.6-27.775-.847-9.235-1.416-18.495-2.133-27.742-1.36-17.601-3.758-35.02-8.301-52.057-.785-2.942-1.688-5.852-2.516-8.787a15.534 15.534 0 0 1-.439-2.12c-.093-.641.019-1.27.594-1.646.624-.408 1.26-.252 1.805.175a14.3 14.3 0 0 1 1.687 1.51c1.762 1.893 3.542 3.772 5.23 5.735 6.86 7.984 13.123 16.467 18.84 25.384 4.89 7.627 8.382 15.981 11.281 24.599 1.941 5.761 3.604 11.626 5.39 17.446.105.336.21.667.507 1.004.031-.376.08-.745.093-1.121.395-8.904.636-17.821 1.224-26.712.538-8.062 1.341-16.11 2.225-24.139 1.286-11.685 3.097-23.297 5.155-34.858 1.44-8.094 3.14-16.136 4.81-24.185.346-1.672.247-3.298.135-4.938-.562-8.01-1.075-16.026-1.755-24.029-.65-7.64-1.428-15.268-2.232-22.889-.556-5.307-1.248-10.595-1.885-15.89-.068-.557-.173-1.114-.297-1.885-.63.291-1.15.518-1.656.777-1.99 1.024-3.962 1.322-5.86-.207-.563-.454-1.125-.227-1.7-.13-2.38.389-4.636.085-6.682-1.335-.328-.226-.661-.466-.94-.758-.853-.888-.729-1.931.34-2.553.47-.272 1.008-.421 1.521-.616.921-.343 1.323-.998 1.23-2.028a109.416 109.416 0 0 1-.303-4.031c-.377-6.888.73-13.453 4.222-19.396 1.026-1.749 2.355-3.324 3.64-4.886.539-.648.755-1.179.607-2.054-1.156-6.746-2.862-13.337-4.94-19.823-.469-1.471-1.013-2.923-1.446-4.407-.6-2.074-1.768-3.804-2.837-5.599-1.063-1.789-2.571-2.54-4.599-2.54-5.21.013-9.328 2.242-12.696 6.441.37.24.636.454.94.596 7.027 3.364 10.328 10.641 8.764 18.955-.513 2.729-1.465 5.262-2.614 7.744-1.057 2.288-2.145 4.556-3.165 6.857a21.528 21.528 0 0 0-1.787 6.869c-.03.311-.068.622-.13.92-.481 2.391-2.138 3.195-4.215 2.015-.866-.492-1.7-1.062-2.54-1.6-1.484-.953-3.01-1.141-4.686-.525a19.685 19.685 0 0 1-3.585.939c-1.849.312-3.555-.181-4.976-1.477-1.082-.985-2.108-2.035-3.14-3.078-1.317-1.329-2.572-2.728-3.925-4.018-2.504-2.385-5.49-3.843-8.722-4.789-.192-.058-.396-.065-.575-.143-.99-.421-1.335-1.613-.581-2.384 1.26-1.283 1.86-2.91 2.466-4.556.76-2.08 1.403-4.219 2.293-6.234 3.913-8.878 10.373-14.594 19.453-16.985 2.392-.629 4.81-.713 7.195-.071.977.259 1.614.051 2.164-.765.173-.253.395-.467.6-.687 4.833-5.314 10.644-7.278 17.573-5.606.377-.609-.025-1.179-.21-1.71-1.935-5.658-3.814-11.34-5.885-16.947-3.165-8.553-6.49-17.036-10.447-25.234-2.348-4.873-5.037-9.52-8.555-13.59-2.015-2.326-4.265-4.335-7.102-5.482-2.015-.816-4.08-1.257-6.243-.758-.322.072-.624.227-1.107.415.409.253.643.428.903.55 6.317 2.891 8.536 10.395 6.867 16.13-.463 1.588-.989 3.15-1.477 4.724-.47 1.523-.587 2.995.136 4.524.624 1.322.198 2.132-1.15 2.63-1.143.428-2.33.558-3.498.202-.625-.188-1.131-.156-1.688.188-1.236.764-2.54.726-3.87.278-2.07-.7-3.955-1.801-5.247-3.629-2.386-3.382-5.57-5.495-9.198-7.076-2.85-1.244-3.517-2.58-3.542-6.532-.328-.273-.773-.532-1.076-.914-.525-.668-1.038-1.374-1.384-2.145-.136-.298.08-.979.352-1.212.26-.22.934-.285 1.187-.084 1.125.9 2.157.499 3.177-.104.99-.59 1.929-1.264 2.887-1.899 2.547-1.685 5.062-3.434 7.659-5.035 1.675-1.037 3.51-1.659 5.526-1.439.309.033.704-.07.952-.259 2.231-1.71 4.735-1.963 7.355-1.542 3.864.628 7.022 2.683 9.76 5.508 3.74 3.856 6.565 8.412 9.069 13.2.26.5.525.999.803 1.485.044.078.155.123.272.214.569-.474 1.125-.973 1.725-1.426 1.867-1.406 3.931-1.944 6.175-1.335.68.181 1.063-.013 1.576-.434 1.082-.882 2.17-1.86 3.419-2.398 4.506-1.944 8.58-1.07 11.886 2.715 4.414 5.042 7.06 10.861 6.454 17.912-.1 1.18-.384 2.346-.63 3.506-.18.855-.749 1.393-1.577 1.387-2.695-.02-5.118 1.05-7.56 2.035-2.683 1.075-5.26.797-7.683-.772-5.353-3.454-8.407-8.34-8.395-15.086 0-1.912.57-3.668 1.354-5.366.186-.401.365-.81.55-1.224-2.25-.713-4.537.369-6.274 2.929 5.403 12.228 10.447 24.683 14.483 37.534 4.03 12.825 8.753 25.442 11.034 39.05.6-.401 1.038-.699 1.483-.985 5.353-3.428 11.083-4.607 17.215-3 3.994 1.043 7.06 3.409 8.846 7.401.08.175.204.324.408.648 2.188-7.673 4.203-15.229 6.509-22.682 2.299-7.413 4.895-14.723 7.411-22.24-.371.136-.599.2-.809.304-1.286.623-2.51.428-3.666-.35-.915-.615-1.83-1.237-2.707-1.911-2.133-1.66-4.321-1.88-6.633-.409-.631.402-1.298.765-1.99 1.037-1.336.532-2.269-.038-2.454-1.51-.08-.66.018-1.341 0-2.015-.05-1.963-.05-3.927-.217-5.884-.074-.894-.5-1.75-.76-2.586-1.348.072-2.522.182-3.703.188-.73.007-1.564 0-1.873-.914-.327-.972.13-1.659.841-2.28 1.675-1.465 2.609-3.383 2.843-5.632.23-2.216.365-4.44.513-6.662.39-5.742 2.961-10.155 7.536-13.233 5.328-3.583 11.151-5.508 17.548-5.197 3.783.181 6.546 2.151 8.395 5.528.636 1.16 1.069 2.443 1.576 3.68.173.415.29.856.538 1.582.389-.758.667-1.277.921-1.808 5.038-10.647 10.514-21.029 16.998-30.788 2.028-3.053 4.284-5.956 6.584-8.8 1.737-2.146 3.826-3.882 6.422-4.867.964-.37 1.848-.979 2.769-1.478 2.423-1.315 5.026-1.484 7.665-1.218 2.911.298 5.594 1.328 7.943 3.175 4.111 3.227 5.613 7.621 4.976 12.864-.309 2.546-1.137 4.938-2.516 7.083-1.965 3.065-4.71 4.471-8.227 4.192-.643-.051-1.28-.246-1.91-.233-1.125.02-2.25.097-3.369.246-.729.098-1.434.396-2.157.551-3.159.694-5.786-.252-7.752-2.948-2.825-3.87-3.566-8.237-2.571-12.948.229-1.095.575-2.165.692-3.39-.556.623-1.18 1.193-1.663 1.867-2.392 3.363-4.87 6.668-7.096 10.155-5.149 8.061-9.643 16.538-13.797 25.202-.154.317-.278.648-.562 1.322.612-.408.977-.616 1.298-.875 7.677-6.104 16.337-9.811 25.782-11.6 3.141-.596 6.207-.538 9.167.83.724.337 1.397.35 2.145.13 8.197-2.36 14.322 4.983 14.774 11.042a19.693 19.693 0 0 1-.829 7.355c-1.23 3.979-3.43 7.33-6.094 10.381-.6.687-1.509.953-2.287.467-1.076-.674-2.232-.816-3.419-.862-5.013-.181-11.664-5.631-13.172-11.515-.798-3.111-.519-6.053 1.007-8.86 1.169-2.15 2.739-3.92 4.636-5.384.39-.298.773-.596 1.41-1.095-.847-.22-1.434-.422-2.034-.519-2.089-.343-4.148.007-6.188.44-9.624 2.03-18.34 6.118-25.862 12.819-.977.868-2.015 1.756-2.708 2.851-.748 1.186-.031 2.618.056 3.934.241 3.668.47 7.349 1.391 10.926.235.9.142 1.717-.668 2.365-.235.188-.358.726-.309 1.063.21 1.276.507 2.534.779 3.797.229 1.063.55 2.113.674 3.182.099.856.08 1.77-.099 2.612-.334 1.562-1.286 2.268-2.806 2.158-.835-.059-1.651-.298-2.479-.447-1.267-.227-2.528-.564-3.802-.616-1.119-.052-2.256.156-3.369.356-1.415.26-2.268 1.09-2.775 2.612-1.731 5.184-3.622 10.31-5.44 15.462-.166.473-.29.959-.531 1.756 10.045-8.69 20.794-14.069 34.084-10.926.649-2.112.519-4.134.29-6.363-1.557.797-2.435-.013-3.189-1.16-3.363-5.152-6.435-10.466-7.801-16.642-.631-2.858-.791-5.748-.192-8.638 1.07-5.094 5.699-9.591 10.607-10.252 4.08-.55 7.399.991 9.94 4.296 2.361 3.072 3.9 6.59 4.698 10.453.136.648.253 1.303.371 1.912 1.403.123 2.744.117 4.03.382 6.021 1.231 10.082 4.77 11.646 11.147.383 1.555.785 3.104 1.125 4.672.506 2.385 1.631 4.316 3.597 5.67.204.143.39.324.594.467 1.384.972 1.168 2.39-.025 3.33-.532.422-1.218.655-1.861.888-.457.169-.964.195-1.582.312-.025.511-.025 1.01-.081 1.503-.092.816-.117 1.665-.352 2.443-.494 1.665-1.428 2.424-3.084 2.3-2.257-.162-4.173.616-5.965 1.925-.044.033-.087.052-.124.09-2.021 1.802-4.216 2.029-6.633.908-1.329-.615-2.738-.907-4.191-.447-.265.084-.519.24-.896.415.73.719 1.329 1.406 2.028 1.95.309.247.816.266 1.236.292 1.082.065 2.182 0 3.258.13 3.43.408 6.07 2.138 7.646 5.404.779 1.614 1.397 3.318 2.052 4.99 1.558 3.966 4.117 6.915 7.918 8.606.136.058.272.123.402.194 1.181.635 1.459 1.29.81 2.502a11.46 11.46 0 0 1-1.873 2.566c-.569.577-.791 1.102-.631 1.899.204 1.011.371 2.035.476 3.065.186 1.756-.321 2.586-1.916 3.208-.556.214-1.143.33-1.706.518-2.064.7-4.185 1.27-6.169 2.165-2.2.985-4.271 1.147-6.404-.046-2.206-1.231-4.543-1.341-6.923-.706-1.724.46-3.424 1.004-5.149 1.484-.859.24-1.724.499-2.602.596-1.558.182-2.423-.46-2.912-2.015-.074-.247-.123-.506-.179-.752-.365-1.575-1.44-2.1-2.856-1.374-.395.201-.748.499-1.112.765-.656.466-1.28.972-1.954 1.413-1.953 1.276-3.9 1.296-5.841-.072a22.35 22.35 0 0 0-2.163-1.354c-1.268-.694-2.584-.707-3.845.006-1.002.564-1.935 1.251-2.912 1.854-1.576.972-3.115 2.022-4.759 2.832-1.002.492-2.17.674-3.276.868-.643.11-1.311-.11-1.558-.888-.229-.706-.062-1.335.501-1.814 1.835-1.575 2.336-3.694 2.064-6.014-.266-2.314-.711-4.601-1.106-6.895-.538-3.137-.693-6.286-.186-9.436 1.187-7.348 5.285-12.085 11.943-14.477.822-.298 1.669-.538 2.509-.952-.791-.441-1.638-.558-2.497-.596-3.165-.143-6.206.505-9.124 1.73-3.857 1.62-7.288 3.953-10.137 7.141a4.803 4.803 0 0 0-1.02 1.841 3645.676 3645.676 0 0 0-6.256 22.7c-.129.486-.154 1.018-.129 1.523.16 2.897.327 5.794.537 8.684.149 2.009.303 4.024.575 6.02.13.953.526 1.873.822 2.864.433-.039.767-.039 1.094-.09 3.79-.623 7.387-.091 10.731 1.957 1.212.738 2.306 1.626 3.054 2.89.42.706.921.933 1.712.881 2.522-.162 5.044-.045 7.523.551.049.013.099.019.142.032 6.101 1.471 9.155 5.301 9.26 11.866.043 2.43-.217 4.86-.365 7.29-.136 2.171-.346 4.336-.451 6.513-.044.927.062 1.86.148 2.787.21 2.242 1.212 3.992 2.911 5.378 1.96 1.601 1.867 3.215-.253 4.621-1.539 1.017-3.103 2.009-4.729 2.845-2.769 1.425-5.717 1.562-8.691.868-1.879-.441-3.739-.978-5.594-1.529-3.06-.92-6.125-1.082-9.229-.247-.766.208-1.551.337-2.33.461-2.942.46-3.95-.13-5.112-3.079-1.972-.136-3.857-.855-5.619-1.95-1.761-1.095-3.233-2.515-4.432-4.491-.167.505-.303.778-.352 1.063-2.22 13.058-5.192 25.947-8.11 38.849a10.77 10.77 0 0 0-.229 2.917c.29 4.912.68 9.824.965 14.736.488 8.483.976 16.972 1.378 25.461.414 8.852.717 17.711 1.07 26.57.074.343.13.693.16 1.043Zm17.258-28.39-.03-.026c-.402 1.594-.792 3.188-1.2 4.776-1.44 5.599-2.837 11.211-5.075 16.55-2.484 5.93-4.901 11.885-7.417 17.802-.84 1.977-1.935 3.843-2.862 5.78-.204.428-.29.973-.278 1.459.043 2.177.13 4.348.216 6.525.012.331.074.655.13 1.095.24-.207.377-.278.457-.395 2.059-3.039 4.296-5.968 6.132-9.157 6.046-10.491 11.096-21.521 14.903-33.108 4.42-13.446 7.412-27.282 9.52-41.325.235-1.562.383-3.136.575-4.705-.099-.039-.198-.084-.291-.123-.272.467-.532.94-.816 1.394-2.621 4.27-5.198 8.567-7.887 12.785-1.923 3.014-4.024 5.904-6.002 8.878-4.247 6.409-7.814 13.201-10.286 20.588-2.825 8.444-4.593 17.141-5.49 26.032-.16 1.607-.24 3.221-.351 4.828.482-.395.686-.849.871-1.309 1.972-4.919 3.944-9.837 5.903-14.756 1.354-3.396 2.714-6.778 4.018-10.194 1.558-4.089 3.054-8.197 4.599-12.293.148-.395.433-.732.661-1.101Zm-34.69 153.046c-.135-2.184-.259-3.985-.358-5.787-.247-4.607-.457-9.215-.735-13.816-.044-.693-.235-1.452-.581-2.028a99.73 99.73 0 0 1-9.57-21.515c-2.49-8.029-4.895-16.104-6.916-24.276-2.133-8.625-3.764-17.38-5.625-26.076-.451-2.113-.946-4.213-1.465-6.507.191.253.272.324.303.415.34.914.68 1.834 1.007 2.754 2.48 7.051 4.94 14.095 6.59 21.444 1.669 7.413 3.566 14.768 5.452 22.124 2.417 9.428 5.495 18.611 9.735 27.334.167.337.371.661.557.985.191-.422.21-.771.191-1.115-.704-13.622-.952-27.25-.902-40.885a37.82 37.82 0 0 0-.78-7.685c-1.73-8.489-4.184-16.739-7.058-24.859-2.516-7.102-5.143-14.166-9.087-20.562-2.948-4.782-6.076-9.455-9.303-14.043a174.431 174.431 0 0 0-14.977-18.469c-.359-.382-.742-.732-1.113-1.102-.08.765.074 1.348.241 1.938.946 3.383 1.978 6.74 2.819 10.148 4.29 17.426 6.484 35.189 7.733 53.107.606 8.632 1.236 17.263 2.09 25.869a117.861 117.861 0 0 0 5 24.114c3.369 10.595 8.32 20.257 15.323 28.714 2.807 3.389 5.947 6.37 9.612 8.716.483.318 1.002.59 1.818 1.063ZM46.737 143.109c.148-.765.296-1.296.352-1.847.26-2.495.878-4.893 1.873-7.168.902-2.073 1.935-4.082 2.819-6.162.902-2.126 1.86-4.251 2.485-6.474.982-3.487 1.069-7.018-.149-10.537-2.404-6.98-10.817-10.161-15.985-9.202-8.92 1.652-15.268 7.024-19.15 15.514-1.613 3.525-2.8 7.264-4.215 10.997.488.201 1.032.434 1.576.654 2.62 1.024 5.013 2.463 7.072 4.452 1.34 1.296 2.608 2.683 3.918 4.025.847.868 1.7 1.73 2.56 2.585 1.378 1.368 3.01 1.711 4.815 1.225a43.114 43.114 0 0 0 2.701-.836c1.73-.596 3.418-.486 5.038.369.92.493 1.792 1.089 2.701 1.614.464.266.946.473 1.589.791Zm52.133 47.274c.934 1.523 2.337 2.462 3.82 3.305 2.59 1.477 5.193 1.497 7.801.071a60.41 60.41 0 0 0 2.986-1.73c3.875-2.424 7.634-2.599 11.262.551 1.267 1.095 2.714 1.477 4.308.933 2.139-.732 3.969-.246 5.588 1.38.563.564 1.249 1.031 1.954 1.393 1.774.921 3.919.428 4.895-1.069-.21-.201-.414-.428-.642-.615-2.016-1.659-3.19-3.856-3.376-6.5-.154-2.262-.117-4.549-.012-6.824.148-3.208.606-6.403.637-9.61.055-5.988-2.324-9.092-7.906-10.239-7.535-1.543-14.557.013-20.961 4.426-4.97 3.428-7.48 8.275-7.251 14.58.056 1.556.136 3.105.173 4.66.037 1.374-.062 2.754-1.069 3.758-.581.603-1.372.973-2.207 1.53Zm-33.997-29.097c1.372.914 2.738 1.192 4.611.855 3.11-.557 5.817-1.95 7.999-4.387.575-.641 1.137-1.296 1.743-1.905 1.36-1.367 2.98-1.763 4.797-1.309a14.29 14.29 0 0 1 1.848.577c2.04.797 3.882.44 5.57-.959.389-.318.803-.603 1.192-.921 1.583-1.27 3.196-1.27 4.79-.071 1.082.81 2.084 1.75 3.166 2.56.754.57 1.539 1.147 2.398 1.503 1.007.422 2.102.506 3.122-.408-.217-.505-.39-.985-.625-1.426a18.213 18.213 0 0 1-2.126-7.536c-.13-2.171-.167-4.349-.266-6.519-.142-3.001-.328-6.001-1.174-8.904-1.231-4.219-3.889-6.87-7.931-8.036a17.462 17.462 0 0 0-8.376-.35c-7.27 1.464-12.387 5.916-15.651 12.773-2.188 4.594-2.973 9.526-2.837 14.626.05 1.86.235 3.72.352 5.579.105 1.653-.439 2.936-1.885 3.733-.241.136-.451.331-.717.525Zm56.942-22.642c.093.11.186.214.278.324 1.224-.752 2.461-1.484 3.678-2.255 1.268-.804 2.479-1.705 3.771-2.463 2.003-1.173 4.061-1.179 6.089-.026.778.447 1.539.933 2.281 1.445 1.162.804 2.324.797 3.473.02.829-.558 1.626-1.18 2.424-1.782 1.483-1.115 3.065-1.355 4.765-.642.322.136.649.253.971.389 1.001.44 1.953.311 2.794-.376.698-.57 1.397-1.167 1.978-1.866 1.323-1.595 2.936-2.197 4.908-1.847.439.077.884.103 1.329.129.723.039 1.44.007 2.231-.421-.377-.447-.643-.81-.952-1.121-2.07-2.074-3.579-4.543-4.673-7.303-.723-1.815-1.366-3.668-2.095-5.476-.655-1.62-1.298-3.253-2.102-4.789-2.102-4.005-5.31-6.474-9.624-7.291-4.667-.881-9.161-.201-13.445 1.86-4.265 2.048-6.954 5.509-8.073 10.298-.791 3.382-.71 6.771-.123 10.174.395 2.294.803 4.581 1.131 6.888.26 1.828.031 3.616-.717 5.308-.117.265-.198.551-.297.823Zm10.824-70.48c-.359-2.703-.705-4.997-.952-7.304-.266-2.417-.402-4.847-.661-7.264-.316-2.955-.971-5.82-2.356-8.444-1.52-2.89-3.783-4.64-7.009-4.66-1.719-.006-3.468.046-5.155.357-4.383.797-8.475 2.423-12.054 5.268-3.103 2.47-4.964 5.722-5.39 9.805-.192 1.802-.248 3.616-.359 5.424-.179 2.949-.748 5.748-2.62 8.094-.069.084-.031.26-.056.505 1.638-.13 3.035-.758 4.32-1.62 1.873-1.25 3.728-2.54 5.545-3.881 1.972-1.452 3.987-1.627 6.138-.5 1.107.577 2.238 1.096 3.369 1.614 1.929.888 3.666.473 5.236-.907.451-.402.884-.83 1.341-1.225.902-.77 1.885-.894 2.887-.265.673.42 1.31.92 1.953 1.4 1.088.81 2.126 1.69 3.258 2.423.729.467 1.576.732 2.565 1.18Zm-51.49 94.703c2.731 20.225 4.617 40.496 6.008 60.838 5.05-20.329 8.734-40.885 10.94-61.842-.729.214-1.446.369-2.12.635-1.867.726-3.764.777-5.693.382-1.02-.207-2.033-.453-3.06-.602-2.008-.286-4.011-.35-6.076.589Zm65.967-80.518c.778-.843 1.372-1.62 2.089-2.236 1.817-1.555 3.987-1.75 6.194-1.432 1.675.246 2.794-.402 3.461-1.963.464-1.083.989-2.172 1.224-3.319.365-1.762.637-3.57.711-5.372.241-5.482-1.589-10.29-4.784-14.516-2.016-2.67-4.76-3.836-8.024-3.298-4.692.777-8.592 5.275-8.95 10.245-.229 3.156.296 6.202 1.335 9.15 1.514 4.31 3.739 8.224 6.144 12.034.161.253.389.454.6.707Zm16.046-15.223c-.352 2.424-.593 4.537-.989 6.61a13.553 13.553 0 0 1-2.287 5.353c-.853 1.206-1.978 1.86-3.424 1.821-.643-.02-1.286-.13-1.923-.103-.884.038-1.792.045-2.639.278-1.57.434-1.78.882-1.515 2.566.038.253.099.506.13.765.532 4.355.204 8.496-2.775 11.95 1.187.745 2.213.92 3.696.66 2.059-.35 3.641-1.528 4.995-3.116 1.533-1.795 3.4-2.495 5.613-1.691 1.903.693 3.467.207 4.92-1.141 1.001-.927 2.058-1.782 3.091-2.67 1.261-1.076 2.664-1.277 4.184-.752.705.246 1.391.551 2.102.758 1.045.299 2.102.59 3.165.778.921.162 1.836-.013 2.967-.421-.556-.493-.909-.823-1.273-1.128-1.521-1.257-2.572-2.858-3.159-4.789-.266-.888-.464-1.801-.705-2.695-.494-1.84-.915-3.714-1.527-5.515-.884-2.592-2.571-4.504-4.883-5.82a14.266 14.266 0 0 0-5.334-1.788c-.81-.084-1.645.058-2.43.09Zm17.154-43.023c.952-.414 1.44-1.056 1.897-1.717 1.274-1.834 2.003-3.907 2.38-6.13.89-5.223-1.174-9.714-5.625-12.242-2.788-1.58-5.786-2.177-8.889-1.646-2.67.454-5.186 1.51-6.923 3.83-2.985 3.999-3.981 8.496-2.683 13.447.476 1.814 1.323 3.46 2.634 4.796 1.421 1.451 3.084 1.866 5.223 1.224-1.681-1.924-2.442-4.134-3.078-6.402 1.02 1.419 1.947 2.883 2.93 4.303a7.99 7.99 0 0 0 1.322 1.451c.186.162.551.11.928.169-1.336-4.018-1.805-7.699-1.255-9.799.488 3.267 1.001 6.461 2.231 9.462h3.208c.316-2.832.618-5.593.928-8.354l.358.02c.179 2.864.365 5.722.55 8.67.142.014.383.066.618.059 1.472-.032 1.669-.188 2.009-1.704.161-.707.26-1.426.353-2.139.241-1.827.469-3.655.71-5.534.149.123.279.181.285.246.247 2.605.365 5.21-.111 7.99Zm1.31 37.256c3.14-3.707 5.211-7.854 5.316-12.85.08-3.791-1.453-6.824-4.296-9.112-2.015-1.62-4.296-2.242-6.837-1.782-3.474.622-6.274 2.43-8.505 5.23-3.048 3.836-3.295 7.977-.76 12.202.42.7.914 1.355 1.446 1.964 3.054 3.531 6.837 5.314 11.503 5.08l-1.001-3.881.241-.098c.507.901 1.014 1.795 1.521 2.696.599-3.687-.977-6.895-1.583-10.297 1.607 3.402 3.252 6.798 2.955 10.848Zm-68.873 10.427c-.086.032-.173.058-.253.09-.433-1.678-.859-3.363-1.304-5.041-.087-.337-.161-.797-.396-.953-.723-.499-1.539-.635-2.411-.35-.791.26-1.019.85-1.094 1.646-.241 2.65-.519 5.301-.809 8.218-.544-2.858-.476-5.509-.359-8.373a4808.838 4808.838 0 0 0-6.002 4.089c1.57 3.298 1.335 6.83 1.181 10.317.216.039.327.097.401.064.408-.181.823-.356 1.206-.59 2.837-1.717 5.569-1.464 8.221.448.736.525 1.514.998 2.201 1.581 1.162 1.005 2.274 1.05 3.492.104.828-.648 1.725-1.219 2.621-1.763 2.343-1.413 4.852-2.06 7.553-1.633 1.515.24 3.011.583 4.513.9 1.595.338 1.966-.006 1.817-1.736a6.124 6.124 0 0 0-.111-.765c-.575-2.618-1.156-5.242-1.731-7.847-.927-.493-1.885-.927-2.769-1.484-.847-.532-1.607-1.206-2.429-1.782-.816-.577-1.453-1.471-2.43-1.685v6.83c-.525-1.996-1.02-3.856-1.551-5.871-1.564 1.095-2.992 2.21-4.741 2.002-1.626-.188-3.215-.739-4.809-1.127-.007 1.53-.007 3.123-.007 4.71ZM70.682 55.26c.037-.045.08-.09.118-.136.865.849 1.737 1.678 2.584 2.547.81.836 1.638 1.659 2.373 2.566.748.914 1.39 1.912 2.077 2.87.173-.129.229-.148.247-.187a.963.963 0 0 0 .08-.298c.693-7.368-2.15-13.2-7.182-18.067-.18-.175-.396-.312-.606-.448-2.683-1.834-5.52-1.788-8.153-.175-3.573 2.184-5.36 5.703-5.668 10-.068.959.068 1.983.309 2.916 1.106 4.322 3.56 7.569 7.281 9.766 1.737 1.023 3.536 1.244 5.428.531 2.033-.765 4.073-1.51 6.31-2.333-2.948-2.424-5.847-4.802-8.74-7.18 3.728 1.808 7.14 4.07 10.088 7.05.068-.077.136-.149.204-.226-2.25-3.072-4.5-6.137-6.75-9.196Zm111.722 68.899c-.532-.292-.878-.486-1.224-.674-3.61-1.983-6.126-4.996-7.696-8.91-.674-1.672-1.292-3.364-2.04-4.997-1.026-2.242-2.732-3.687-5.075-4.134-3.906-.752-7.671-.208-11.231 1.678-.414.221-.76.577-.983.752 1.125 2.663 2.182 5.106 3.202 7.576.822 1.995 1.558 4.03 2.405 6.013.772 1.808 1.903 3.383 3.232 4.802.464.493.897.642 1.57.512 1.163-.22 2.356-.408 3.524-.337 1.372.084 2.72.493 4.092.694 1.415.207 2.843.518 4.259.473 2.411-.078 4.469-1.076 5.965-3.448ZM4.585 39.702c.142.097.223.168.31.207.178.084.364.156.555.22 3.165 1.037 5.755 2.994 7.795 5.677 1.212 1.588 2.59 2.573 4.513 2.91 1.978.35 3.795 1.225 5.161 2.832.816.959 1.508 2.035 2.194 3.11.94 1.478 1.688 1.776 3.45 1.147-1.002-2.423-.328-4.75.45-7.063.23-.68.477-1.361.674-2.054.23-.791.483-1.588.594-2.398.643-4.498-.495-8.373-4.061-11.12-3.524-2.716-7.276-3.37-11.127-.57-.24.174-.519.297-.766.466-3.22 2.177-6.435 4.374-9.742 6.636Zm113.459 61.881c.062.071.117.149.179.22.352-.162.705-.305 1.051-.48 2.812-1.458 5.767-2.443 8.895-2.8 3.097-.35 6.15-.187 8.938 1.413.909.525 1.749.759 2.769.772 4.661.058 8.858 1.425 12.239 4.983.161.169.377.285.513.382 1.014-.557 1.91-1.121 2.856-1.548.971-.448 1.997-.765 3.047-1.16-1.458-1.659-1.477-1.666-3.201-.966a5.04 5.04 0 0 1-.421.156c-1.737.583-2.961.103-3.888-1.556-.297-.525-.55-1.075-.797-1.555-2.535-.434-4.723-1.328-6.126-2.443-.426-.337-.729-.72-.587-1.31.142-.602.587-.783 1.131-.79.247-.006.501.02.736-.026.877-.168 1.545-.602 1.866-1.646-.432-.13-.791-.272-1.162-.343-3.226-.61-6.478-.855-9.729-.253-6.497 1.206-12.295 4.09-17.549 8.23-.284.214-.513.48-.76.72Zm-10.008 53.812c-.012.098-.056.201-.037.292.402 2.275-.303 3.435-2.473 3.869-.717.142-1.477.097-2.212.065-1.676-.072-2.59.641-2.875 2.32-.191 1.121-.395 2.242-.55 3.369-.791 5.846-1.57 11.697-2.355 17.543-.198 1.471-.42 2.935-.63 4.367.389.156.618.253.846.344 1.366.518 2.065.091 2.232-1.426.068-.609.018-1.238-.006-1.86-.112-2.851-.248-5.696.247-8.528.871-4.944 3.641-8.534 7.399-11.399 3.288-2.508 7.003-4.024 10.947-4.964.352-.084.692-.227 1.082-.356-2.145-3.176-8.32-5.048-11.615-3.636Zm42.559-19.162c.099 1.231.779 1.153 1.397.985 1.576-.434 3.14-.894 4.697-1.4 3.759-1.225 7.449-1.49 11.059.583 1.063.61 2.182.551 3.282.026 2.572-1.224 5.23-2.158 7.999-2.76.241-.052.538-.078.692-.24.247-.259.581-.642.55-.94-.099-1.056-.333-2.106-.544-3.292-2.8.959-5.47.739-8.14.078a33.92 33.92 0 0 0-3.202-.616c-1.02-.149-2.053-.149-3.079.312.056 1.594-.952 2.19-2.145 2.592-1.298.434-2.633.466-3.956.214-1.446-.273-2.565.123-3.548 1.315-1.298 1.588-2.843 2.877-5.062 3.143Zm1.959-37.178c.686 1.627.884 1.75 2.052 1.251.779-.33 1.527-.732 2.269-1.14 2.639-1.472 5.347-1.79 8.122-.48 1.657.784 3.085.544 4.543-.616 2.09-1.659 4.426-2.709 7.158-2.475.928.078 1.274-.227 1.391-1.212.118-1.005.025-2.028.025-3.013-1.453-.519-2.813-.986-4.154-1.504-1.069-.415-2.027-.305-2.905.493-.674.609-1.397 1.16-2.046 1.795-2.244 2.216-4.723 3.344-7.826 2.125-1.075-.421-2.07-.11-2.849.758-1.607 1.789-3.344 3.37-5.78 4.018Zm-43.646 97.957c.29.959.482 1.186 1.483 1.076 1.224-.13 2.442-.369 3.641-.648 2.899-.668 5.773-.655 8.648.13 1.335.369 2.658.803 3.999 1.114 1.632.376 3.276.758 4.939.94a7.738 7.738 0 0 0 4.531-.862c-1.261-.979-2.423-1.841-3.542-2.754-.68-.558-1.397-.726-2.219-.551-.581.123-1.162.246-1.737.382-1.366.318-2.652.072-3.851-.648-.6-.356-1.193-.739-1.731-1.186-2.361-1.937-4.858-2.073-7.473-.654a2039.429 2039.429 0 0 0-6.688 3.661Zm-34.733-34.106c.037.143.074.292.117.434.587-.149 1.206-.227 1.756-.466.958-.415 1.885-.914 2.8-1.419 2.83-1.562 5.823-1.867 8.926-1.316 1.069.188 2.132.447 3.202.642 3.38.615 6.187-.966 9.284-2.508-1.385-1.16-2.504-2.165-3.69-3.072-1.292-.985-1.7-.933-3.048.071-.439.331-.871.681-1.323.998-2.04 1.478-4.24 1.893-6.614 1.05-.47-.168-.945-.298-1.409-.467-1.57-.576-2.911-.272-4.005 1.083-1.682 2.073-3.592 3.843-5.996 4.97ZM23.469 56.142c-.952-2.158-2.343-3.914-4.537-4.756-1.601-.616-3.276-1.005-5.174-1.569 1.088 1.342 2.003 2.476 2.93 3.597.322.389.637.83 1.045 1.089 1.174.745 2.361 1.477 3.604 2.067.649.311 1.44.37 2.132-.428Zm-10.416-7.005c-2.033-3.434-6.026-6.655-8.406-6.63-.13 1.459.439 2.483 1.675 3.13 2.287 1.187 4.574 2.379 6.731 3.5Z"/>
  <path id="" class="path" fill="#35AB99" fill-opacity=".47" d="M108.524 272.917c.087-.428.167-.862.254-1.29.098.032.197.071.296.104a96.55 96.55 0 0 1-.581 1.16l.031.026Z"/>
  <style>

  </style>
</svg>
