<svg xmlns="http://www.w3.org/2000/svg" width="265" height="518" fill="none" viewBox="0 0 265 518">
  <path fill="#8A8665" d="M20.613 185.135c.15-1.415-.182-2.469-.914-3.412-.474-.603-.982-1.185-1.449-1.796-1.293-1.691-2.106-3.612-2.465-5.727-.318-1.844-.068-3.584 1.334-4.909 1.504-1.421 2.276-3.154 2.675-5.186.481-2.399 1.625-3.321 4.023-3.162 1.544.104 3.088.513 4.598.916 4.239 1.137 8.465 2.35 12.697 3.529.25.069.508.104 1.158.236-.528-.624-.806-.992-1.117-1.311-2.54-2.614-4.747-5.484-6.447-8.729-.765-1.456-1.355-3.016-1.903-4.576-.765-2.157-.46-4.264.562-6.275.325-.638.697-1.248 1.056-1.872 1.037-1.824 2.106-3.62 3.088-5.464 2.086-3.924 4.923-5.408 9.163-4.32 3.948 1.013 7.679 2.684 11.268 4.66 1.327.728 2.255 1.941 2.925 3.279 1.253 2.517 2.39 5.09 3.57 7.648.25.541.46 1.109.758 1.831.5-.819.196-1.505.115-2.136-.61-4.535-1.896-8.868-3.637-13.084-.82-1.99-1.591-4.007-2.22-6.066-.813-2.663-.752-5.367.108-8.023.223-.679.494-1.352.819-1.989 1.544-2.989 3.386-3.537 6.264-1.886.38.215.758.429 1.11.686 2.12 1.539 4.477 1.817 7.03 1.456.06-.208.162-.409.183-.61.108-1.193.277-2.357 1.469-2.961 1.442-.721 2.953-1.241 4.524-.52.772.354 1.57.839 2.133 1.47 3.995 4.472 6.108 9.624 5.194 15.795-.156 1.033-.298 2.038-.102 3.113.711 3.917 0 7.599-1.903 11.066-.392.714-.63 1.511-.914 2.281-.535 1.449-1.016 2.919-1.591 4.347-.373.923-.867 1.789-1.307 2.677-1.124 2.281-1.057 4.479.413 6.594.25.36.454.755.69 1.13 2.418 3.785 1.619 7.606-1.394 10.878-.251.271-.583.562-.644.895-.386 2.128-1.442 3.799-3.264 5.138 10.544 24.336 18.853 49.394 24.047 75.492.129-.014.251-.035.379-.048.515-2.178 1.036-4.348 1.544-6.525 5.35-22.957 12.454-45.331 21.142-67.186 2.573-6.469 5.065-12.966 7.598-19.449.196-.513.372-1.033.684-1.879-.393-.305-.901-.631-1.334-1.033-2.844-2.614-6.074-4.631-9.44-6.441-3.115-1.671-6.251-3.314-9.372-4.985-2.987-1.602-5.709-3.606-8.35-5.741-2.499-2.018-3.697-4.576-3.386-7.835.149-1.532-.162-2.954-.664-4.389-.528-1.511-.914-3.072-1.3-4.625-.88-3.543.088-6.559 2.533-9.145.189-.194.366-.402.63-.686-1.348-2.289-2.933-4.306-5.133-5.832-2.147-1.49-4.307-3.009-6.25-4.756-5.797-5.214-9.332-11.718-10.24-19.636-.203-1.76-.467-3.515-.718-5.27-.372-2.648-.975-5.22-2.058-7.668-.36-.804-.63-1.65-.867-2.503-.704-2.572-.278-4.943 1.293-7.079a19.009 19.009 0 0 1 1.592-1.886c2.83-2.926 5.322-6.143 7.605-9.513 1.726-2.551 3.86-2.829 6.433-1.074 1.611 1.095 2.546 2.71 2.986 4.603.46 1.997.847 4.008 1.233 6.019.988 5.13 3.677 9.062 7.99 11.815 2.343 1.497 4.727 2.925 7.097 4.368 4.097 2.482 8.208 4.957 12.312 7.433.446.27.9.52 1.55.54-.392-.402-.785-.81-1.178-1.213-5.952-6.032-11.343-12.522-15.46-20.045-2.492-4.555-4.72-9.235-6.23-14.241-.786-2.614-1.273-5.277-1.185-8.023.182-5.671-.339-11.301-.806-16.938-.305-3.703-.461-7.42.128-11.122.095-.596.237-1.206.481-1.754 1.023-2.288 3.657-2.995 5.553-1.407.948.797 1.768 1.802 2.506 2.815 5.295 7.224 9.453 15.115 13.002 23.359a469.651 469.651 0 0 1 3.21 7.634 39.75 39.75 0 0 0 8.017 12.418 69.391 69.391 0 0 0 5.046 4.818c-.177-.534-.339-1.074-.535-1.601-1.937-5.311-3.461-10.74-4.246-16.363-.996-7.135-1.145-14.256.501-21.328.873-3.765 2.383-7.239 4.584-10.393 2.066-2.961 4.747-4.986 8.262-5.755 5.526-1.207 10.862-3.002 16.07-5.235 3.602-1.546 7.32-1.858 11.139-.957 2.445.576 4.585 1.706 6.345 3.515 1.443 1.477 3.041 2.628 4.957 3.37 2.709 1.047 4.558 3.086 5.906 5.679 2.505 4.805 3.392 10.019 3.812 15.357.041.534.075 1.068.122 1.678 4.022-1.296 8.14-1.691 11.986-3.286 3.501-1.456 7.158-1.58 10.855-.707 2.506.59 4.707 1.726 6.407 3.688 2.465 2.843 5.268 5.235 8.37 7.33 2.844 1.913 5.024 4.527 6.758 7.536 1.354 2.343 2.221 4.853 2.147 7.571-.115 3.966.345 7.85 1.137 11.718.887 4.327-.047 8.362-2.092 12.182-.386.728-.765 1.456-1.145 2.191-.02.042.014.111.034.264.17.097.386.256.623.36 4.72 2.011 9.041 4.75 13.375 7.495 5.803 3.675 8.383 9.257 8.627 15.885.23 6.247.041 12.522 0 18.776-.034 5.374-2.634 9.79-6.257 13.5-5.262 5.387-11.621 8.41-19.131 8.681-.623.02-1.246.104-1.875.159l-.102.354c.494.249.989.513 1.49.742 2.519 1.151 5.079 2.225 7.557 3.466 1.991.999 3.914 2.143 5.81 3.315a10.537 10.537 0 0 1 3.542 3.605c1.097 1.851 1.327 3.8.217 5.679-2.167 3.661-4.605 7.12-7.74 10.005-2.547 2.343-5.52 3.862-8.743 4.971-5.952 2.046-11.918 4.056-17.817 6.254-4.814 1.796-9.46 1.325-14.119-.45-1.097-.416-2.181-.874-3.508-1.408.264.915.434 1.595.65 2.26 1.3 3.973 2.249 7.995 1.917 12.231-.373 4.722-2.33 8.487-6.406 10.941-2.533 1.526-5.343 1.865-8.167 1.602-1.971-.187-3.996-.569-5.844-1.276-4.68-1.782-9.434-2.752-14.452-2.69-2.241.028-4.537-.395-6.738-.915-3.927-.929-7.151-3.12-9.589-6.435-2.986-4.056-5.112-8.486-5.403-13.673-.014-.27-.075-.54-.136-.901-.325-.069-.623-.152-.928-.201-3.189-.499-5.485-2.281-6.921-5.186-.636-1.283-1.117-2.642-1.604-3.994-1.125-3.113-2.818-5.845-5.14-8.334-.183.277-.366.464-.454.693-6.569 16.883-13.402 33.67-18.9 50.969-4.842 15.24-8.777 30.736-12.183 46.378a6.995 6.995 0 0 0-.054 2.628c2.099 12.064 3.901 24.177 4.977 36.387.82 9.333 1.483 18.679 2.059 28.033.542 8.743.887 17.5 1.32 26.25.007.146.061.291.143.673.196-.34.325-.5.379-.687 3.217-10.754 7.977-20.835 12.887-30.84.569-1.158.765-2.177.44-3.453-.291-1.158-.305-2.413-.325-3.626-.027-1.879.047-3.765.074-5.644.021-1.817.217-3.599 1.003-5.291v5.478c1.726-3.495 3.291-6.656 4.848-9.825.115.056.224.104.339.16-.725 1.885-1.429 3.778-2.174 5.657-.813 2.053-1.686 4.084-2.465 6.15-.853 2.268-1.002 4.597-.345 7.204.318-.443.542-.714.724-1.005 2.641-4.32 5.289-8.639 7.903-12.98.332-.554.637-1.171.765-1.795.562-2.684 1.639-5.145 2.797-7.6 1.368-2.891 2.594-5.845 3.894-8.771.217-.478.481-.943.88-1.345-.277 1.38-.562 2.753-.914 4.514 1.05-1.407 1.862-2.496 2.682-3.585.095.049.183.104.277.153-.453.957-.846 1.948-1.368 2.857-.548.949-1.137 1.899-1.848 2.724-2.154 2.503-3.407 5.499-4.598 8.529-.068.18-.088.381.128.714 4.971-6.095 9.935-12.189 14.905-18.284-1.314 3.113-3.162 5.852-5.086 8.688l3.454-1.789c.048.097.095.194.149.284-1.517 1.137-3.027 2.295-4.564 3.412-1.47 1.067-2.763 2.274-3.731 3.875-.881 1.45-1.957 2.767-2.872 4.251 4.707-3.169 9.318-6.483 14.688-8.549-.778.658-1.544 1.331-2.329 1.976-.847.693-1.7 1.373-2.58 2.024-.86.645-1.754 1.241-2.533 2.157 1.219-.25 2.438-.5 3.664-.749l.101.291c-1.191.506-2.383 1.026-3.582 1.512-.704.284-1.415.589-2.153.741-2.371.486-4.233 1.838-6.054 3.37-2.621 2.205-4.829 4.715-6.637 7.676-5.214 8.535-9.46 17.562-13.503 26.708a1.41 1.41 0 0 0-.129.665c6.461-8.223 13.761-15.455 22.781-20.71l-8.675 7.862c.048.09.102.174.149.264 3.061-1.193 6.156-2.323 9.176-3.606 3.034-1.289 6-2.738 9.122-3.931-.251.208-.495.437-.759.631-4.076 3.023-8.62 5.034-13.32 6.802-9.074 3.411-8.912 3.404-14.715 10.553-7.632 9.408-7.334 9.686-10.686 21.681-.142.52-.129 1.095-.122 1.643.42 22.298.047 44.59-.203 66.888-.251 22.354-.542 44.701-.285 67.054.014 1.158.183 2.309.325 3.46.082.631-.054 1.117-.623 1.38-.596.27-1.097 0-1.395-.506a3.612 3.612 0 0 1-.487-1.387c-.109-.763-.122-1.546-.129-2.323-.264-24.572.102-49.138.359-73.71.203-19.636.21-39.272.129-58.901-.027-7.425-.434-14.858-.854-22.277a2603.89 2603.89 0 0 0-2.383-37.018c-.677-9.458-1.917-18.86-3.332-28.227-.271-1.809-.555-3.612-.84-5.422-.088-.534-.203-1.068-.575-1.615-.441 2.281-.928 4.562-1.321 6.85-1.727 10.158-3.555 20.295-5.1 30.48-1.123 7.391-1.922 14.838-2.742 22.27a859.98 859.98 0 0 0-2.126 21.682c-1.68 19.629-2.627 39.278-1.855 58.99.467 11.864 1.3 23.699 2.404 35.514a517.028 517.028 0 0 0 4.401 34.626c1.388 8.584 2.79 17.168 4.341 25.724.603 3.314 1.618 6.545 2.465 9.804.257.991.108 1.601-.535 1.83-.637.222-1.226-.09-1.605-1.026-.393-.971-.765-1.969-.975-2.989-1.233-6.018-2.546-12.022-3.576-18.082-1.49-8.792-2.878-17.605-4.09-26.438-1.083-7.96-1.97-15.954-2.756-23.948-.711-7.281-1.185-14.588-1.74-21.883-.19-2.544-.264-5.096-.468-7.64-.074-.923-.216-1.9-.582-2.732-1.639-3.737-3.298-7.475-5.113-11.129-.697-1.407-1.727-2.683-2.77-3.868-4.794-5.485-10.624-9.603-16.922-13.042-3.82-2.087-7.727-4.001-11.607-5.984-4.76-2.434-9.4-5.048-13.503-8.57-.447-.388-1.003-.652-1.524-.936-5.878-3.224-12.244-4.313-18.812-4.458a50.59 50.59 0 0 1-13.903-2.274 32.402 32.402 0 0 1-1.077-.361c-.128-.049-.237-.139-.514-.305 1.889.25 3.589.548 5.295.679 3.291.25 6.59.507 9.887.576 5.011.104 9.941.596 14.682 2.413.128.048.284.041.684.09-.407-.388-.623-.61-.86-.818-6.176-5.443-12.813-10.206-19.76-14.554-3.502-2.191-6.84-4.666-10.531-7.204.44 0 .562-.034.65.007 4.442 2.295 8.952 4.479 13.307 6.934 7.53 4.25 14.383 9.513 20.627 15.545 4.659 4.507 9.833 8.147 15.548 11.052a529.422 529.422 0 0 1 10.415 5.45c4.998 2.683 9.718 5.824 14.289 9.388-.285-.451-.562-.902-.86-1.345-5.506-8.168-11.106-16.274-16.49-24.531-3.392-5.207-6.453-10.643-9.683-15.954-.265-.437-.678-.881-1.118-1.096-6.582-3.224-12-7.932-16.435-13.798-2.093-2.759-4.564-5.02-7.327-7.003-3.278-2.357-6.569-4.694-9.853-7.051a5.371 5.371 0 0 1-.982-.881c4.388 1.99 8.573 4.348 12.555 7.149-2.668-4.299-5.33-8.598-7.998-12.89.129-.09.25-.187.38-.277 2.492 3.183 5.058 6.31 7.455 9.568 1.822 2.476 3.46 5.103 5.127 7.697 3.94 6.115 8.952 11.093 15.047 14.935.453.291.927.554 1.53.915-.034-.361 0-.59-.081-.763-3.047-6.726-4.89-13.853-6.711-20.988-1.693-6.649-3.366-13.305-5.777-19.733-.25-.665-.487-1.386-.907-1.934-4.016-5.235-7.984-10.539-13.3-14.512a78.872 78.872 0 0 0-6.92-4.639 47.562 47.562 0 0 1-8.71-6.656c.36.167.732.319 1.084.513a3277.23 3277.23 0 0 1 9.528 5.388c5.276 2.995 9.8 6.912 13.612 11.69 1.022 1.282 1.997 2.614 3.216 4.215-.095-.61-.088-.887-.176-1.13-1.977-5.276-3.975-10.546-5.939-15.829-.359-.978-.914-1.754-1.74-2.33-1.077-.742-2.147-1.491-3.264-2.177-2.6-1.602-5.262-3.092-7.822-4.756-3.514-2.282-6.088-5.54-8.444-9.014 5.37 6.129 12.169 10.178 19.164 13.95.007-.007.048-.041.068-.09.02-.048.047-.111.034-.152-.081-.264-.156-.527-.271-.777-3.44-7.273-6.887-14.547-10.34-21.841 1.3 1.137 7.645 11.482 10.286 17.216 2.83 6.143 5.424 12.404 8.153 18.686-.989-9.811-4.523-18.942-6.474-28.649 2.357 4.361 4.55 8.604 5.81 13.278 1.897 7.03 3.102 14.165 2.96 21.487-.007.485.081.991.237 1.456a5048.152 5048.152 0 0 0 5.648 17.167c.033.097.115.18.297.472 2.106-8.494 2.987-17.105 5.872-25.266-.346 2.565-.657 5.144-1.057 7.703-.4 2.593-.88 5.165-1.205 7.779 5.837-8.389 9.155-17.874 11.736-27.692.101.034.21.062.311.097l-.345 2.253c-1.3 8.785-4.348 16.918-8.871 24.462-2.432 4.056-4.165 8.389-5.323 12.979-.17.666-.271 1.456-.095 2.101 1.605 5.873 3.183 11.746 4.95 17.563 1.504 4.944 3.786 9.561 6.494 13.922 2.614 4.209 5.364 8.335 8.059 12.488.196.305.46.568.86 1.054-3.23-12.779-4.612-25.495-4.063-38.426l2.62 19.872.177.02c.149-.804.27-1.608.46-2.399.596-2.475 1.145-4.964 1.835-7.412 1.253-4.444 1.87-8.992 2.262-13.582.21-2.483.359-4.972.535-7.426.122.742.291 1.532.373 2.336.616 6.455.44 12.827-1.477 19.095-.955 3.113-1.76 6.303-2.295 9.513-.99 5.928-.556 11.801 1.056 17.611 1.03 3.717 2.445 7.149 4.686 10.311 3.847 5.429 7.49 11.01 11.167 16.564 1.544 2.336 2.953 4.763 4.578 7.412.034-.52.074-.798.06-1.061-.148-2.933-.284-5.873-.473-8.806-.041-.638-.156-1.352-.488-1.872-4.368-6.947-7.205-14.498-8.654-22.61-.183-1.026-.427-2.039-.522-3.099 2.804 7.835 5.133 15.85 9.21 23.192.359-2.711-.197-5.401-.23-8.098-.041-2.69-.007-5.38-.007-7.863.792 3.835 1.774 7.863 1.99 12.023.333 6.531.712 13.07.874 19.608.061 2.33.908 4.257 2.032 6.254.034-.339.102-.679.095-1.019-.264-13.091-.014-26.174.84-39.244.934-14.387 2.309-28.733 3.886-43.057 1.903-17.258 4.795-34.342 8.018-51.378.549-2.884 1.185-5.748 1.687-8.639.149-.846.088-1.775-.075-2.621-4.253-22.257-10.51-43.903-18.819-64.926-1.686-4.264-3.467-8.486-5.214-12.723-.224-.547-.522-1.067-.82-1.664-1.523.486-2.844 1.137-3.826 2.268a44.943 44.943 0 0 0-3.318 4.291c-1.327 1.956-2.499 4.022-3.799 6.005a15.973 15.973 0 0 1-1.957 2.434c-2.37 2.392-5.269 1.809-6.724-.423-.088-.139-.217-.243-.447-.5-.508.472-1.037.916-1.51 1.415-1.748 1.858-3.854 3.058-6.319 3.515-4.11.756-7.902 2.267-11.437 4.542-2.669 1.719-5.479 1.83-8.404.624-3.102-1.276-5.892-3.044-8.451-5.214-1.47-1.248-2.411-2.829-2.702-4.791-.088-.604-.204-1.2-.285-1.803-.305-2.295-1.043-4.403-2.458-6.247-.494-.645-.948-1.373-1.233-2.136-.63-1.692.346-2.967 2.08-2.648 1.212.221 2.37.748 3.541 1.164.576.174 1.104.423 1.767.708Zm165.545-86.67c.556-.028.982-.028 1.409-.07 4.198-.443 8.404-.873 12.602-1.351 6.312-.714 12.528-1.844 18.569-3.931 7.015-2.427 13.13-6.254 18.209-11.787 1.788-1.956 3.258-4.133 4.51-6.483 1.951-3.668 2.526-7.496 1.585-11.58-.765-3.307-1.138-6.656-.975-10.06.129-2.67-.555-5.145-1.917-7.447-1.537-2.6-3.419-4.895-5.891-6.559-3.284-2.212-6.257-4.735-8.864-7.752-1.402-1.622-3.237-2.544-5.303-3.03-3.264-.769-6.453-.54-9.589.625-2.702 1.005-5.404 1.962-8.275 2.336-2.763.354-4.971 1.747-6.779 3.89-2.458 2.905-4.645 5.99-6.44 9.367-2.647 4.971-4.889 10.137-6.887 15.413-1.862 4.91-3.914 9.742-5.085 14.9-.759 3.35-1.585 6.678-2.364 10.02-.081.36-.081.735-.108.991 1.977.922 3.833 1.789 5.79 2.697.359-.25.806-.561 1.246-.873 8.986-6.324 16.848-14.117 25.706-20.614.257-.187.521-.353.785-.527-7.909 8.945-16.699 16.78-26.627 23.29.881 1.227 1.7 2.371 2.56 3.564 7.578-4.777 15.054-9.485 22.53-14.2-6.413 6.42-13.652 11.593-21.988 15.184.569 1.422 1.056 2.642 1.591 3.987Zm-24.426-12.577c-.101-.333-.149-.548-.23-.75-2.932-7.446-3.84-15.19-3.271-23.164.373-5.165 1.524-10.185 2.594-15.22.345-1.615.765-3.21 1.151-4.811.136.652.054 1.248-.007 1.851-.521 5.076-1.022 10.144-1.557 15.22-.671 6.434-.657 12.84.569 19.212.467 2.434.968 4.86 1.896 7.26 1.3-.292 2.492-.555 3.623-.805.142-2.516.155-4.957.44-7.363a59.007 59.007 0 0 1 1.273-7.024c.576-2.357 1.361-4.673 2.126-6.982.745-2.24 1.571-4.444 2.364-6.663.196.243.196.41.155.562-1.957 7.217-3.446 14.532-4.571 21.93-.27 1.775-.399 3.592-.318 5.388l4.266.513c.265-1.04.549-2.046.772-3.058 1.565-7.086 3.393-14.082 6.149-20.814 2.364-5.776 4.605-11.607 7.524-17.133 2.201-4.167 4.808-8.036 8.072-11.413.501-.513.765-1.019.711-1.747-.142-1.823-.149-3.66-.386-5.47-.494-3.863-1.361-7.628-3.19-11.108-1.137-2.177-2.641-3.931-4.957-4.791-2.079-.777-3.832-2.018-5.37-3.633-1.51-1.581-3.345-2.587-5.471-3.072-3.163-.721-6.258-.568-9.244.7-5.566 2.365-11.262 4.271-17.153 5.596-2.54.568-4.544 2.017-6.135 4.098-2.316 3.015-3.813 6.434-4.686 10.143-1.605 6.795-1.443 13.638-.488 20.496.962 6.913 3.135 13.458 5.661 19.906 3.095 7.911 7.192 15.268 11.722 22.382.522.818 1.206 1.518 1.822 2.288 1.449-.888 2.743-1.671 4.144-2.524Zm79.157-5.214c-2.364 2.288-4.409 4.437-6.617 6.379-5.674 4.978-12.412 7.793-19.543 9.741-7.043 1.928-14.262 2.635-21.487 3.314-2.188.208-4.368.5-6.481.749v4.944c13.774-.479 27.426-.95 41.078-1.428-.853.298-1.72.325-2.573.429-3.494.416-6.982.874-10.476 1.276-9.054 1.047-18.142 1.269-27.25 1.117-.312-.007-.616.048-1.016.083-.142 1.04-.278 1.997-.433 3.12 5.62.804 11.2.86 16.733 1.428 5.566.576 11.113 1.297 16.665 1.955-11.261.084-22.509.056-33.757-1.955-.413 1.089-.833 2.177-1.26 3.301 5.682 1.386 10.808 3.556 15.745 6.254 5.742 3.134 11.194 6.746 16.598 10.442 4.909 3.355 9.92 6.545 15.202 9.263.549.284 1.226.499 1.822.457 2.316-.18 4.625-.575 6.941-.721 5.77-.346 10.666-2.794 14.932-6.594 4.205-3.751 7.05-8.375 6.941-14.269-.101-5.429-.237-10.858.061-16.287.014-.277 0-.554-.02-.832-.461-6.115-2.479-11.336-7.971-14.574-3.379-1.99-6.724-4.022-10.137-5.956-1.199-.693-2.546-1.137-3.697-1.636Zm-45.297 66.382c-.136-.215-.285-.423-.4-.652-1.984-3.938-3.88-7.932-5.973-11.808a65.704 65.704 0 0 0-4.476-7.121c-1.408-1.955-3.074-3.716-4.673-5.519-.284-.319-.86-.638-1.212-.555-.921.229-1.787.68-2.647 1.027 1.794 8.465 3.704 16.702 6.182 24.801 1.835 6.011 4.49 11.62 7.74 16.973 4.775 7.877 11.662 12.806 20.16 15.587 3.793 1.241 7.504 1.109 11.282-.326 5.526-2.094 11.14-3.966 16.733-5.873 2.953-1.005 5.763-2.225 8.154-4.34 3.122-2.753 5.451-6.143 7.638-9.659.711-1.144.576-2.315-.121-3.446a9.032 9.032 0 0 0-3.298-3.14c-2.608-1.463-5.188-3.03-7.923-4.195-10.504-4.452-20.275-10.22-29.715-16.675-4.632-3.169-9.488-5.998-14.303-8.868-3.616-2.157-7.516-3.675-11.498-4.965-1.029-.333-2.099-.506-3.156-.763-.697-.166-1.137.049-1.246.812 1.294.755 2.594 1.442 3.806 2.253a41.807 41.807 0 0 1 3.664 2.753c1.124.95 2.18 1.997 3.216 3.05a91.828 91.828 0 0 1 3.115 3.391c.921 1.047 1.951 2.011 2.634 3.252-13.99-11.857-15.053-12.682-17.62-13.632-.366.333-.752.694-1.199 1.103 8.31 6.961 12.698 16.162 15.136 26.535Zm-91.177-28.858c-2.085 2.052-3.088 4.313-2.438 7.135.346 1.511.684 3.037 1.226 4.472.704 1.851 1.023 3.716.84 5.692-.203 2.212.535 4.063 2.302 5.374 2.364 1.754 4.7 3.564 7.199 5.11 2.587 1.601 5.35 2.919 8.038 4.354 3.359 1.796 6.745 3.564 9.758 5.942 5.465 4.32 9.894 9.444 12.041 16.329.196.631.46 1.248.751 1.837 2.567 5.27 8.939 5.713 12.081.756.84-1.318 1.361-2.892 1.815-4.41.819-2.732.833-5.581.894-8.403.102-5.159 0-10.324.284-15.469.413-7.412 1.125-14.81 1.653-22.222.203-2.871-.224-2.878-2.018-3.606-1.226 1.692-2.364 3.453-3.698 5.041a47.028 47.028 0 0 1-4.34 4.486c-1.531 1.401-3.183 2.669-4.842 3.918-1.605 1.206-3.183 2.468-5.032 3.321.068-.278.257-.396.42-.541 3.122-2.829 6.25-5.651 9.352-8.501 2.309-2.114 4.347-4.486 6.149-7.065.338-.478.636-.991.988-1.539-.413-.326-.697-.576-1.009-.784-.345-.228-.711-.416-1.097-.638-4.577 6.234-10.658 10.234-17.302 13.465 5.445-4.777 11.777-8.445 16.51-14.04-1.226-1.56-2.363-3.009-3.521-4.479-.488.166-.948.312-1.409.471-6.264 2.157-12.595 4.07-19.09 5.36-5.16 1.026-10.334 2.025-15.622 1.789-3.793-.16-7.592-.472-10.883-3.155Zm58.868 5.124c-.169 2.08-.291 3.952-.481 5.817-.812 8.112-1.449 16.239-1.496 24.399a610.8 610.8 0 0 1-.136 10.484c-.081 3.453-.467 6.857-1.754 10.095-1.198 3.023-3.142 5.277-6.216 6.393-.244.09-.468.229-.705.347 0 .353-.013.631 0 .901.258 4.846 2.289 8.958 5.106 12.723 2.086 2.794 4.869 4.514 8.161 5.422 2.431.673 4.902.881 7.401.846 3.163-.049 6.278.326 9.312 1.234a68.679 68.679 0 0 1 4.774 1.636c2.593.992 5.248 1.276 7.99 1.006 4.104-.409 7.443-3.148 8.696-7.183.772-2.49.92-5.069.399-7.565-.725-3.46-1.794-6.843-2.661-10.275-.224-.881-.671-1.429-1.429-1.879-4.348-2.566-7.842-6.067-10.706-10.262-4.808-7.024-8.181-14.741-10.341-22.999-1.605-6.157-3.041-12.362-4.558-18.54-.23-.943-.507-1.879-.785-2.898-.691.215-1.185.367-1.883.589.806 5.554 1.565 11.031 2.398 16.495.833 5.464 1.733 10.914 2.607 16.37-.115.021-.23.049-.339.07-1.293-5.374-2.797-10.706-3.826-16.128-1.036-5.477-1.598-11.045-2.37-16.585-.237 0-.562-.035-.874.007-.359.049-.704.159-1.164.27.413 7.44.948 14.797 2.322 22.042 1.382 7.273 3.021 14.491 4.551 21.737-5.844-14.041-8.871-28.65-8.417-43.973-1.26-.201-2.316-.381-3.576-.596Zm-12.778-20.087c-2.039-1.234-3.915-2.329-5.757-3.48-3.372-2.115-6.71-4.278-10.076-6.386-8.492-5.325-16.896-10.81-25.665-15.663-1.707-.943-3.298-2.128-4.876-3.293-3.657-2.69-6.04-6.296-7.171-10.761a80.506 80.506 0 0 1-.718-3.072c-.319-1.518-.562-3.05-.928-4.555-.339-1.394-1.084-2.538-2.343-3.252-1.287-.728-1.917-.61-2.77.59-2.573 3.64-5.255 7.197-8.377 10.365-2.234 2.267-2.736 4.867-1.422 7.745 1.74 3.827 2.404 7.904 2.94 12.043.453 3.516.92 7.031 2.39 10.31 2.56 5.72 6.548 10.179 11.681 13.514 2.993 1.948 5.533 4.271 7.368 7.35 1.32 2.212 3.237 3.279 5.654 3.751 4.043.79 8.079.686 12.129.159 9.169-1.206 18.047-3.633 26.783-6.642.406-.139.785-.333 1.279-.541-.108-.444-.196-.839-.291-1.227-10.076 1.4-19.564-.825-29.288-3.966.528-.063.684-.118.833-.097 3.521.596 7.043 1.199 10.564 1.796 5.248.887 10.53 1.359 15.853 1.151.623-.021 1.239-.125 1.937-.202-.041-.79-.068-1.379-.095-2.052-6.765-.437-13.287-1.622-19.591-3.945-6.305-2.323-12.061-5.741-18.02-9.305.393-.028.508-.076.596-.041 3.745 1.601 7.51 3.154 11.221 4.832 6.02 2.725 12.257 4.701 18.738 5.866 2.329.416 4.672.749 7.097 1.13.121-.846.223-1.491.325-2.122Zm-27.636-39.077c3.074 4.063 5.823 8.015 8.905 11.683 3.067 3.647 6.372 7.1 9.744 10.47 4.937 4.93 9.508 8.521 11.154 9.055l.758-1.706c-1.456-1.185-2.844-2.246-4.151-3.404a67.78 67.78 0 0 1-3.786-3.647 65.366 65.366 0 0 1-3.507-3.924 80.033 80.033 0 0 1-3.292-4.327 101.616 101.616 0 0 1-2.939-4.389c-.914-1.414-1.936-2.773-2.586-4.354 2.979 3.467 5.844 7.017 8.715 10.553 3.291 4.063 6.867 7.841 10.788 11.28.433.382.9.722 1.415 1.124.609-.84 1.124-1.54 1.632-2.24-.136-.256-.217-.464-.345-.638-3.17-4.174-5.723-8.743-8.201-13.36a172.214 172.214 0 0 0-4.246-7.468c-1.754-2.905-4.172-5.235-6.549-7.585-4.814-4.764-8.6-10.207-11.166-16.578-1.964-4.86-4.131-9.645-6.386-14.374a92.77 92.77 0 0 0-9.312-15.392c-.487-.659-1.022-1.304-1.632-1.845-.934-.825-1.882-.575-2.275.638a9.43 9.43 0 0 0-.467 2.774c-.014 2.988-.061 5.997.156 8.972.399 5.477.954 10.934.758 16.44-.101 2.856.4 5.63 1.266 8.34a65.556 65.556 0 0 0 6.264 13.853c9.163 15.247 21.474 27.145 36.704 35.902.217.125.481.153.779.243.291-.991.555-1.886.805-2.787.041-.153.007-.32.007-.444-12.331-8.431-22.367-18.88-29.01-32.865ZM51.547 172.841c-2.925-2.184-5.959-3.903-9.44-4.805-5.085-1.317-10.13-2.794-15.202-4.187-.833-.229-1.68-.458-2.533-.548-1.781-.187-2.14.048-2.458 1.803-.386 2.149-1.26 4-2.844 5.47-1.09 1.012-1.267 2.233-.955 3.64.44 2.004 1.34 3.751 2.715 5.221 1.43 1.519 2.221 3.328 2.201 5.388-.02 1.497.718 1.996 1.896 2.426 2.573.929 5.113.721 7.66-.041 3.988-1.2 8.017-1.325 12.033-.285 2.932.763 5.817 1.72 8.715 2.594.711.215 1.416.443 2.045.644.623-.852 1.165-1.546 1.64-2.274.195-.298.351-.693.344-1.04-.027-1.158-.128-2.309-.196-3.266-1.436-1.123-2.75-2.149-4.104-3.21-5.77 1.706-11.214-.187-16.686-1.934.698-.09 1.382-.063 2.06.021 2.525.319 5.037.762 7.57.956 1.876.146 3.772-.007 5.661-.069.258-.007.508-.256.766-.388-.007-.118-.02-.243-.028-.361-1.428-.346-2.952.014-4.36-.374-1.463-.402-2.926-.818-4.335-1.366-1.401-.541-2.749-1.241-4.124-1.879.027-.076.061-.16.088-.236 1.978.465 3.962.929 5.94 1.401 1.97.464 3.934 1.054 5.925 1.005.006-1.518.006-2.836.006-4.306Zm1.158-2.302c.84-.97 1.626-1.976 2.046-3.335-3.61-3.39-5.987-7.654-8.242-12.002 3.386 3.065 6.007 6.83 8.912 10.449.928-1.532 1.72-2.842 2.519-4.174-2.147-3.862-4.293-7.731-6.44-11.593 3.244 2.954 5.797 6.393 7.51 10.186 1.944-.652 3.657-1.221 5.444-1.824.007-.021.062-.187.055-.346a6.67 6.67 0 0 0-.068-.826c-.914-5.609-3.19-10.67-5.973-15.524-.65-1.137-1.652-1.906-2.824-2.413-2.695-1.151-5.383-2.322-8.112-3.383-.942-.368-1.991-.527-3.007-.603-1.883-.139-3.393.651-4.368 2.322a555.69 555.69 0 0 0-4.733 8.328c-.793 1.414-1.016 2.953-.447 4.486.596 1.601 1.219 3.21 2.038 4.694 3.704 6.697 9.359 11.378 15.69 15.558Zm32.62-27.394c.827-2.219 1.023-4.216.732-6.254-.711-4.992-3.258-8.951-6.684-12.432-1.747-1.775-3.731-2.759-6.25-2.551-2.344.194-4.49-.514-6.454-1.831a15.24 15.24 0 0 0-1.828-1.068c-.942-.443-1.321-.346-1.944.52-.318.437-.576.936-.8 1.443-1.076 2.482-1.204 5.061-.44 7.633.556 1.852 1.247 3.661 1.992 5.436 1.842 4.403 3.29 8.924 3.86 13.687.406 3.404.569 6.843.86 10.262.054.672.196 1.338.298 2.01.128.007.264.014.392.014 1.084-1.449 1.754-3.057 1.477-4.971-.19-1.31-.57-2.6-.718-3.917-.163-1.422-.271-2.871-.183-4.292.122-2.15.44-4.285.664-6.435.19-1.795.359-3.598.535-5.394.08 0 .162.007.243.007l.63 6.538c.88-.859 1.537-1.581 2.282-2.198 3.982-3.335 8.08-2.482 10.49 2.157.237.471.48.936.846 1.636ZM16.307 185.89l-.217.305c.264.416.508.839.785 1.242a12.887 12.887 0 0 1 2.093 5.179c.149.874.305 1.747.42 2.621.216 1.754 1.009 3.168 2.424 4.153 1.829 1.276 3.684 2.524 5.594 3.668 3.176 1.893 6.277 1.934 9.44-.278 2.885-2.024 6.169-3.189 9.609-3.855.955-.187 1.923-.402 2.824-.755 2.607-1.033 4.55-2.822 5.77-5.519-4.206-1.623-8.323-3.114-12.678-3.8-2.715-.43-5.39-.361-8.051.326-.786.201-1.578.388-2.364.596-3.047.811-6.013.534-8.884-.776-1.632-.742-3.23-1.554-4.856-2.316-.623-.291-1.273-.527-1.91-.791Zm58.766-6.143c-1.666-3.411-3.616-6.316-5.783-9.083-.176-.229-.535-.353-.833-.43-2.154-.568-3.474-.111-4.47 1.921-.867 1.768-1.435 3.696-2.126 5.554-.48 1.289-.8 2.669-1.456 3.862-.88 1.608-1.104 3.252-.697 4.964.29 1.241.033 2.163-.922 2.933-1.679 1.359-1.334 4.285-.386 5.637.759 1.089 1.748 1.304 2.784.444a9.96 9.96 0 0 0 1.855-2.073c1.199-1.775 2.316-3.613 3.44-5.436 2.133-3.446 4.382-6.76 8.594-8.293Zm4.286-20.086c-.08-2.905 1.45-5.242 2.587-7.738.522-1.144.969-2.364 1.22-3.599.54-2.697-.008-5.193-1.822-7.287-1.24-1.428-2.587-1.699-4.24-.929-3.352 1.553-5.647 5.609-5.22 9.353.148 1.318.473 2.614.744 3.911.054.263.15.548.312.756 1.083 1.38 2.146 2.787 3.304 4.097.752.846 1.64 1.616 3.115 1.436Zm1.978 12.355c1.462-2.024 1.774-3.917.785-5.949-.433-.887-1.036-1.691-1.462-2.579-.4-.825-.955-1.255-1.856-1.345-2.004-.201-3.494-1.338-4.76-2.864-.373-.45-.745-.894-1.172-1.4-.738 1.386-1.409 2.628-2.059 3.876-.094.18-.149.443-.088.624.529 1.49 1.084 2.974 1.666 4.555 4.395-1.158 6.955 1.227 8.946 5.082Zm90.56-64.787c.948.409 1.754.874 2.614 1.103 1.72.45 3.393-.548 4.002-2.254.345-.97.264-1.927.02-2.926a29.068 29.068 0 0 1-.657-3.564c-.203-1.705-1.388-2.87-3.27-3.078-1.443-.16-2.513.763-3 2.565 2.167 2.94 2.268 4.653.291 8.154Zm-13.239 1.505c-1.524 2.551-.813 4.472 1.788 5.207.365.104.738.159 1.117.208 1.781.243 3.46.735 5.072 1.608 1.991 1.075 4.097.909 6.102-.069 1.821-.887 2.641-2.586 2.41-4.687-1.435-.492-2.844-.978-4.239-1.456-2.492 4.847-10.232 5.311-12.25-.811Zm7.449-9.666c-2.032-.651-3.183-.443-4.402.888-.616.672-1.11 1.491-1.564 2.295-.542.964-.535 1.99-.108 3.037.392.971.731 1.962 1.042 2.96.576 1.81 1.788 2.677 3.799 2.67 1.815-.007 3.231-1.019 3.766-2.697-4.213-1.657-6.102-5.374-2.533-9.153Zm1.273 22.174c.21.139.291.229.393.25.264.041.535.083.806.062a26.392 26.392 0 0 0 9.677-2.572c2.471-1.193 3.636-3.46 4.435-6.005-1.706-.506-3.304-.977-4.97-1.47-.129.555-.264 1.082-.373 1.609-.46 2.295-1.808 3.848-3.86 4.805-1.3.61-2.668.88-4.097.846-.575-.014-1.158 0-1.842 0-.061.929-.115 1.733-.169 2.475Zm16.11-10.574c.136-.464.258-.721.278-.977.203-2.413.46-4.826.562-7.246.102-2.323-.684-4.458-1.747-6.476-.183-.353-.549-.77-.887-.839-1.097-.222-2.215-.27-3.102.18.535 1.29 1.138 2.448 1.49 3.682.379 1.311.461 2.704.772 4.042.454 1.949.135 3.724-.955 5.36-.203.305-.413.596-.779 1.123 1.558.402 2.926.77 4.368 1.151Zm-27.358-16.91c-2.296 3.854-3.19 7.924-3.616 12.286 1.828.117 3.467.235 5.011-.881-.515-2.649.779-4.694 2.194-6.677-.826-1.844-1.849-3.432-3.589-4.729Zm13.205 4.236c.996-2.455 2.661-3.689 5.194-3.973-.961-1.2-2.045-1.47-3.142-1.727-1.368-.319-2.709-.742-4.083-1.005a9.893 9.893 0 0 0-2.56-.125c-.793.063-1.429.548-1.7 1.352-.427 1.255-.637 2.538-.278 4.008 2.343-.5 4.443.07 6.569 1.47Zm-4.693 23.186c.237-.25.298-.285.305-.326.528-3.245.63-3.55-2.675-4.202-1.212-.236-2.465-.43-3.596-.895-2.465-1.012-3.589-3.404-3.034-6.066.082-.375.156-.749.265-1.29l-3.319.18c.027.472.007.798.075 1.11.481 2.274 1.422 4.361 3.183 5.831 2.079 1.733 4.34 3.259 6.582 4.784.643.458 1.483.603 2.214.874Zm-87.431 57.278c2.228-1.727 2.736-4.417 1.253-6.788-1.524-2.434-3.603-3.592-6.65-1.796l5.397 8.584Zm8.796-49.34c-.27-3.82-1.53-7.113-3.88-9.935-.38-.458-.853-.853-1.307-1.235-.684-.568-1.456-.665-2.296-.395-.582.187-1.164.361-1.205 1.137-.034.735.054 1.332.745 1.859 1.47 1.116 2.932 2.281 4.198 3.626 1.152 1.227 2.046 2.711 3.055 4.084.216.291.46.575.69.859Zm84.256-41.753c-.928 1.74-.759 2.198.948 2.496 2.309.402 4.435 1.095 5.573 3.418 1.212-.277 2.33-.54 3.569-.825-.962-1.415-2.154-2.247-3.562-2.732-1.077-.367-2.201-.59-3.271-.97-1.11-.403-2.18-.923-3.257-1.387ZM53.85 175.698c.46 1.962 1.314 3.515 2.817 4.611.386.284 1.198.555 1.402.367.426-.395.887-1.165.785-1.664-.311-1.525-.63-3.134-1.998-4.132-.988.27-1.91.52-3.006.818Zm106.399-81.393c.379-1.747.569-3.48 2.079-4.618 1.497-1.123 3.264-.908 5.005-1.047.054-.464.115-.839.135-1.213.007-.076-.108-.166-.257-.374-3.718.353-6.914 1.879-9.535 4.638.921.93 1.679 1.699 2.573 2.614Zm6.291 8.792c.027.88.894 1.955 1.93 2.434.589.27 1.172.312 1.646-.16.738-.728 1.049-1.636.833-2.69-.034-.16-.095-.312-.149-.472-.447-1.241-1.138-1.65-2.343-1.386-1.219.27-1.951 1.137-1.917 2.274ZM61.197 162.025c.197.922.522 1.831.549 2.746.027.943-.23 1.893-.373 2.884 1.097.042 1.924-.256 2.343-1.255.698-1.671.874-3.46 1.32-5.304-1.536-.215-2.762-.132-3.839.929Zm-1.022 12.917c.684-1.574 1.347-3.106 2.079-4.784h-2.81c-1.233 3.411-1.247 2.392.73 4.784Zm-5.973-1.83c1.639-.25 2.269-1.207 2.56-2.434a7.645 7.645 0 0 1 1.706-3.335c.42-.478.704-1.116.908-1.733.128-.402-.007-.888-.02-1.338-.116-.021-.23-.035-.346-.056a9076.043 9076.043 0 0 0-4.808 8.896Zm13.26-10.941c-.563.825-1.064 1.65-.44 2.426.757.957 1.753 1.727 2.843 2.767-.345-2.122-.853-3.834-2.404-5.193Z"/>
</svg>
