<svg xmlns="http://www.w3.org/2000/svg" width="459" height="425" fill="none" viewBox="0 0 459 425">
  <path fill="#35AB99" fill-opacity=".21" d="M135.548 107.03c-.446-1.558-.511.604-11.791 2.33-11.356 1.738-23.742-2.345-30.925-14.274C83.062 78.86 95.53 78.94 95.044 68.2c-.795-17.59 1.314-17.516 11.923-20.448 12.172-3.365 1.513-18.684 14.669-22.588 6.248-1.855 10.497-1.245 15.852-3.35 4.597-1.808 5.666-3.762 13.075-14.972 4.256-6.44 12.978-7.825 22.832 7.564 2.694 4.206 2.914 6.153 2.268 9.103-1.778 8.125.158 15.443.444 15.943.374.652.969 1.127 1.256 1.891-1.561-9.847-1.611-16.608 3.871-25.915C187.517 4.761 198.978.508 203.37.086c14.912-1.43 15.482 15.657 42.566 4.075 5.849-2.502 15.238-3.859 20.557-.191 9.009 6.211 9.603 10.698 16.868 13.258 8.366 2.948 12.649 2.59 17.808 5.971 8.351 5.474 5.945 30.034 5.086 33.965-.618 2.828-2.607 4.82-4.973 10.625-1.242 3.045-3.178 5.546-5.595 7.743 1.244 1.004 6.219-4.842 8.582-9.97 1.634-3.545 3.917-6.282 7.376-7.667 2.641-1.057 5.303-2.083 8.231-1.928 5.66.3 14.651-.93 15.743 9.198.498 4.62-.513 11.627 5.585 15.315 5.448 3.295 9.515 3.01 13.821 8.208 1.624 1.962.786 8.657.327 11.224-2.501 13.994 15.995 25.517-5.338 50.291-.883 1.025-1.914 1.632-3.171 1.705-3.141.181-6.054 1.39-9.037 2.265-18.18 5.333-10.958-4.999-34.166-11.172-1.045-.278-2.088-.176-3.109.295 23.698 4.41 16.344 21.422 43.497 12.004 13.316-4.619 30.444 27.946 7.796 55.084-11.845 14.192-27.498 2.519-37.031 17.64-2.508 3.977-4.915 9.359-14.912 12.866-12.121 4.253-25.85.49-33.86-10.819-2.543-3.591 3.046-5.348 3.214-21.76.142-13.925-6.538-28.272-7.875-28.567-.129.414-.174.84.054 1.28 15.547 30.028-1.956 69.956-32.296 69.106-12.049-.337-16.825-12.469-29.139-9.103-6.189 1.691-10.328 3.884-16.119-1.006-3.874-3.272-5.691-7.214-9.744-10.768-5.935-5.203-10.043-.389-14.949.689-3.352.737-4.806.382-12.536-.006-13.231-.663-17.498-12.606-19.624-26.063-4.277-27.071 12.294-41.6 36.361-50.02.655-.229 1.38-.224 2.201-.346-.506-.733-1.076-.714-1.563-.582-25.216 6.877-37.035 21.68-39.996 34.999-2.013 9.056.837 10.124-3.734 10.237-6.038.15-11.44-1.703-16.304-5.464-7.629-5.898-3.254-19.94-11.834-24.118-5.945-2.895-16.78-2.915-10.866-19.562 2.913-8.203 2.596-11.457.116-16.311-3.404-6.661-6.928-10.558-6.341-16.832.698-7.46 7.861-13.916 14.082-17.797 2.067-1.289 1.661 1.451 7.353 6.252 9.528 8.036 21.335 8.493 32.931 4.966 2.101-.639 4.083-1.531 6.135-2.265Zm144.289-49.608c-1.498 1.601-2.949 3.235-3.386 5.573a26.455 26.455 0 0 0 2.448-3.57c.367-.637 1.115-1.117.89-2.055 1.424-.41 2.274-1.558 3.08-2.76-1.248.641-2.446 1.346-3.032 2.812Zm5.267 97.173c.626 1.096 1.807.84 2.71 1.243 8.155 3.638 21.369 12.522 26.461 20.098.54-.523.322-.899.107-1.276-6.661-11.653-24.629-21.135-29.336-20.004.15-1.065.73-1.854 1.443-2.543 3.499-3.386 3.451-5.216 5.02-5.873.909-.381 1.461.634 2.665.802 12.447 1.727 25.761 13.149 27.539 13.677-.513-1.565-9.9-12.764-25.558-14.595-6.902-.807-4.158 1.672 1.948-14.594 1.389-3.699 2.3-7.588 3.945-11.179.172-.375.213-.841.234-1.269.083-1.723 2.223-9.689 2.006-12.408-.064-.807-1.135-9.467-1.381-9.661-1.335-1.053-1.911-2.8-3.166-3.932-3.25-2.93-4.906-3.091-8.516-.733-1.004.656-1.196 1.09-1.551.824-.319-.24-.306-.591-.183-.968 1.731-5.275 1.505-10.532-.164-15.762-2.362-7.404-8.857-5.724-11.723-5.437-4.521.452-6.844-1.647-9.104-6.118-4.157-8.223-11.457-11.231-20.605-6.046-8.21 4.653-7.159 6.413-8.644 5.49.232-2.214.532-4.425-.137-6.522-1.266-3.97-1.093-8.246 2.077-22.47 1.304-5.85 2.42-11.742 4.444-17.377.162-.452.442-1.063-.333-1.459-3.871 8.227-7.288 31.266-7.291 33.247-.002.68.468 1.641-.274 1.97-.698.31-1.074-.655-1.545-1.13-.287-.29-1.85-3.23-6.776-4.423-15.662-3.795-15.565 10.063-26.45 4.052-3.48-1.922-9.237-5.58-17.188-3.262-3.723 1.085-6.565 2.997-9.695 9.229-.314.624.297 1.032.638.432 3.958-6.952 10.357-8.61 16.871-7 2.572.636 4.891 2.035 7.182 3.443 11.253 6.914 14-2.678 23.82-3.372 4.854-.342 8.593 1.119 10.568 6.183 1.717 4.403 1.858 8.971-.342 13.26-3.014 5.875-2.25 12.245-1.66 12.367.432-.292.394-.764.439-1.179 1.041-9.64 3.537-10.096 3.914-11.46.974-3.53 17.413-12.22 22.841-7.75 4.001 3.295 3.043 4.1 6.623 8.995 5.989 8.19 11.115 3.314 15.427 4.087 6.136 1.1 6.734 12.581 6.105 18.77-.279 2.75-.605 2.003-6.009 8.489-1.988 2.387-4.417 3.451-7.327 3.493-.5.008-1.08-.289-1.705.628 4.713-.286 4.493 2.175 14.373-8.895 2.97-3.328 7.008-5.564 10.224-2.339 10.765 10.799-5.278 45.258-12.396 53.845-10.983 13.248-35.151 19.742-37.243 19.022.141-.849.706-1.012 1.191-1.196 9.684-3.67 21.635-11.24 29.025-22.967.184-.292.641-.636.14-1.073-.534.134-.702.65-.983 1.047-13.386 18.912-44.525 28.449-47.732 26.241.197-.349.392-.533.673-.607 25.698-6.752 41.177-22.495 50.657-44.898.134-.317.171-.693-.243-1.119-3.872 7.256-7.827 14.397-13.115 20.568-6.169 7.198-15.219 14.999-18.158 15.439a.69.69 0 0 1 .27-.752c5.302-3.966 16.457-20.454 15.358-23.473 0 0-3.573 7.847-12.513 18.27-8.4 9.792-25.284 17.243-29.785 17.131.788-3.047.895-.889 2.419-1.52 10.275-4.249 19.017-10.345 24.907-20.246 6.409-10.772 11.514-22.871 11.831-35.652.23-9.282-.895-20.61-6.925-27.244-7.871-8.658-15.032-3.474-19.772-2.259-4.2 1.077-6.79.276-11.348-1.789-14.134-6.4-26.985 10.072-33.278 25.183-13.377 32.12 6.385 55.237 9.208 56.338-.025-.302-.006-.396-.042-.444-5.36-7.278-9.343-13.894-10.63-24.283-3.342-26.981 15.787-56.08 30.166-53.787 4.348.693 10.185 5.693 19.79 1.952 4.254-1.656 7.552-2.441 10.854-.138 5.113 3.568 7.583 13.242 7.954 19.788.681 11.975-.489 22.87-7.029 36.086-6.727 13.597-11.754 18.296-24.076 25.052-.423.232-.95.632-1.518.237.186-1.057.749-.875 4.434-3.948 8.859-7.385 13.311-16.462 12.541-17.245-4.154 5.068-3.211 6.166-19.047 20.968-3.47 3.243-7.22 2.996-11.19 2.584-1.744-.181.391.786 2.901-34.555.051-.729.094-1.502-.427-2.262-.705 1.165-3.903 14.71-3.873 34.86.002 1.465-1.049 2.175-2.274 1.591-.425-.202-.779-.616-1.297-.529-1.733.288-8.418-1.258-11.883-6.084-11.74-16.356-19.633-38.819-16.285-59.19.099-.6.388-1.234-.393-1.94-.039.331-6.844 20.032 4.641 43.318.882 1.789 1.59 3.681 2.748 5.309.222.313.522.847.059 1.141-.425.269-.699-.195-.943-.563-22.808-34.387-17.732-61.674-18.689-65.747-.135 1.268-.116 2.09-.32 2.84-4.279 15.683 4.606 53.658 27.321 74.715.314.29.901.471.72 1.139-1.621 1.988-18.347-14.092-30.985-39.359-7.24-14.475-6.666-20.338-8.032-24.202-.332.798-.35 1.46-.244 2.054.773 4.311.677 11.322 9.197 27.922 4.813 9.377 10.988 17.622 17.979 25.196.292.316.869.491.664 1.153-1.46.724-57.441-41.061-25.897-88.144 1.931-2.883 3.93-5.702 6.64-7.896 3.643-2.948 9.012-1.289 10.443 3.051 1.469 4.454 2.867 7.694 6.898 9.685 4.751 2.348 15.576 1.761 14.214 13.183-.09.761.015 1.549.03 2.324.54-1.22.428-2.49 1.055-3.602.188-.332.205-.883.107-1.277-3.769-15.2-16.515-5.878-19.763-18.81-2.722-10.84-12.125-8.874-15.389-5.292-11.956 13.12-13.659 19.348-16.089 28.35-3.255 12.063-.105 22.244 1.469 27.994.111.405.449.785.101 1.201-.383.458-.861.365-1.302.113-9.525-5.431-23.802-2.073-27.189-1.448-.343.063-.656.184-.662.677.629.344 1.303.181 1.955.167 40.635-.905 21.498 1.807 39.524 22.386.492.561 1.331 1.253.925 1.984-.461.83-1.182-.175-1.795-.294-13.86-2.689-29.23 5.618-29.517 7.203.785.48.142-.044 7.674-2.48 6.944-2.246 17.605-4.114 23.976-3.533 2.577.235 1.022 1.297 5.236 4.891.26.222.745.484.504 1.042-.325.423-.763.29-1.143.27-12.322-.657-26.198 6.683-29.011 11.284.782.153 1.064-.233 1.388-.451 9.405-6.316 20.874-8.26 26.402-9.841 2.064-.591 4.194-.555 5.693 1.613 1.467 2.123 3.841 3.08 5.513 4.975 2.897 3.286 16.264 11.6 18.616 12.549 2.108.85 11.503 5.605 19.28 5.596 1.742-.002 3.476.375 5.229.111.67-.1 2.919.211 2.321 2.026-.675 2.046 1.059 8.058.98 11.008-.105 3.932-.11 7.868-.131 11.802-.004.724-.208 1.545.385 2.139.878-.436.277-1.124 1.82-9.594 1.537-8.435-4.804-17.237-1.271-17.024 2.51.152 4.959-.52 7.458-.461 2.206.053.726.669 2.651 8.3 3.494 13.855 1.424 20.228 3.593 23.085.357-5.534.918-12.223-.03-17.261-2.174-11.545-6.605-13.743-2.992-14.165 10.824-1.263 10.907-1.662 11.211-.241.057.265 4.229 16.917 5.352 26.687 2.829-2.518-1.305-22.325-4.394-26.351-.647-.842-.224-1.644.801-1.777 4.399-.571 5.195-1.918 6.891-.092-.787 1.952.558 3.455 1.015 5.109.994 3.606 2.446 7.049 3.478 10.651 2.057 7.175 2.134 8.799 3.947 9.42-.681-2.374-.301-10.605-6.84-23.054-.408-.778-.675-1.78-1.652-2.07-.901-2.697 2.443-.778 14.779-6.615 1.385-.655 2.748-.638 4.087.156 19.683 11.674 17.599 17.486 20.835 20.586-1.466-15.67-21.137-21.013-22.03-22.119 6.151-3.424 6.055-4.933 15.15.429 11.769 6.937 22.713 22.993 27.434 36.9.138.406.279.826.817.794.902-3.483-10.601-32.818-30.835-40.239-1.811-.664-3.713-.982-5.775-1.798 8.432-6.42 6.865-5.358 7.889-5.473Zm-68.612 9.201s2.364-4.547 5.901-18.765c3.043-12.229 7.7-40.106 5.194-41.172.05 12.525-10.977 56.877-11.095 59.937Zm115.193 22.11c.483-.681.304-1.146.087-1.608-7.647-16.305-21.645-27.021-37.624-32.913-.792-.292-.795-.28-1.981.119 16.232 7.327 30.137 17.694 39.518 34.402Zm-228.52-59.056c2.016.714 4.523-1.32 13.975-1.942 22.385-1.474 21.028.155 28.109-.166.445-.02.977.178 1.191-.496-8.296-2.956-30.145-3.885-43.275 2.604Zm50.18 9.569c-.821-1.202-22.362-1.711-42.244 9.3-2.041 1.131-4.065 2.395-5.615 4.353 2.498-.788 16.453-11.145 45.401-13.011.832-.054 1.771.153 2.458-.642Zm88.954 79.976c1.456-1.497 1.977-17.491 1.96-20.336-.073-12.329-4.448-23.104-4.591-19.989-.063 1.35.083.781.866 4.668 1.348 6.69 1.623 19.683 1.316 23.654-.302 3.9.128 7.781.449 12.003Zm-45.618 2.599c5.95-39.595 7.18-43.741 7.18-43.741-3.875 5.714-9.083 32.63-7.18 43.741Zm17.94-42.126c-.027.401-2.543 35.962-.718 37.029 2.555-8.367 3.204-32.25.718-37.029Zm-5.743-12.186c-2.132-10.308-1.452-1.73-3.912-21.908-1.146-9.409.484-20.429.551-22.464-4.243 6.524-4.048 32.717 3.361 44.372Zm77.423 43.504c2.899-14.116-7.311-35.167-17.968-40.223 10.893 10.353 16.685 24.77 17.968 40.223Zm-143.038-18.279c3.091-6.135 7.754-18.429 25.667-27.746 1.979-1.03 4.126-1.683 6.184-3.103-15.022 2.457-29.671 16.899-31.851 30.849Zm82.863-13.558c-.713 1.284-.06.713 1.237 6.269 1.968 8.426 1.983 24.857 1.726 33.674-.013.452-.158 1.014.63 1.409 2.248-12.578 2.395-29.553-3.593-41.352Zm-65.916-30.687c-3.452-1.53-13.582-.028-21.218 2.871-6.205 2.355-16.412 9.992-17.547 13.221 13.979-10.815 17.955-12.991 38.765-16.092Zm81.61-20.332c-5.679 22.531-8.486 24.822-20.559 40.868 7.884-7.291 14.622-15.459 18.127-26.302 1.714-5.304 3.208-12.383 2.432-14.566Zm-128.887 9.965c.227.368.443.287.613.195 7.874-4.264 23.405-5.534 29.865-5.261 2.46.104 6.902.885 6.911-.37-1.205-.117-2.208-.943-3.444-1.077-14.979-1.633-30.77 2.513-33.945 6.513Zm142.252 78.201c.854-.057.888-.58.908-.952.197-3.735 3.713-13.674-4.477-34.555-.551-1.404-1.076-2.86-2.233-3.949 3.845 15.572 5.733 14.602 5.802 39.456Zm-59.439-88.935c-5.016 9.705 6.529 41.249 10.775 42.054-6.672-13.107-10.968-27.035-10.775-42.054Zm-11.51 41.924c-2.005-1.587-21.657 9.22-25.207 32.489.273-.926 1.018-1.517 1.331-2.408 4.205-11.98 11.599-23.589 22.441-29.022.487-.245 1.199-.332 1.435-1.059Zm8.893 4.915c-5.562 1.744-13.201 13.666-15.678 22.692-3.345 12.194-3.606 12.224-2.596 13.027.167-.774.241-1.499.478-2.157 5.74-15.897 7.631-22.924 17.796-33.562Zm40.33-40.86c-.451.116-.621.452-.65.806-.521 6.353-13.64 28.804-15.458 33.731 5.585-4.462 17.338-29.286 16.108-34.537Zm-43.089 37.799-.26-.473c-10.341 4.108-16.362 11.569-19.039 20.327-.102.334-.09.339.239 1.479 4.223-9.324 10.797-16.194 19.06-21.333Zm18.608 5.951c-2.415 2.995-1.297 4.172-2.75 15.455-.352 2.738-.664 5.462-.62 8.225.009.533-.101 1.148.655 1.463 2.014-8.108 3.071-16.267 2.715-25.143Zm-19.501 22.981c4.636-14.681 5.537-16.27 9.884-24.239-5.132 2.796-11.313 19.071-9.884 24.239Zm82.915-5.178c1.038-5.219-1.125-9.685-3.215-14.11-2.56-5.42-5.068-8.43-7.331-8.982 3.994 5.47 9.088 16.766 10.546 23.092Zm-112.463-12.125c4.187-3.444 3.456-4.957 14.549-13.382 1.716-1.304 3.808-1.977 5.642-3.68-6.478.488-16.47 9.071-20.191 17.062Zm-9.833-13.273c7.027-3.911 14.846-7.306 19.286-8.956.83-.308 1.736-.526 2.504-1.416-5.529-.366-19.347 6.184-21.79 10.372Zm151.75-35.564c12.696-6.042 16.508-6.224 24.361-6.3.959-.009 1.926.003 2.794-.513-9.817-1.297-18.882.939-27.155 6.813Zm26.027 6.615c-.78-.965-1.751-.23-2.516-.629-1.97-1.028-4.078-.963-6.158-.892-5.044.171-10.098-.408-15.143.731-1.807.408-3.462 1.163-5.245 1.574 9.677-1.493 19.349-2.291 29.062-.784ZM110.062 85.471c.772.539 1.555.345 2.342.132 5.991-1.62 17.613.054 22.759 1.81.46.157 1.018.269 1.555-.408-8.887-2.896-17.66-4.206-26.656-1.534Zm199.394 28.995c1.781 1.113.902-1.006 11.309-3.366 2.4-.544 4.966-1.69 11.4-1.278 1.416.091 2.727-.476 4.115-.45-9.352-1.107-18.245.48-26.824 5.094Zm6.052-44.872c-6.183-.485-18.902 11.698-17.825 16.848 3.981-7.991 9.517-14.079 17.825-16.848ZM153.771 32.217c-.37.23-.301.49-.201.65 3.065 4.921 8.116 16.347 7.676 22.255-.048.65-.099 1.354.244 2.033 2.989-2.71-3.185-19.438-7.719-24.938Zm-15.788 64.166c-5.991-1.238-15.653-.812-18.089 1.805 5.929-1.855 12.059-1.246 18.089-1.806Zm-2.759-20.679c-7.518-4.331-15.301-7.626-24.071-7.054 8.532.36 16.31 3.676 24.071 7.054Zm114.444-23.138s5.073-14.236 7.358-18.535c.061-.113.065-.475-.11-.595-.228-.158-.123.26-.2-.171-3.599 5.675-5.23 12.143-7.339 18.383-.094.278-.097.702.291.918Zm-32.243-7.77c1.245-5.32.086-14.123-2.05-17.888-.53 2.223.736 3.998.832 5.965.095 1.936.663 3.831.759 5.797.095 1.97-.378 4.005.459 6.125ZM126.848 55.33c7.808 4.994 6.195 4.06 12.986 9.727 1.268 1.058 2.262 2.516 4.102 3.427-2.989-4.424-13.623-12.694-17.088-13.154Zm96.502 11.088c.027-2.277-.461-2.672-2.532-2.027-.892.278-2.049.773-2.05 1.758-.002 1.006.729 1.252 2.414 1.903 1.753.676 2.144.38 2.168-1.634Zm-22.038 5.42c-.865.259-2.073.754-2.171 1.711-.11 1.08.887 1.302 1.605 1.66 1.279.638 2.987 1.157 2.953-.33-.066-2.839.178-3.805-2.387-3.04Zm15.549-9.026c-.089-.67.326-1.745-.759-1.882-2.743-.344-6.215 1.974-1.607 3.745 1.754.674 2.343.22 2.366-1.863Zm-7.227 7.385c-1.954-.014-2.179.127-2.148 1.35.033 1.306 1.298 3.1 2.157 3.06.943-.045 2.034-1.746 2.031-3.165-.003-1.11-.205-1.233-2.04-1.245Zm12.297 6.084c1.938.07 2.469-.826 1.619-2.638-1.987-4.24-4.373.665-3.722 1.92.495.956 1.444.504 2.103.718Zm-24.717-12.633c-1.078-.049-2.236 1.02-2.227 2.054.009 1.122.955 2.117 2.099 2.208 1.182.094 2.399-.994 2.379-2.127-.015-.879-1.295-2.093-2.251-2.135Zm72.115 19.298c.043 2.036.248 2.25 1.923 2.008 3.014-.434 3.614-2.882.174-3.838-1.784-.496-2.139-.186-2.097 1.83ZM150.64 59.999c-1.651-4.672-7.852-12.407-10.383-14.506 3.474 4.825 6.846 9.72 10.383 14.506Zm51.436 22.415c2.299.006 2.621-.49 1.726-2.714-.662-1.645-2.321-2.185-3.334-.141-1.127 2.275-.797 2.848 1.608 2.855Zm47.671-11.354c-.069 1.114.511 1.365 1.39 1.232 4.304-.65 3.65-3.441.461-3.886-2.228-.31-1.709.381-1.851 2.654Zm-45.779-5.018c.077 1.392.202 1.855 2.141 1.195.932-.317 2.107-.333 2.216-1.775.064-.844-1.015-1.64-2.409-1.889-1.719-.307-2.099-.262-1.948 2.47Zm58.847 20.76c.037 2.153.115 2.291 1.273 2.257 1.668-.05 3.124-.836 3.161-1.706.043-1-1.82-2.3-3.301-2.303-.96-.002-1.157.303-1.133 1.751Zm-2.343-7.233c.01.934 1.219 2.12 2.226 2.184 1.076.068 2.207-.989 2.205-2.06-.004-2.8-4.457-2.672-4.431-.124Zm4.32 13.861c-.094 1.142.106 1.357 1.408 1.506 1.741.199 2.656-.164 2.659-1.053.013-3.464-3.715-4.68-4.067-.453Zm-17.547-18.02c-.305-1.15-.407-2.438-1.511-3.153-1.665-1.078-2.845 1.828-2.629 3.095.221 1.289 1.261.712 1.961.902.245.067 2.435.12 2.179-.844Zm8.183 1.094c-2.847.015-2.646.277-1.668 2.992.442 1.228 2.025 1.98 2.96.258 1.7-3.128.384-3.258-1.292-3.25Zm9.059-19.806c1.537-4.894 3.364-9.6 6.225-13.793-3.897 3.675-5.795 8.379-6.225 13.792Zm-62.908-24.834c1.176 4.816 2.869 9.5 3.829 14.414.34-5.283-1.573-9.887-3.829-14.414Zm-8.79 36.078c-.047-.995-1.097-2.045-2.021-2.022-.898.023-1.86 1.219-1.796 2.233.175 2.775 3.943 2.454 3.817-.211Zm116.916 34.875c3.96-3.712 8.508-6.483 12.949-9.428-4.96 2.092-9.389 5.051-12.949 9.428Zm-2.628-13.305c3.101-3.526 6.703-6.398 10.324-9.244-4.085 2.242-7.773 5.001-10.324 9.244Zm-113.384-54.43c.928 3.291 2.791 6.293 2.511 10.25.765-1.092.899-2.013.644-2.922-.723-2.581-1.297-5.244-3.155-7.328Zm37.684-7.872c-.749 3.94.12 7.494-.679 9.848-.563 1.66-.687 3.398-.303 5.26.854-.809-.034-.972.915-5.608.639-3.117.553-6.308.067-9.5Zm86.787 52.565c1.023.17 1.529-.82 2.291-1.237-.702.552-1.677.49-2.291 1.237Zm8.252 12.06c-.514-.355-1.059-.225-1.349.142-.367.465.776.767 1.349-.142Z"/>
  <path fill="#35AB99" fill-opacity=".21" d="M423.548 331.992c2.423 1.224 7.64 5.317 4.02 5.634-7.089.619-11.877 10.164-20.842 4.115-.661-.447-1.311-.912-2.175-1.515 0 7.127.2 7.06-.505 7.357-.602.253-1.175-.024-1.695-.444-7.198-5.819-19.07 3.821-25.026-6.323-.473-.806-.656-.862-1.137-1.289-1.367 7.261-1.54 5.074-7.796-.621-7.274-6.623-24.602-1.384-25.983-12.879-.105-.877-.479-1.244-1.19-.894-4.016 1.975-5.967 1.669-5.809 2.731 5.432 2.046 9.847 7.892 15.425 10.805 3.525 1.84-.423 3.383-.831 4.905 1.231.363 2.44.727 3.652 1.076 7.686 2.213 5.846 8.654 11.421 15.608 2.025 2.524-2.575 1.97-3.504 2.66.432 2.29 3.455.2 2.985 13.407-.225 6.312 3.049 7.161.061 8.082-.249.076-.545.017-.72.33-.278 1.642 4.156 4.107-7.775 24.559-3.24 5.555-3.538 7.167-4.467 10.21-.277.91-1.425.893-1.525-.153-.45-4.731-6.392-6.636-8.285-11.215-1.371-3.315-1.93-7.592-2.462-7.674-.968-.148-1.023 1.413-2.129 2.949-.451.624-1.105.727-1.472-.047-.852-1.795-2.335-2.789-3.855-3.743-4.35-2.728-2.37-6.248-5.905-10.327-2.367-2.731-1.045 1.863-6.57 3.763-3.666 1.261-.682-3.624-8.204-10.837-.829-.795-1.212-.637-1.563.511-3.309 10.84-4.78 6.237-5.981 4.11-2.94-5.208-8.36-5.348-12.361-9.161-6.532-6.227-8.39-17.45 1.433-28.419.7-.782 1.416-1.546 2.174-2.372-2.147-2.806-22.292 3.006-33.642 36.057-1.917 5.58-.971 8.466-2.471 14.963-.551 2.382 2.729 3.472.367 6.123-.911 1.022-1.514.211-2.104-.884-12.531-23.245-17.893-33.138-23.962-44.736-3.966-7.58-27.944-27.428-45.199-22.719-6.017 1.642 18.559 3.24 16.247 24.541-.921 8.476-9.202 9.993-8.777 18.5.09 1.791-.667 2.239-2.115 1.278-5.713-3.794-5.541-7.525-6.965-4.288-3.132 7.122.548 12.929-2.793 12.605-2.071-.2-4.186-.299-5.911-1.896-1.965-1.819-2.828 3.342-2.002 6.24 1.682 5.912-2.675 7.032-2.834 11.053-.111 2.819-2.589-.06-3.616-.995-.303-.275-.587-.623-1.221-.477-.405 5.685 2.727 3.689.024 13.889-.844 3.183-1.48 6.146.289 8.845-1.255.07-2.246-.227-2.829-1.149-4.292-6.777-23.306-14.221-25.997-26.953-.695-.41-2.803.679-2.688-.923.404-5.647-6.272-12.637-4.485-18.616.598-2.001-.662-1.147-3.029-.911-3.031.303.492-1.657-.505-11.401-.691-6.762 3.551-8.902 6.3-10.746.103-1.444-4.906-1.566-3.125-3.833 4.167-5.305 5.734-11.812 9.708-15.74.304-.301.578-.609.61-1.189-4.046.419-3.7.752-6.181.515-1.276-.121-1.4-.057-1.1 1.158 3.239 13.105-16.284 9.996-20.589 25.853-.501 1.846-1.343 3.629-2.6 2.266-.892-.967-1.788-1.938-2.653-3.386-.999 4.191-1.249 7.244-5.18 8.937-7.3 3.143-12.802 2.502-15.895 8.057-.675 1.213-1.183 1.197-1.95.081-2.193-3.192-1.58-4.838-2.753-5.773-1.056.338-1.632 6.887-10.153 6.697-4.607-.103-8.006-1.975-12.043-.839-1.27.357-1.495-.029-1.172-1.424.345-1.495.862-2.899 1.728-4.138.243-.347.485-.689.42-1.261-13.052 1.629-19.382 1.656-27.252-10.818-.255-.405-.694-.841-.358-1.366.307-.481.864-.356 1.313-.263 1.24.257 3.716.009 4.164-1.099-.797-.808-1.908-.632-2.838-.839-9.91-2.199-15.103-8.666-18.545-11.799-.342-.311-.555-.647-.444-1.12.131-.565.604-.468.988-.52 1.35-.182 2.617-.637 3.919-1.325-.783-1.337-2.091-1.893-3.137-2.75-4.066-3.336-7.541-7.303-10.78-11.516-3.333-4.334-8.781-9.642-8.781-9.642-.823-1.087-.085-1.637.903-1.341 1.161.349 2.547 3.476 11.94 4.807 11.947 1.693 27.974-1.397 30.183-2.692-2.267-4.427-3.675-6.031-.993-6.463 1.313-.212 1.463 1.186 8.956-2.085 8.533-3.725 12.958-2.649 16.558-1.561.439.133.865.457 1.457.019-.585-1.687-2.55-6.06.3-5.126 4.428 1.452 9.646-2.614 14.261-3.929 7.33-2.09 12.71 1.088 17.503 3.408-.094-2.583-2.633-5.565-.36-6.69.66-.327.96.291 1.356.655 3.351 3.078 7.38 4.487 11.612 5.245 12.805 2.295 21.706 10.069 22.963 24.509.182 2.091-.392 4.019-1.449 5.828.541.791 1.35.787 2.023.749 10.926-.632 11.631-6.139 19.111-6.319 3.956-.095 11.692-.529 22.32 4.221 7.351 3.285 5.863 5.241 7.776 4.399 12.613-5.552 33.718 7.484 40.726 15.331.12.134.328.176.547.288-2.695-6.334-22.976-23.888-29.668-25.727-.862.682.527 6.517-11.059 8.248-.837.126-1.555-.057-2.273-.625-5.878-4.648-19.514-8.806-29.396-7.503-2.033.268-1.958-1.058-4.597-2.79-.282-.184-.736-.485-.722-.705.124-1.984-1.241-1.354-2.183-1.537-10.191-1.972-12.373-8.638-16.873-17.672-1.006-2.02.505-1.357 2.777-1.542-.035-.936-.801-.966-1.254-1.183-12.758-6.144-10.727-17.926-13.478-24.901-.412-1.044.283-1.985 1.33-.867 1.362 1.456 2.885 2.586 4.903 2.796.085-.612-.23-.983-.494-1.371-6.854-10.096-5.849-19.281-6.38-24.072-.449-4.046 2.436-.7 9.441 1.018 11.848 2.906 30.924-.92 34.03 5.706.204.437.611.774 1.358.778.183-1.446.435-7.78 2.985-5.622 6.857 5.801 19.68.875 21.836 10.466.045.203.097.426.454.441.841-.404.661-2.284 2.324-3.297.583-.355 1.382-.584 1.605.498.572 2.782 4.188 4.533 6.19 6.635.253.265.621.246.779.219 0-16.412.304-7.359.948-18.847.107-1.912 4.451-3.893 4.396-2.044-.113 3.873-3.257 5.459-.775 27.447.11.98.549 1.113 1.206.554.707-.604 1.56-.866 2.357-1.246 1.038-.495 1.4-.27 1.832.903.699 1.895-.811 1.23 5.221 14.301 3.23 7 3.41 14.704 1.261 21.583-1.29 4.128 22.921 49.718 32.391 68.426 7.803 15.414 7.324 15.683 9.098 17.709-.065-13.156 6.931-39.314 17.083-53.206 2.132-2.916 2.738-2.951 2.586-3.834-.873-.197-1.724.156-2.577.256-15.236 1.775-25.596-13.127-24.672-28.741.806-13.608-3.328-13.976-.134-14.39 1.888-.245 3.587.457 5.262 1.254.359.171.671.514 1.248.25-.019-1.638-.971-3.043-1.255-4.654-1.375-7.782 4.626-9.754 3.558-13.969-.294-1.159.214-1.558 1.339-1.42 1.148.142 2.482 2.072 3.696 2.043.362-.885-.198-1.678-.08-2.578.67-5.122 3.715-6.094 9.015-9.42 7.093-4.452 4.477-2.844 6.748-5.694.97-1.216 1.621-1.384 2.644-.26.821.901 2.089 1.457 2.203 2.991.031.424.91 1.04 1.239-.132.603-2.144 1.168-5.025 6.608-7.292.246-.103 16.65-7.239 20.393-9.514 8.836-5.37 8.375-9.725 10.332-5.77 5.753 11.63 4.8 19.416 4.039 25.687 2.14-.357 3.198-3.183 3.271-4.025.099-1.132 1.392-1.22 1.73.026.207.762.552 1.524.576 2.295.139 4.556 3.347 10.657 2.161 15.323-1.873 7.364-.397 5.097-4.866 11.172.106.088.226.251.284.228 2.149-.839 2.114-.84 2.164 1.635.277 13.529-2.637 17.732-6.278 20.899-1.326 1.153-3.052 1.464-4.691 1.913.106.577.515.387.775.479 1.461.522.532 1.283-1.196 4.953-.372.789-.959 1.165-1.741 1.33-6.723 1.424-17.834 8.096-23.947 17.836-.348.555-.772 1.056-1.399 1.193-4.691 1.023-10.443 1.449-13.382-2.688-.756-1.064-1.077-1.055-1.884-.001-3.054 3.988-5.849 8.156-8.063 12.775-.701 1.464-7.529 17.88-7.203 19.483.272.066.492.008.56-.189 2.352-6.826 14.341-25.758 28.4-27.889.673-.102 1.342-.373 1.986-.062.945.457 1.355-.005 1.669-.895 2.743-7.766 13.058-14.19 20.301-17.371 9.407-4.132 13.056 2.836 24.647-2.733-.053-.309-.034-.51-.102-.555-6.723-4.353-9.799-22.376 3.453-33.491 2.144-1.799 4.628-2.992 6.846-4.657 4.439-3.331 4.393-5.188 5.409-7.105 1.135-2.144 2.924.107 2.935 2.04.005.855.131 1.709.201 2.521.993.436 3.533-3.906 7.797-6.379 6.306-3.657 12.079-1.932 14.762-2.063 7.403-.361 8.345-4.572 9.266-.931.28 1.103-.09 2.351.706 3.477 9.196-8.411 17.596-3.243 25.7-6.22 1.457-.535 1.789-.317 2.093 1.28.861 4.538-2.197 5.141 3.244 4.24 10.989-1.82 18.91-4.318 29.529-10.588 4.733-2.794 4.07-7.776 5.944-6.725.761.427.386 1.359.109 1.962-3.926 8.55-3.81 17.877-10.52 28.822-.068.11-.062.274-.103.476 1.195.891 2.604.043 4.255-.341 2.281-.532.944 1.881-.444 5.509-3.785 9.887-9.419 12.93-11.538 14.356-.916.617-1.749.915-1.396 1.532.283.494.656.34 3.598-.793.248-.096.448-.336.696-.43 1.036-.39 1.631.039 1.459 1.227-1.902 13.146-5.552 14.601-11.924 17.891-2.569 1.326-5.32 2.02-8.159 2.283-.336.03-.682.014-1.035.715ZM195.939 318.86c1.685-.277-.155-.417 4.23-10.617 1.811-4.214 3.215-8.58 4.576-12.968.172-.554.511-1.265-.292-1.66-.886.538-1.735 4.563-4.694 11.724-.417 1.009-1.452 1.492-1.578 2.668-.4 3.714-2.208 7.102-2.185 10.921-.463.217-.943.167-1.357-.068-2.418-1.375-4.994-1.076-7.567-.886 1 .551 2.167.05 3.164.607 1.053.588 2.273.243 3.347.663 1.028.402 2.023.901 3.085 1.381.108-.85-.704-1.111-.729-1.765Zm-30.832 47.712c2.194.086.187 1.081 5.779 8.178.625.794 1.224 1.666 2.601 2.211-10.022-15.37-7.748-16.119-7.922-21.761-.073-2.347.829-3.343 11.438-12.633-.389-.102-.556-.207-.624-.156-15.918 11.751-17.873 18.162-20.378 21.131-1.023 1.212-1.771 2.391-2.148 4.08-.401 1.796-1.185 3.53-1.719 5.334-4.031 13.62 2.243 25.919 5.702 35.406.118.326.296.636.786.506.225-2.283-.963-2.604-3.402-12.005-.189-.729-.643-1.607.018-2.249 1.21-1.177-1.366-2.149-1.849-6.776-.294-2.819-.949-12.216 1.456-13.559 1.052 6.883 6.504 16.273 10.302 17.621-6.243-8.442-6.298-9.126-5.069-8.837.87.06 1.089 1.498 2.129 1.201-.686-.455-1.114-1.456-2.134-1.201.071-.281.177-.606-.063-.815-2.406-2.099-3.502-4.91-4.394-8.055-1.256-4.424.197-7.443 6.98-17.167.473-.678.959-1.329 1.913-1.24-.625 6.283 1.148 7.526.653 10.845-1.717.715-.363 4.597-.101 7.161.869-1.2.105-2.355.076-3.52-.03-1.232-.022-2.467-.03-3.7Zm281.182-88.66c-.631-.121-.67.571-5.875 4.875-9.124 7.543-18.97 13.185-20.639 13.096-2.184-.117-3.592 1.481-5.717 2.092-.246.071-15.902 4.646-19.799 5.431-.758.152-1.424-.43-2.16-.005-2.837 1.636-12.906 3.488-19.097 5.532-.568.188-1.279.624-1.983-.322 7.721-4.677 15.648-21.208 14.656-23.846-.442.344-.274.934-.484 1.372-11.144 23.263-14.752 22.623-30.987 30.318-.383.182-.969.185-.961.965 3.211.348 4.495-3.395 9.838-3.38 3.738.011 1.825-1.183 3.625-1.654 5.39-1.408 13.383-3.409 13.383-3.409 2.249-.613 4.628-.522 6.799-1.594 0 0 20.993-4.792 35.057-9.958 3.067-1.126 8.648-.446 14.254-3.841-3.568.347-6.865 2.26-10.389 2.278-.215-.544-.062-.711.115-.806 6.353-3.409 11.701-8.337 17.035-13.251 1.218-1.121 2.782-2.064 3.294-3.934 1.584-.561 2.268-2.19 3.376-3.315-1.272.935-2.483 1.941-3.341 3.356Zm-253.07 37.13.309-.357c-3.969-5.24-6.059-6.977-6.655-10.933-.365-2.423-1.161-4.807-.576-7.319.1-.432.163-.929-.135-1.256-2.032-2.231 3.78-15.198 2.814-17.85-.958.804-.925 1.865-1.195 2.681-1.191 3.595-6.242 14.625-1.495 24.07.209.415.436.787.09 1.167-.42.462-.702.022-.991-.269-15.61-15.736-17.61-13.394-19.81-27.25-.629-3.961-1.954-7.661-3.188-11.427-.482 3.676 1.182 7.012 1.498 10.56.326 3.668 1.358 7.149 2.739 10.474-.608.356-.94.118-1.285-.132-4.366-3.159-8.973-5.969-12.621-10.163-.251-.289-.45-.981-.879-.688-.843.573-.019 1.361-15.536-9.588-3.052-2.153-6.022-4.435-8.561-7.303-.599-.677-1.189-1.46-2.144-1.634 6.743 10.497 26.476 21.15 44.753 36.043-.732.563-1.253.501-1.74.212-9.513-5.654-20.195-2.408-29.714-5.601-.314-.105-.752-.189-1.121.378 9.809 3.909 16.232 2.422 19.651 3.114 11.405 2.308 15.67 3.793 19.791 7.484 4.958 4.44 10.866 9.27 10.807 10.321-.337.248-.685.15-.962-.031-7.746-5.059-17.357-5.314-19.853-6.146-3.122-1.04-6.309-1.28-9.542-.494 1.657.209 3.322.329 4.986.466.76.062 1.003.794.077 1.141-.676.254-7.29 1.409-10.458 1.224-.413-.024-1.003-.152-1.054.777 12.793.339 11.425-2.475 26.375.208-.951 1.189-2.134.323-2.905 1.18 8.865-.471 10.825 1.076 18.53 6.941Zm95.899-40.668c.192 8.508 1.435 7.078 2.699 15.486 1.395 9.273-1.696 11.289-5.114 19.341-3.836 9.036-3.342 9.146-4.045 9.021-.902-.161-.034-2.057-.207-3.021-1.834-10.233-4.713-13.305-13.598-22.446-.236-.243-.404-.801-1.072-.59 7.356 9.305 6.993 8.674 10.075 13.299.772 1.157.591 2.668 1.341 3.784 1.825 2.718 3.613 9.958 2.311 13.743-.627 1.825-.753 3.825-1.448 5.649-.331.868-.35 1.755-.068 3.128 2.652-6.678 5.653-12.485 12.293-14.689-.322-.571-.892-.447-1.037-.967 8.942-7.329 21.305-7.368 23.655-10.115-4.058.823-8.027 2.079-12.19 2.426.863-1.449 2.672-1.176 3.58-2.489-4.193.476-5.774 3.066-9.217 4.887-4.721 2.498-8.861 5.829-12.248 10.211-.407.526-.656 1.869-1.537 1.235-.896-.646.159-1.425 5.34-13.102 1.533-3.455 3.255-6.21 11.453-11.965 8.336-5.852 12.449-5.339 18.933-11.085.302-.268.826-.424.795-1.066-.248.032-.401.002-.496.07-11.174 7.982-13.688 4.492-25.168 15.861-8.946 8.859 26.031-41.543 24.913-49.143-1.117.21-.143.577-3.161 6.752-3.06 6.259-7.03 11.88-10.751 17.672-.409.636-.524 1.999-1.552 1.703-.857-.246-.078-1.455-.506-2.121-1.223.571-.009 2.466-.471 2.96-.922.987-.921 2.389-1.467 3.551-1.805 3.84-4.216 7.256-6.335 10.874-.213.364-.334.871-.853.71-.491-.152-.428-.66-.448-1.093-.343-7.544-3.002-11.769-3.314-16.776-.039-.647-.304-1.255-1.085-1.695Zm62.019 132.84c.479-7.825-.479-18.173-1.494-22.792-1.137-5.176-2.759-12.914-11.285-21.098-.269-.258-.768-.437-.447-1.023.453-.289.954-.189 1.37-.009 3.495 1.512 7.034 2.916 10.165 5.268.816.614 1.38 1.875 2.781 1.432.699-.221 6.089 5.103 7.005 4.65-.448-1.598-8.484-8.69-18.311-11.609-14.268-4.238-5.652-5.755-33.275-13.859-.352-.103-.894-.287-1.099.428 4.054 1.306 7.995 2.978 12.01 4.378 7.021 2.447 7.595 14.064 5.999 21.879-.23 1.123-.311 2.281-.462 3.437 1.77.001 2.318-8.309 2.579-10.165.128-.909.779-2.066.434-2.617-.999-1.597-.909-3.483-1.578-5.138-.611-1.513-1.385-2.928-2.128-4.332.391-.493.736-.317 1.123-.104 3.916 2.161 7.586 4.746 11.162 7.49 4.284 3.288 4.453 9.577 3.416 13.849-.253 1.043-.804 2.008.115 3.015.37.405-.574 6.006-1.677 9.308-.093.278-.198.719.286.838.549-.291.27-.925.535-1.344 2.472-3.912 3.758-13.716 1.532-19.13-.345-.837.518-3.011 4.159 4.551 5.231 10.866 2.574 11.034 3.224 14.318.54-.084.193-1.102.838-.989.867.151.474 1.293.787 3.377.708 4.724 1.555 9.428 1.587 14.24.005.617-.178 1.349.649 1.751Zm-249.741-76.896c-8.73 1.468-21.804 2.333-21.804 2.333-1.85 1.099-3.92.976-5.913 1.236-15.567 2.034-17.736 2.163-20.335 1.328-2.215-.711-.78.625-4.064.65-6.347.05-17.439-2.761-23.963-4.901-1.228-.402-2.399-1.309-3.852-.941.517.963 9.558 4.125 10.67 4.473 13.584 4.246 13.794 1.828 12.545 4.476 7.428-1.751 9.919-.555 11.9-.918 5.894-1.082 11.91-.976 17.796-2.119 0 0 27.738-3.824 30.598-4.201 4.991-.659 1.973.692 5.673-.085 8.202-1.723 7.195 1.46 11.669-.616-22.23-2.282-21.251 1.278-43.58-17.118l-.268.43c6.505 7.151 14 12.684 22.928 15.973Zm98.489-6.799c.297.277.423.472.593.543 5.88 2.436 10.73 6.543 15.467 10.878 5.071 4.64 9.026 10.121 10.545 10.556-14.587-30.18-12.961-30.381-14.356-28.495-3.218 4.349-7.486 5.096-12.249 6.518Zm193.369 11.473c-6.44-13.454-23.869-21.69-26.674-20.798.113.634.566.662.927.809 4.237 1.717 8.24 3.884 11.705 7.077.203.187.357.507.634.482 3.346-.309 12.159 11.705 13.408 12.43Zm-285.662-1.833c-1.863-.314-5.372 5.274-7.819 7.201-.147.116-.264.355-.294.554-.168 1.146-.91 1.927-1.507 2.794-5.027 7.305-7.514 17.153-6.011 18.676.1-.293.23-.554.278-.831 1.207-7.201 4.94-14.834 5.54-14.913 1.583-.209 1.18-2.007 2.345-3.656 2.238-3.166 4.155-6.628 7.161-9.095.198-.162.389-.362.307-.73Zm226.027 6.068c-7.142-.014-13.848 2.713-20.799 3.896-2.722.463-4.93 2.516-7.654 3.077 9.551-2.022 19.126-3.88 28.453-6.973ZM58.662 324.676c.873-.062 1.552-.255 2.205.035 6.143 2.727 13.671 7.039 17.812 7.394-5.842-3.151-11.563-5.681-16.93-8.983-9.853-6.062-9.751-6.229-10.989-6.153 8.944 6.716 9.477 6.166 9.147 7.109-.18.514-.771.019-1.245.598Zm372.994-20.186c-20.816 3.697-20.442.071-27.469.054 6.584 3.518 8.741 2.253 12.686 3.751 1.271.483 2.079-.615 3.152-.695 4.027-.298 7.924-1.196 11.631-3.11Zm-254.042 35.854c-.395-.321-.634-.662-1.232-.587-2.974.375-5.913-.443-8.979.34-6.162 1.576-15.031 1.397-18.014 3.778 9.505-.51 18.657-2.567 28.225-3.531Zm233.44-12.143.274-.301c-.1-.174-.17-.384-.306-.516-3.596-3.481-7.545-6.543-10.71-10.533-.215-.271-.49-.539-.788-.673-1.715-.77-10.347-7.981-11.969-6.836-.056.439.172.488.338.569 8.186 4.001 16.216 13.503 23.161 18.29Zm-87.491 22.516c3.715 1.646 8.626-1.084 12.892 1.034 1.883.935.33-1.07 4.215-.216 2.039.448 4.11.715 6.113 1.424.792.28 1.639.847 2.579.527-8.231-4.932-16.977-4.287-25.799-2.769Zm-62.79-37.248c.561 1.936 7.678 9.286 11.066 12.464.675.633 2.026.99 1.362 2.528-.024.056.11.264.202.296 2.501.868 4.004 2.94 5.373 5.166.212.343.212.885.834.765 1.198-2.377-16.946-20.183-18.837-21.219Zm152.453-36.029a73.67 73.67 0 0 0-.292-.275l-17.71 23.355c2.26-.737 8.653-9.226 10.516-10.598.374-.275.896-.76.881-1.127-.055-1.31-.225-.546 6.605-11.355Zm-326.85 59.135c-1.444.059-4.193 4.282-5.19 5.792-3.688 5.589-2.189 3.596-9.433 20.388 4-3.062 5.516-12.974 14.623-26.18Zm270.488-43.483c-.987 1.635-.637 1.097-1.962 8.682-.249 1.427-.949 2.728-.915 4.223.011.486-.024 1.094-.626 1.176-.683.094-.306-.897-.831-1.054-.297 1.412 1.545 2.583-2.443 10.238-.23.441-.614.767-.232 1.372 5.467-5.496 7.691-19.525 7.009-24.637Zm-288.303 45.4c-.158-.03-.31-.117-.391-.067-3.524 2.193-8.54 7.051-20.336 8.869-1.198.185-2.383.441-3.405 1.309a67.197 67.197 0 0 0 6.35-.678c2.306-.348 4.485-1.547 6.897-1.202.122.018 7.655-4.792 9.826-6.779.425-.388 1.011-.707 1.06-1.452Zm55.558-8.964c-3.029-2.212-4.902-5.602-7.559-8.179-2.741-2.659-4.808-6.052-6.862-9.386-.403-.656-.608-1.57-1.374-1.902-1.155 1.053 8.777 17.542 15.795 19.467Zm177.144 17.349c.231 1.162 1.29 1.523 1.636 2.498 1.193 3.354.729 3.554 1.22 3.457.97-.191.884.7 1.026 1.251 1.541 5.975.816 11.495.311 17.689 1.917-2.383 1.458-5.445 1.776-8.275.998-8.906-2.558-13.228-4.39-15.698.306-.769 1.04-.061 1.248-.908-.943-.091-1.824-.271-2.827-.014Zm-114.087 16.209c-.397-1.382-7.005-11.813-6.529-17.009.206-2.247-.108-4.592.8-6.764-.724-.344-1.311-.002-2.092-.034 1.022.929 1.298 1.726.418 2.708-.57.635-.998 5.524 1.188 10.973 1.52 3.786 3.45 7.267 6.215 10.126Zm-34.334 3.453c-4.357 1.628-15.708 16.478-13.752 19.694.321-2.156 3.074-6.259 3.555-7.065.214-.358.372-.872.873-.689.663.243.425.776-.238 4.956 1.112-1.464 1.454-3.244 1.055-5.034-.077-.344-.37-.703-.051-.989 1.219-1.094 1.57-2.804 2.645-4.06 1.953-2.282 3.854-4.615 5.913-6.813Zm-11.585-5.616.203.443c5.157-3.685 6.563-4.841 8.937-4.656.105.008.237-.129.328-.229 2.763-3.029 8.163-2.943 11.71-5.82-7.637 2.067-15.446 3.732-21.178 10.262Zm29.257-45.77c4.259 2.287 8.989 3.384 11.896 2.686-1.845-.384-3.578-.508-4.969-1.554-1.338-1.007-2.702-1.481-4.339-1.309-.816.085-1.678-.365-2.588.177Zm13.217-28.938c.318-3.56-.124-6.225-1.488-8.294-.045 2.702 1.072 4.983.874 7.416-.026.33.037.734.614.878Zm9.438.286c-3.707 1.386-5.585 4.971-5.364 6.46 1.593-2.228 3.012-4.501 5.364-6.46Zm3.441 10.755c-.443 1.688.221 6.495.937 8.108.924-2.747-.487-5.146-.937-8.108ZM35.532 339.733c2.454.562 4.856.116 7.251-.478-2.442-.326-4.847.069-7.251.478Zm233.917-36.892c2.347 1.05 4.5 2.544 6.847 3.595-1.981-1.89-4.12-3.417-6.847-3.595Zm156.101-14.504-.35-.383c-3.002 3.581-1.787 2.059-4.639 5.813 2.161-1.347 3.641-3.324 4.989-5.43Zm-132.612 27.961c.958.133 5.117-.911 7.054-1.871-2.679.579-5.05.34-7.054 1.871Zm-143.361 74.701c-.875 2.85-.412 5.409-.095 7.966.32-2.552.398-5.106.095-7.966Zm126.08-98.078c-.668 2.25 1.019 3.72 1.141 5.593.444-1.385.03-3.246-1.141-5.593Zm-132.964-14.616c-1.938-.96-3.921-1.753-6.051-2.007 1.918 1.034 3.897 1.84 6.051 2.007Zm232.757 15.186c-.762 2.691-.729 4.123.064 6.074.131-1.965.233-3.834-.064-6.074ZM43.125 330.857c2.576 2.198 4.212 2.984 5.644 2.708-1.966-.913-3.687-2.096-5.644-2.708Zm259.153-8.439c-1.482.015-2.618.663-3.413 2.377 1.616-.274 2.528-1.277 3.413-2.377Zm-31.621-7.119c-.222 1.105.526 4.232 1.125 5.225.655-2.06-.928-3.462-1.125-5.225Zm110.134 3.422c1.264.181 2.481.426 3.584 1.119.154.097.406.071.599.029.197-.042.539.106.566-.741-1.709.65-2.946-1.387-4.749-.407Zm-52.746 47.669c.165 2.566 1.41 4.218 1.989 6.116.086-2.144-.725-3.957-1.989-6.116Zm-21.063-70.858c1.29.56 3.613.205 5.01.075-1.46-.305-3.212-.747-5.01-.075Zm-141.684 42.156c-.988-.278-1.983-.435-2.946.013.984.52 1.963.504 2.946-.013Zm-15.734 20.014c-.721.958-2.051 1.511-2.135 3.239 1.098-.936 1.749-1.965 2.135-3.239Zm188.987-5.266-.188.419c1.14.442 1.88 1.756 3.368 1.457l-3.18-1.876Zm66.527-34.733c1.224.501 2.517.468 3.816 0h-3.816Zm-58.641 76.774c.528-.63.443-1.314.368-1.91-.078-.627.433-1.223.063-2.074-.722 1.397-.678 2.626-.431 3.984Zm-189.721 1.316c.353 1.363.977 1.983 1.741 2.502-.491-.716-.539-1.752-1.741-2.502Zm243.845-105.425c.604-1.158.088-2.182.024-3.208-.089 1.027-.553 2.057-.024 3.208Zm-39.808 7.393c-1.215 1.392-1.215 1.392-1.13 2.59.351-.977.982-1.507 1.13-2.59Zm-70.287 31.208c.634.031 1.142.169 1.588-.239.267-.244-.657-1.064-1.588.239Zm-20.396-1.849c-.698-.535-1.29-.655-2.102-.384.675.724 1.301.597 2.102.384ZM95.95 342.788c-.77-.047-1.373.193-1.558 1.082l1.559-1.082Zm218.686-68.382c.857-.133 1.101-.653 1.622-1.477-.849.453-1.444.551-1.622 1.477Zm-197.638 44.471c-.158.74-.165 1.244.113 1.953.558-.815.463-1.321-.113-1.953Z"/>
</svg>
