<svg xmlns="http://www.w3.org/2000/svg" width="234" height="489" fill="none" viewBox="0 0 234 489" class="target-flower-svg" id="">
  <path id="actual-flower" fill="#35AB99" fill-opacity=".53" d="M213.758 117.279c.435.121 1.137.302 1.832.504 2.313.672 4.529 1.58 6.511 3.019 1.462 1.055 2.553 2.407 2.878 4.249.312 1.742 1.215 3.046 2.437 4.202.572.545 1.15 1.103 1.624 1.735.851 1.143.65 2.333-.611 2.952-1.163.571-2.423.968-3.677 1.277-4.36 1.063-8.778.888-13.19.498-5.309-.471-10.442-1.836-15.497-3.517-.48-.161-.961-.289-1.54-.188.878.437 1.748.908 2.645 1.304 4.782 2.125 9.746 3.705 14.743 5.205.896.269 1.793.544 2.67.887.663.262 1.176.746 1.137 1.56-.032.733-.519 1.17-1.137 1.392-.779.282-1.579.531-2.391.706-5.282 1.156-10.617 1.607-15.945.571-2.222-.43-4.392-1.277-6.51-2.131a5.727 5.727 0 0 0-2.703-.417c-2.021.161-4.042.316-6.069.377-2.878.08-5.698-.35-8.466-1.191-.384-.114-.78-.201-1.326-.342.065.537.072.954.163 1.351.688 3.005 1.955 5.776 3.281 8.519.533 1.103 1.079 2.205 1.579 3.328.338.76.513 1.567-.065 2.286-.611.76-1.449.8-2.287.558-.929-.262-1.839-.612-2.866-.955.013 1.426.384 2.65.943 3.793.656 1.338 1.448 2.608 2.144 3.933 1.033 1.983 2.072 3.967 3.028 5.991.383.813.721 1.808-.182 2.501-.91.692-1.651-.034-2.372-.558-3.093-2.273-6.108-4.66-9.291-6.784-6.043-4.028-10.176-9.602-12.781-16.44-1.163-3.046-2.112-6.179-3.125-9.285-.234-.726-.475-1.352-1.163-1.809-5.159-3.415-8.98-8.088-11.852-13.642-.123-.235-.24-.477-.377-.706-.052-.087-.136-.161-.305-.35-.228.37-.474.693-.637 1.056-13.853 30.734-26.269 62.026-34.456 94.951-1.45 5.83-2.749 11.693-4.08 17.549a5.38 5.38 0 0 0-.046 2.064c1.787 9.998 3.17 20.05 4.295 30.149.052.477.156.941.545 1.647.065-.195.111-.397.202-.578 2.216-4.296 5.055-8.136 8.076-11.84.462-.565.696-1.096.702-1.863.007-5.977 1.274-11.733 2.995-17.394.234-.76.566-1.513.962-2.199 1.027-1.768 2.164-1.936 3.658-.591.156.141.312.275.591.531.345-.403.663-.8 1.007-1.17 1.638-1.802 3.171-3.711 4.939-5.365 2.683-2.508 4.418-2.017 5.763 1.398.136.343.292.672.513 1.183.799-.302 1.56-.578 2.32-.88 4.067-1.621 8.089-3.389 12.215-4.821 2.645-.915 5.439-1.365 8.181-1.963.591-.128 1.254-.095 1.845.04 1.085.235 1.566 1.055 1.273 2.172-.175.659-.487 1.304-.838 1.889-.935 1.546-1.936 3.059-2.898 4.592-.305.484-.578 1.002-.903 1.574.786.342 1.462.605 2.105.934 1.651.854 2.132 2.165 1.28 3.859-.474.942-1.072 1.876-1.812 2.596-1.703 1.647-3.529 3.16-5.315 4.72-.384.336-.806.632-1.397 1.089.675.188 1.156.296 1.617.451 2.158.719 2.723 2.393 1.313 4.209-.838 1.082-1.819 2.07-2.833 2.985-2.722 2.467-5.815 4.316-9.129 5.802-2.424 1.083-4.945 1.285-7.492.807-4.236-.793-8.453-1.721-12.683-2.575-1.683-.336-3.378-.598-5.061-.914-.566-.108-.994.013-1.371.49-3.515 4.404-6.836 8.943-9.051 14.234-.423 1.016-.566 2.011-.468 3.12.604 7.067 1.221 14.14 1.715 21.22.552 7.941.981 15.888 1.449 23.828.37 6.28.76 12.56 1.072 18.847.494 10.045 1.066 20.083 1.365 30.135.422 14.14.493 28.287.13 42.433-.182 7.04-.351 14.086-.761 21.119-.409 6.972-1.098 13.931-1.689 20.897-.559 6.535-1.15 13.064-1.728 19.6-.013.161-.007.322-.026.484-.085.652-.377 1.129-1.059 1.19-.579.054-1.04-.478-1.118-1.298-.039-.424-.013-.861.02-1.291.363-4.229.727-8.465 1.098-12.694.578-6.643 1.228-13.273 1.728-19.922.455-6.058.89-12.123 1.072-18.194.442-14.893.63-29.793.247-44.692-.208-8.116-.396-16.238-.721-24.353-.221-5.588-.656-11.162-.981-16.749-.403-6.979-.767-13.958-1.17-20.937-.331-5.742-.656-11.491-1.079-17.226-.532-7.296-1.046-14.591-1.767-21.859-.74-7.483-1.702-14.947-2.618-22.417-.39-3.146-.916-6.273-1.397-9.406a1.661 1.661 0 0 0-.527-1.022c-.441 2.394-.903 4.774-1.319 7.174a471.981 471.981 0 0 0-4.294 30.626c-.884 8.284-1.618 16.581-2.32 24.878-1.287 15.215-2.08 30.471-2.307 45.747-.201 13.602-.065 27.211.078 40.82.072 7.039.384 14.086.76 21.119.481 8.908 1.092 17.817 1.742 26.713.468 6.434 1.04 12.855 1.657 19.276.85 8.828 1.923 17.623 3.573 26.337.078.423.163.847.195 1.271.04.537-.175.954-.701 1.109-.579.168-1.034-.074-1.294-.612-.155-.329-.24-.706-.292-1.076-.91-5.997-1.982-11.974-2.683-17.999-.969-8.324-1.722-16.674-2.45-25.032a566.66 566.66 0 0 1-1.306-18.503c-.507-9.286-.864-18.585-1.332-27.877-.214-4.249-1-8.424-1.884-12.573-1.06-4.982-1.891-10.025-3.645-14.825-1.222-3.349-1.202-3.382-4.464-4.707-6.05-2.454-12.111-4.861-18.16-7.295-3.399-1.365-6.72-2.898-9.825-4.882-.572-.369-1.156-.746-1.65-1.203-1.469-1.358-1.235-2.945.546-3.859.552-.283 1.137-.485 1.942-.827-.695-.7-1.247-1.312-1.858-1.856-.864-.767-1.826-1.432-2.657-2.239-1.495-1.439-1.443-2.885.142-4.229 1.755-1.486 3.782-2.454 5.926-3.16 1.04-.343 2.099-.612 3.145-.942.526-.168 1.033-.41 1.715-.692-.442-.8-.714-1.513-1.163-2.058-1.247-1.506-2.488-3.046-3.892-4.39-5.107-4.888-10.935-8.728-16.997-12.204-6.504-3.731-13.275-6.912-20.058-10.051-2.086-.969-4.172-1.95-6.212-3.013-.916-.477-1.813-1.075-2.58-1.781-1.156-1.069-1.201-2.374-.155-3.557.663-.747 1.475-1.345 2.248-1.984 1.416-1.17 1.546-1.553.903-3.301-.39-1.056-.89-2.064-1.267-3.12-.578-1.64-.058-2.575 1.618-2.911 3.249-.652 6.51-.565 9.785-.195 5.445.612 10.76 1.849 15.99 3.496 1.242.39 2.509.706 3.77 1.015.48.115.987.101 1.715.169-.053-.922-.033-1.661-.143-2.374-.143-.901-.423-1.775-.579-2.676-.312-1.822.585-2.837 2.365-2.535 1.222.209 2.437.572 3.593 1.029 2.742 1.076 5.172 2.75 7.499 4.572 1.488 1.17 2.937 2.4 4.425 3.577.61.484 1.273.894 2.046 1.425.163-.497.344-.813.37-1.149.072-.854.085-1.722.105-2.575.026-.807 0-1.614.058-2.421.169-2.508 1.43-3.274 3.541-2.111.864.477 1.728 1.029 2.443 1.714 1.527 1.453 3.054 2.932 4.412 4.552a52.914 52.914 0 0 1 8.87 15.095c.876 2.279 1.305 4.74 1.883 7.134.267 1.096-.006 2.05-.734 2.985-.487.618-.754 1.533-.838 2.346-.136 1.278-.097 2.582-.026 3.867.461 8.646.897 17.293 1.455 25.933.325 5.096.806 10.179 1.332 15.256.15 1.418.572 2.844 1.086 4.175 1.319 3.409 2.15 6.952 2.936 10.516.091.403.221.8.592 1.19 0-.437-.007-.868 0-1.305.143-12.102.078-24.205.493-36.301.41-11.981 1.177-23.949 2.028-35.904.662-9.272 1.585-18.53 2.605-27.768a458.962 458.962 0 0 1 6.316-40.571c.208-1.015.188-2.158-.013-3.173-2.723-13.475-6.088-26.781-9.662-40.033-1.287-4.76-2.58-9.521-3.873-14.281-.123-.464-.272-.921-.402-1.345-.156-.04-.286-.121-.338-.087-2.008 1.264-4.14 1.251-6.329.699-.656-.168-1.312-.37-1.975-.437-.429-.047-.955-.007-1.3.222-3.911 2.548-8.225 3.261-12.715 2.898-4.133-.336-8.05-1.6-11.774-3.49-.188-.094-.39-.174-.546-.309-1.624-1.405-3.612-2.051-5.522-2.871-2.93-1.251-5.406-3.207-7.661-5.46-4.802-4.8-8.68-10.28-11.15-16.741-.494-1.291-.805-2.663-1.11-4.021-.163-.74-.111-1.547.617-2.024.773-.504 1.507-.208 2.183.262.643.451 1.254.962 1.877 1.439.579.444 1.157.881 2.034 1.54-.195-.713-.266-1.103-.403-1.459-1.072-2.817-1.786-5.729-2.072-8.748-.052-.531-.104-1.082-.04-1.607.183-1.459 1.216-2.044 2.47-1.324.85.491 1.591 1.197 2.39 1.795.326.249.663.484 1.112.807.084-.437.15-.726.201-1.022.234-1.345 1.007-2.3 2.242-2.642 1.085-.303 2.235-.357 3.366-.458.493-.047 1.007.068 1.695.128-.26-.645-.435-1.136-.656-1.607-.831-1.735-1.683-3.456-2.514-5.19a18.538 18.538 0 0 1-.572-1.325c-.247-.646-.247-1.278.26-1.795.513-.525 1.156-.464 1.754-.215.624.262 1.215.611 1.793.961.897.531 1.774 1.089 2.905 1.795-.143-.679-.182-1.089-.312-1.465-.851-2.482-1.735-4.956-2.567-7.444-.883-2.655.124-3.812 2.794-3.267 1.28.262 2.794.215 4.022.013 1.267-.208 2.554-.323 4.074-.504-.506-.619-.922-1.13-1.332-1.641-.727-.914-1.5-1.795-2.157-2.756-1.137-1.661-.61-3.241 1.326-3.631a9.371 9.371 0 0 1 3.697.007c1.923.403 3.794 1.089 5.685 1.667.383.114.767.256 1.41.471-.234-.814-.39-1.412-.578-1.997-.364-1.116-.852-2.206-1.111-3.349-.43-1.862.604-2.83 2.365-2.279.695.215 1.351.551 2.027.82.318.128.643.229 1.215.431-.416-1.298-.754-2.347-1.085-3.402-.24-.767-.533-1.527-.682-2.313-.325-1.674.669-2.703 2.241-2.152 1.313.457 2.593 1.136 3.75 1.923 5.75 3.893 10.76 8.606 14.775 14.416 2.534 3.664 4.541 7.57 5.692 11.941.857 3.261 1.091 6.562.78 9.91-.014.162.012.343-.053.478-.766 1.513-.097 2.844.403 4.249 1.345 3.799 2.326 7.692 2.651 11.746.247 3.1-.071 6.125-.87 9.097-.67 2.488-2.04 4.572-3.724 6.448-.279.31-.636.545-.922.787.656 3.328-.117 6.246-1.618 8.976-.422.773-.254 1.425-.059 2.145 1.956 7.248 4.003 14.462 5.848 21.744 2.456 9.669 4.75 19.371 7.115 29.06.097.403.227.807.552 1.217.28-1.217.566-2.428.845-3.645 6.367-27.176 15.029-53.547 25.88-79.157 2.897-6.845 5.834-13.669 8.752-20.5.182-.431.338-.868.643-1.654-.656.376-1.04.564-1.391.807-3.43 2.353-7.049 4.356-10.87 5.936-1.059.438-2.157.807-3.275 1.022-1.572.31-2.612-.383-3.118-1.963-.228-.713-.371-1.459-.475-2.198-.247-1.755-.877-3.356-2.059-4.62-2.612-2.783-2.723-5.768-.839-8.955 1.332-2.246 2.716-4.452 4.087-6.67.247-.404.533-.78.871-1.285-.422-.221-.754-.437-1.118-.585-4.418-1.768-8.394-4.249-11.76-7.725-.513-.531-1.066-.753-1.787-.8-4.36-.29-8.7-.78-12.956-1.862-5.464-1.392-10.26-4.028-14.36-8.049-2.975-2.918-6.075-5.708-9.11-8.566-.61-.571-1.357-1.109-1.006-2.151.253-.746 1.033-1.11 2.293-.794 2.32.572 4.607 1.298 6.907 1.957 1.547.444 3.087.955 4.659 1.29.825.176 1.715.035 2.781.035-.266-.485-.429-.794-.604-1.09-.163-.275-.358-.53-.514-.806-.532-.989-1.189-2.024-.474-3.154.76-1.203 1.943-.78 2.989-.538 2.384.545 4.75 1.17 7.134 1.715.877.201 1.787.269 2.684.396.032-.1.065-.208.104-.309-.384-.33-.773-.645-1.15-.988-3.626-3.308-7.284-6.576-10.845-9.944-1.293-1.23-2.404-2.677-3.528-4.089-2.216-2.79-3.782-5.95-4.431-9.493-.91-4.935-2.781-9.44-5.211-13.743-.475-.834-.91-1.695-1.358-2.542a13.24 13.24 0 0 1-.423-.867c-.305-.706-.571-1.432-.006-2.118.624-.76 1.416-.545 2.164-.276a23.59 23.59 0 0 1 2.157.935c3.638 1.761 7.024 3.953 10.318 6.313 1.104.787 2.203 1.587 3.489 2.508.026-.551.065-.887.052-1.224-.084-1.882-.22-3.758-.266-5.64-.02-.747.058-1.52.246-2.233.338-1.257 1.54-1.587 2.411-.645.494.53.838 1.223 1.202 1.869 2.099 3.711 4.133 7.463 6.29 11.14 1.124 1.924 2.456 3.712 3.885 5.844.156-1.03-.299-1.44-.552-1.89-3.509-6.212-6.316-12.714-7.849-19.767-.76-3.483-1.215-6.986-.851-10.563.325-3.14 1.566-3.758 4.106-2.058.526.35 1.04.713 1.566 1.056 1.027.686 2.131 1.096 3.379 1.042 2.111-.094 3.827.794 5.302 2.293 1.767 1.789 3.099 3.893 4.23 6.152l.779 1.587c1.339-.585 2.606-.08 3.918.202.657.14 1.417-.047 2.093-.25.779-.228 1.52-.631 2.397-1.014.111-1.042.208-2.212.371-3.376.409-2.87 1.247-5.526 3.398-7.604.656-.639 1.039-1.587 1.527-2.407.357-.592.61-1.264 1.039-1.789.903-1.089 2.17-.914 2.768.377.397.854.643 1.782 1.027 2.87.39-.618.663-1.061.942-1.505 2.372-3.732 4.73-7.463 7.115-11.182.461-.712 1-1.378 1.553-2.017.558-.652 1.202-1.29 2.15-.941.929.343 1.059 1.25 1.17 2.111.058.478.058.968.078 1.446.136 3.281.266 6.555.416 9.836.032.747.104 1.493.175 2.502.396-.397.643-.612.845-.86 2.17-2.684 4.308-5.38 6.497-8.042a12.314 12.314 0 0 1 1.93-1.876c1.54-1.197 2.814-.66 3.171 1.277.078.424.117.854.123 1.284.039 2.529.065 5.05.098 7.578.006.733 0 1.472 0 2.353 1.397-.558 2.638-1.049 3.872-1.553.338-.134.657-.33 1.001-.457 1.585-.598 2.521 0 2.69 1.755.058.585-.013 1.183-.02 1.768-.006.31 0 .625 0 1.09.553-.25 1.001-.492 1.475-.653.832-.282 1.67-.639 2.528-.746 1.8-.222 3.028.76 3.281 2.635.143 1.05.026 2.132.026 3.41.435-.236.78-.39 1.092-.592 1.501-.995 3.015-1.903 4.931-1.6.345.053.767-.25 1.124-.438 1.248-.665 2.469-1.371 3.724-2.03a7.61 7.61 0 0 1 1.455-.572c1.969-.558 3.307.31 3.515 2.434.117 1.164.111 2.394-.149 3.524-.455 1.976-1.124 3.906-1.761 5.836-.254.773-.487 1.452-.273 2.326.234.968.188 2.01.279 3.24.709-.349 1.332-.685 1.976-.968.857-.376 1.715-.786 2.605-1.055 1.657-.498 2.677.027 3.431 1.62.149.323.286.66.442 1.016 1.527-.619 2.937-1.325 4.418-1.748 1.793-.512 3.632-.982 5.477-1.123 2.476-.189 3.736 1.196 3.496 3.745a15.823 15.823 0 0 1-1.059 4.35c-1.183 2.918-2.56 5.762-3.86 8.633-.214.464-.441.928-.461 1.573.5-.41.994-.833 1.507-1.223 1.164-.901 2.32-1.822 3.522-2.663a5.512 5.512 0 0 1 1.696-.78c1.384-.37 2.586.323 2.787 1.795.15 1.083-.032 2.233-.207 3.329-.124.78-.488 1.512-.8 2.447.462-.094.793-.148 1.118-.235.351-.095.695-.229 1.046-.31 2.976-.659 4.659.854 4.392 4-.078.949-.312 1.883-.506 2.993.89-.222 1.663-.477 2.449-.605 1.988-.33 2.755.47 2.456 2.508-.123.847-.273 1.694-.409 2.541-.13.787-.26 1.567-.423 2.522.559-.101 1.053-.175 1.534-.283 2.333-.53 4.659-1.096 7.004-1.587a10.825 10.825 0 0 1 2.632-.248c1.338.047 1.981.995 1.559 2.313a9.025 9.025 0 0 1-1.208 2.42c-2.041 2.85-4.139 5.661-6.219 8.479-.272.376-.558.74-.987 1.304.552-.034.884-.027 1.202-.08 3.632-.66 7.264-1.345 10.896-1.99.715-.129 1.456-.216 2.17-.162 1.189.094 1.768 1.055 1.261 2.178a8.857 8.857 0 0 1-1.495 2.246 1088.088 1088.088 0 0 1-9.616 10.348c-.318.336-.747.558-1.13.833.078.128.149.256.227.384.331.06.656.14.988.181.565.074 1.15.06 1.695.209 1.423.383 1.82 1.62.91 2.837-.312.417-.715.787-1.124 1.11-1.098.847-2.021 1.835-2.735 3.052-1.105 1.876-2.853 2.958-4.724 3.805-1.423.639-2.911 1.13-4.275 1.648-.169.941-.299 1.835-.494 2.716-.202.901.058 1.661.422 2.474.474 1.09.793 2.212 1.293 3.645ZM74.23 356.23c.072-.02.143-.034.215-.054-.137-2.508-.267-5.009-.41-7.517-.48-8.801-.974-17.602-1.442-26.41-.065-1.285-.13-2.596.045-3.866.15-1.083.481-2.226 1.04-3.14.468-.76.676-1.426.455-2.239-.552-2.064-.962-4.203-1.742-6.173-1.975-5.002-4.645-9.621-8.03-13.743-1.443-1.755-3.1-3.314-4.718-4.908-.539-.524-1.247-.867-2.098-1.446-.059.875-.104 1.446-.13 2.018-.059 1.29-.02 2.588-.17 3.866-.311 2.703-1.91 3.543-4.145 2.138-1.28-.807-2.423-1.849-3.645-2.757-2.235-1.654-4.431-3.389-6.757-4.895-1.345-.874-2.918-1.385-4.406-2.003-.337-.142-.76-.081-1.085-.101.182 1.687.468 3.227.475 4.774.006 1.62-1.02 2.548-2.586 2.608a5.997 5.997 0 0 1-1.547-.141c-1.267-.296-2.514-.659-3.775-.975-3.833-.968-7.64-2.057-11.507-2.857-3.768-.78-7.602-1.224-11.468-.841-.637.061-1.26.229-2.001.363.474 1.204.91 2.179 1.254 3.181.877 2.521.494 3.859-1.52 5.513-.449.37-.93.692-1.365 1.076-.306.269-.559.598-.981 1.055.753.511 1.358 1.016 2.033 1.359 1.768.907 3.574 1.741 5.354 2.622 6.7 3.314 13.444 6.542 20.078 9.991 5.438 2.831 10.52 6.3 15.301 10.213 2.573 2.105 5.03 4.344 7.037 7.053.624.848 1.202 1.769 1.618 2.737.689 1.62.202 2.851-1.351 3.563-.897.411-1.878.619-2.8.962-1.703.639-3.425 1.25-5.082 2.004-.832.376-1.546 1.022-2.514 1.68 1.091.901 2.02 1.58 2.846 2.374.942.908 1.916 1.829 2.657 2.911.845 1.231.41 2.374-.923 3.006-.59.282-1.215.491-2.092.84.656.457 1.085.841 1.572 1.089 2.983 1.506 5.926 3.134 8.993 4.431 6.153 2.596 12.384 5.009 18.583 7.49.26.108.546.162.968.283-.09-.397-.117-.592-.182-.787-2.053-6.199-4.139-12.392-6.16-18.611-2.092-6.434-4.385-12.775-8.07-18.45-2.722-4.195-5.483-8.364-8.225-12.546-.13-.202-.24-.423-.364-.632.403.094.67.303.884.558 2.17 2.535 4.379 5.043 6.49 7.625 4.581 5.601 8.096 11.854 10.312 18.833 1.625 5.103 3.073 10.267 4.6 15.404.15.504.319.988.481 1.472Zm74.13-106.509c-1.52-.222-2.638-.377-3.749-.552-.695-.107-1.332-.356-1.54-1.149-.207-.794.215-1.358.78-1.789.838-.638 1.703-1.237 2.554-1.842 2.105-1.493 4.1-3.127 5.789-5.123.533-.632 1.144-1.244 1.17-2.3-.767-.329-1.534-.625-2.281-.982-1.494-.712-1.871-1.741-1.144-3.261.371-.766.839-1.479 1.293-2.205.767-1.217 1.56-2.414 2.32-3.631.169-.275.24-.611.429-1.109-.871.128-1.534.202-2.19.336-5.016 1.009-9.831 2.683-14.515 4.774-1.618.726-3.23 1.486-4.873 2.138-2.398.955-3.275.518-4.211-1.909-.221-.579-.5-1.137-.825-1.87-.617.431-1.144.686-1.527 1.083a123.016 123.016 0 0 0-3.814 4.027c-.708.787-1.28 1.695-1.995 2.475-1.007 1.109-1.858 1.129-2.989.181l-1-.834c-2.06 5.83-3.327 11.605-3.411 17.684 3.229-2.959 6.621-5.581 10.123-8.055 4.366-3.08 9.837-6.3 10.89-6.442-3.717 2.851-7.44 5.689-11.137 8.553a911.844 911.844 0 0 0-8.077 6.327c-.409.329-.961.598-1.033 1.277l4.653.942c4.223.86 8.446 1.748 12.683 2.555 2.027.39 4.041.235 5.964-.606 3.918-1.714 7.473-3.98 10.435-7.18.338-.384.65-.8 1.228-1.513Zm-16.633-140.645c-.936.094-1.91.222-2.892.282-3.56.215-7.056-.282-10.487-1.217-1.202-.329-1.968-.067-2.625.982-1.267 2.03-2.612 4.007-3.866 6.051-.493.814-.844 1.721-1.228 2.602-.584 1.352-.441 2.616.481 3.765.429.538.851 1.083 1.261 1.641 1.026 1.392 1.683 2.952 2.001 4.673.591 3.194.611 3.227 3.515 2.037 5.244-2.158 10.136-4.969 14.496-8.707.786-.672 1.462-1.479 2.001-2.031-.909-3.489-1.761-6.683-2.657-10.078Zm-59.556 37.269c-.8-1.029-1.397-1.903-2.093-2.683-4.639-5.15-9.408-10.159-14.574-14.745-1.962-1.748-4.06-3.341-6.179-4.895a40.452 40.452 0 0 0-8.31-4.713c-.546-.228-1.118-.37-1.982-.652.273.847.416 1.345.585 1.835.786 2.273 1.735 4.505 2.313 6.832.624 2.514 1.943 4.269 3.866 5.937a269.833 269.833 0 0 1 21.663 21.058c.299.33.63.632 1.124 1.13.078-.814.117-1.338.182-1.863.182-1.546.325-3.093.578-4.626.351-2.03.67-2.306 2.827-2.615Zm19.583-72.064c-.02-.397.007-.511-.032-.599-1.97-4.229-2.788-8.754-3.243-13.38-.071-.76-.273-1.411-.753-2.05-2.404-3.167-4.172-6.697-4.984-10.65-.357-1.728-1.105-2.871-2.553-3.88-3.834-2.67-7.577-5.48-11.69-7.699-.708-.383-1.442-.712-2.17-1.069.273 1.143.735 2.024 1.215 2.905 1.969 3.624 3.717 7.356 4.425 11.477.884 5.17 3.281 9.447 6.77 13.172 3.659 3.906 7.577 7.503 11.722 10.852.357.282.747.531 1.293.92ZM66.05 156.598l.214-.181c-.377-.43-.74-.874-1.124-1.298-6.218-6.73-12.813-13.057-19.622-19.135-2.508-2.239-5.335-4.095-8.031-6.105-.254-.189-.585-.269-1.118-.505.273.612.416.948.566 1.278 1.305 2.871 2.592 5.749 3.917 8.606 1.209 2.616 2.372 5.265 3.704 7.813 3.723 7.1 9.376 12.405 15.386 17.347.085.067.247.04.416.061-.403-1.856-.89-3.611-1.163-5.406-.513-3.382.975-4.673 4.126-3.631.936.309 1.826.766 2.729 1.156ZM99.044 51.716c.065-.76.078-1.19.15-1.607.41-2.487.675-5.009 1.293-7.443.435-1.734 1.52-3.287 1.994-5.015.494-1.796.598-3.699.878-5.554.026-.155.123-.31.123-.464.007-.47.104-.988-.052-1.399-1.117-2.931-2.644-5.594-4.893-7.765-.948-.915-2.027-1.513-3.359-1.446-2.02.1-3.762-.645-5.38-1.802-.448-.316-.929-.585-1.52-.948-.091.672-.221 1.096-.189 1.513.17 2.514.156 5.063.598 7.524 1.553 8.64 5.237 16.378 9.753 23.734.091.161.253.29.604.672Zm94.175 76.771c0 .087 0 .175-.006.262 1.117.404 2.229.82 3.353 1.21 7.498 2.576 15.152 4.162 23.092 3.658 2.06-.128 4.093-.645 6.133-1.022.371-.067.709-.303 1.417-.619-.793-.699-1.404-1.19-1.962-1.741-1.15-1.143-1.982-2.501-2.261-4.142-.28-1.667-1.203-2.81-2.534-3.684-2.405-1.58-5.049-2.501-7.843-2.959-.52-.08-1.118.088-1.624.283-1.209.477-2.359 1.123-3.58 1.553-1.339.471-2.548 1.035-3.594 2.091-.799.807-1.825 1.446-2.852 1.923-2.073.975-4.21 1.802-6.329 2.683-.454.201-.935.343-1.41.504Zm-56.138-22.672c2.547-.115 5.081-.33 7.504-1.258 1.683-.645 3.197-1.539 4.36-2.998 2.274-2.871 2.242-6.294-.084-9.117-1.313-1.587-2.963-2.495-4.958-2.75-2.235-.29-4.379-.794-6.289-2.165-1.17-.841-2.015-.673-3.126.248-1.449 1.204-2.15 2.864-2.566 4.68-.884 3.819-.358 7.456 1.306 10.973 1.384 2.938 1.26 2.481 3.853 2.387Zm24.905 26.417c-.325-.444-.442-.693-.63-.854-1.807-1.533-3.535-3.18-5.458-4.532-3.301-2.333-6.725-4.478-10.091-6.703-4.093-2.703-7.934-5.702-10.89-9.763-.084-.114-.24-.181-.481-.356.026.417-.006.726.065 1.008.468 1.755.851 3.55 1.469 5.258 3.222 8.949 8.602 16.009 16.991 20.333a17.82 17.82 0 0 0 3.781 1.438c1.417.357 2.066-.121 2.307-1.607.299-1.869.955-3.408 2.937-4.222ZM102.579 83.97c-.526.968-.806 1.835-1.371 2.413-.604.62-1.449.996-2.229 1.406-1.312.699-1.637 1.31-1.026 2.703a14.748 14.748 0 0 0 1.767 3.012c7.264 9.399 16.985 13.353 28.349 13.615.325.007.649-.114 1.208-.215-.39-.262-.546-.397-.721-.484-3.762-1.815-6.991-4.411-9.948-7.376-2.157-2.165-4.197-4.464-6.38-6.61-2.404-2.36-4.899-4.625-7.394-6.891-.637-.592-1.43-1.009-2.255-1.573Zm32.026-80.2c-.123-.034-.247-.06-.37-.094-.663.955-1.358 1.883-1.975 2.864-1.768 2.784-3.529 5.567-5.237 8.391-.741 1.224-1.391 2.522-1.989 3.826-.234.504-.409 1.17-.299 1.694.507 2.334.28 4.841 1.605 6.986.319.518.397 1.217.533 1.843.208.94.351 1.902.578 2.837.098.39.254.921.54 1.069 1.059.558 1.332 1.593 1.663 2.609.208.625.383 1.27.669 2.219.306-.653.455-.928.572-1.224.916-2.367 2.125-4.586 3.795-6.428 1.215-1.345 1.429-2.649 1.28-4.45-.546-6.792-.858-13.61-1.254-20.414-.033-.592-.072-1.156-.111-1.728Zm64.638 90.137c1.078.115 1.832.148 2.573.283.656.12 1.488.154 1.89.578.767.813 1.605.787 2.541.8 1.449.02 2.917-.02 4.334.242.877.161 1.709.33 2.592.229.825-.094 1.664-.216 2.489-.155 1.514.114 2.755-.41 3.788-1.493A3086.27 3086.27 0 0 0 230.496 82.8c.117-.121.143-.343.286-.706-1.404.255-2.619.49-3.84.686-6.362 1.015-12.723 2.044-19.097 3.005-.708.108-1.104.417-1.488.968-1.65 2.374-3.567 4.472-5.88 6.18-.318.241-.63.504-1.234.974Zm-6.803 18.1c.169 1.432-.696 2.138-1.612 2.784-2.683 1.896-5.581 3.355-8.791 3.96-2.034.383-4.113.491-6.179.693-.565.053-1.105.006-1.559.517-1.248 1.412-2.846 2.307-4.503 3.113-.364.175-.702.404-1.046.605.305.135.552.122.799.074 4.015-.853 8.044-1.647 12.033-2.595 3.996-.948 7.953-2.044 11.93-3.086 1.631-.43 3.145-.256 4.665.565 1.878 1.015 4.048 1.492 6.036 1.223 2.04-.275 4.016-1.378 5.906-2.353 1.248-.645 1.293-1.217.553-2.501-.91-1.58-1.196-3.18-.598-4.928.045-.135-.013-.303-.033-.545-.272-.108-.545-.296-.838-.323a478.193 478.193 0 0 0-7.582-.793 1.535 1.535 0 0 0-.89.215c-2.528 1.533-5.25 2.555-8.291 3.375Zm-79.166-81.631c-2.365 1.069-2.82 1.183-4.074.954-.507-.094-1.007-.269-1.508-.39-1.111-.275-1.39-.208-1.838.874a11.572 11.572 0 0 0-.754 2.777c-.201 1.432-.585 2.959-.286 4.303.448 2.01 1.15 4.041 2.515 5.662 1.052 1.25 1.494 2.676 1.462 4.296-.046 2.206-.13 4.404-.143 6.61-.046 5.802-.072 11.605-.078 17.407 0 .726.117 1.445.175 2.172.292-.202.357-.39.403-.592.442-1.997.962-3.953 2.073-5.702.195-.309.195-.806.162-1.21-.052-.639-.201-1.27-.318-1.903-.858-4.82-.442-9.527 1.221-14.113.462-1.264.949-2.528 2.32-2.824.305-2.259.351-4.457.955-6.488.715-2.414.526-4.612-.305-6.871-.41-1.103-.761-2.226-1.183-3.329-.208-.538-.507-1.042-.799-1.633ZM56.778 164.848c-1.397-1.304-2.768-2.595-4.139-3.872-5.289-4.922-9.428-10.718-12.306-17.462a142.483 142.483 0 0 0-1.755-3.953c-.15-.323-.37-.787-.63-.847-1.663-.364-3.346-.895-5.062-.29-.883.316-1.189.774-1.02 1.715.156.84.397 1.674.702 2.468 3.567 9.325 9.72 16.419 17.764 21.838.364.242.858.37 1.293.383 1.65.047 3.308.02 5.153.02Zm23.41-22.302c.124-.034.247-.074.37-.108.241-1.028.462-2.07.742-3.092.22-.794.084-1.466-.37-2.125-2.21-3.187-4.23-6.535-6.641-9.554-4.77-5.978-10.344-11.027-17.095-14.557-2.567-1.345-5.23-2.374-8.064-2.918-.89-.168-1.793-.289-2.885.04.449.612.728 1.056 1.066 1.446 1.209 1.405 2.385 2.844 3.671 4.168.604.619 1.39 1.083 2.164 1.48 1.39.719 2.865 1.27 4.25 2.003 6.503 3.456 12.052 8.19 16.984 13.737 1.592 1.788 2.852 3.819 3.911 5.997.579 1.197 1.26 2.327 1.898 3.483Zm132.219-78.438c-1.073.49-2.034.854-2.924 1.345-3.476 1.93-6.959 3.852-10.396 5.87-4.757 2.783-9.285 5.923-13.45 9.608-.734.652-1.001 1.297-.637 2.279.312-.114.604-.222.89-.33 2.092-.806 4.165-1.66 6.277-2.407 1.611-.564 3.158-.457 4.548.753a3.989 3.989 0 0 0 2.58.996c.974-.854 1.825-1.641 2.709-2.38 3.249-2.717 6.082-5.837 8.603-9.293 1.345-1.876 1.767-3.926 1.8-6.44Zm-56.834-45.882c-3.541.975-3.951 1.217-5.978 3.624-2.573 3.06-4.698 6.428-6.452 10.045-.559 1.15-1.144 2.28-1.845 3.678.461.645.916 1.587 1.631 2.225 1.319 1.177 1.76 2.602 1.669 4.304-.032.645-.065 1.29-.149 1.93-.273 2.003-.572 4-.858 6.017 1.397-.121 1.43-.1 1.898-1.062.89-1.823 1.786-3.645 2.579-5.514 3.119-7.362 5.081-15.121 7.115-22.847.175-.712.234-1.459.39-2.4ZM74.86 146.419c.462-2.212.89-4.182 1.255-6.166.058-.322-.085-.753-.267-1.042-.844-1.351-1.605-2.79-2.625-3.987-5.393-6.307-11.637-11.497-19.103-14.967-1.637-.76-3.43-1.217-5.185-1.667-1.078-.276-2.215-.222-3.372.161 5.77 3.456 10.968 7.611 15.646 12.412 4.71 4.834 9.825 9.285 13.651 15.256Zm98.886 20.379c-.318-.645-.5-1.129-.766-1.553-2.184-3.436-4.178-6.945-4.542-11.175-.052-.645-.384-1.062-.903-1.405-4.568-3.046-8.252-7.013-11.28-11.659-.201-.302-.416-.685-.715-.813-1.13-.484-2.293-.881-3.612-1.372.097.491.123.8.227 1.083 1.241 3.301 2.352 6.669 3.788 9.877 2.19 4.881 5.555 8.787 9.915 11.759 2.43 1.654 4.834 3.349 7.252 5.023.117.081.266.101.636.235ZM97.998 95.662c.052-.128.098-.262.15-.39-.455-.706-.975-1.372-1.345-2.118-.43-.874-1.06-1.358-1.937-1.708-4.593-1.842-8.778-4.417-12.312-7.98-1.04-1.05-2.1-1.413-3.47-1.251-2.476.289-4.854-.209-7.18-1.05a184.78 184.78 0 0 0-3.677-1.303c-.293-.101-.624-.081-1.163-.148 2.793 2.75 5.347 5.332 7.985 7.826a24.39 24.39 0 0 0 9.83 5.688c2.385.713 4.835 1.224 7.278 1.681 1.93.363 3.898.511 5.841.753Zm35.756-39.67c.936.115 1.455-.43 2.027-.88 1.358-1.076 2.703-2.165 4.113-3.16a3.038 3.038 0 0 0 1.241-1.775 38.7 38.7 0 0 0 1.267-8.412c.033-.854-.201-1.573-.87-2.131-1.397-1.157-2.151-2.736-2.593-4.485-.312-1.243-.559-2.508-.858-3.758-.078-.33-.234-.632-.415-1.11-3.087 3.221-4.815 6.993-6.076 11.148 1.924 1.506 2.242 3.638 2.21 5.924-.039 2.36-.033 4.727-.046 7.087v1.553Zm47.451 38.5c.839-.215 1.287-.343 1.735-.444 2.788-.632 5.569-1.277 8.356-1.882 1.267-.276 2.476-.054 3.58.672.299.195.631.336.949.504 3.58-2.198 6.796-4.706 9.142-8.693-.721 0-1.17.007-1.618 0-1.248-.02-2.489-.014-3.736-.074-1.533-.074-2.982-.484-4.204-1.486-.767-.625-1.572-.834-2.469-.484-2.515.988-5.036 1.97-7.505 3.066-.558.248-1.065.874-1.351 1.452-.838 1.721-1.566 3.496-2.3 5.271-.215.565-.319 1.184-.579 2.098Zm-67.99-24.581c-1.215 1.775-1.579 3.51-1.929 5.237-.748 3.645-1.008 7.329-1.001 11.047 0 .72.11 1.177.598 1.674 2.222 2.26 4.386 4.58 6.614 6.832 1.82 1.835 3.71 3.597 5.582 5.379.227.221.539.349.812.517a1.44 1.44 0 0 0-.241-.854c-3.619-5.863-5.373-12.277-5.354-19.236 0-.713-.227-1.486-.545-2.131-1.046-2.159-2.171-4.277-3.288-6.401-.331-.639-.747-1.244-1.248-2.064Zm59.531 48.336c-.338-.188-.592-.39-.871-.478-2.839-.847-5.679-1.707-8.531-2.487-.52-.142-1.137-.061-1.683.067-6.387 1.493-12.67 1.136-18.856-1.089-.364-.135-.747-.222-1.117-.33a9.144 9.144 0 0 0 2.306 2.185c3.658 2.455 7.388 4.788 10.981 7.343 1.468 1.042 2.787 1.714 4.496.847.137-.067.306-.061.455-.094 3.463-.794 6.757-2.078 9.922-3.719 1.059-.551 2.092-1.169 2.898-2.245Zm-69.472-76.71c-.279.652-.507 1.008-.598 1.405-.376 1.674-.844 3.335-1.033 5.03-.656 5.936-.545 11.9-.182 17.85.312 5.117 1.677 9.931 4.549 14.194.188.283.428.525.844 1.015 0-.578.02-.827 0-1.075-.799-8.734-.721-17.475-.325-26.23.072-1.606.052-3.22.085-4.827.019-1.123-.305-2.077-1.014-2.958-.558-.693-.981-1.513-1.403-2.306-.325-.585-.552-1.224-.923-2.098Zm60.713 85.504c.084.142.097.209.136.229.182.101.364.202.553.282 4.431 1.943 9.057 2.32 13.768 1.708 5.263-.686 10.442-1.896 15.516-3.469 2.32-.72 4.503-1.91 6.738-2.912.325-.148.578-.47.819-.672-1.813-.672-3.502-1.331-5.218-1.903-.52-.175-1.124-.161-1.683-.107-.669.067-1.325.262-1.981.423-5.445 1.379-10.871 2.865-16.348 4.115-4.048.921-8.161 1.54-12.3 2.306ZM22.01 150.473a8.497 8.497 0 0 1-.24.141c.233.693.428 1.399.701 2.071 2.865 7.087 7.219 13.017 12.95 17.885 1.825 1.547 3.885 2.676 6.094 3.523.617.236 1.111.263 1.755-.074.91-.477 1.942-.719 2.93-1.028.468-.148.962-.222 1.69-.384a64.974 64.974 0 0 1-.845-.605c-2.216-1.593-4.49-3.113-6.634-4.8-4.53-3.557-8.727-7.47-11.95-12.385-.188-.289-.52-.505-.811-.693-1.495-.955-3.009-1.889-4.503-2.844-.403-.255-.767-.538-1.137-.807Zm179.325-53.62-.059-.411c-.87-.067-1.734-.181-2.605-.195-1.754-.027-3.372-.424-4.899-1.372-.54-.336-1.319-.585-1.904-.45a298.357 298.357 0 0 0-11.046 2.73c-.487.127-.942.625-1.286 1.062-1.339 1.708-2.632 3.456-3.938 5.197-.24.316-.455.653-.832 1.204 1.592-.121 2.924-.161 4.243-.329 3.814-.485 7.609-1.13 11.436-1.48 1.709-.154 3.197-.605 4.646-1.492 2.189-1.338 4.249-2.858 6.244-4.465Zm-75.722-31.73c.5-.665.805-1.076 1.124-1.472 1.143-1.46 2.228-2.979 3.463-4.344.715-.793 1.208-1.593 1.221-2.669.046-3.597.124-7.194.078-10.791-.006-.686-.324-1.533-.786-2.017-1.41-1.486-2.118-3.282-2.579-5.238-.169-.713-.41-1.405-.676-2.313-.299.41-.507.598-.591.827a605.765 605.765 0 0 0-3.243 8.882c-.117.323 0 .733.033 1.102.429 4.593.845 9.192 1.306 13.784.136 1.304.396 2.609.65 4.25Zm53.136 29.732c-.084-.087-.169-.175-.253-.269-1.222.41-2.43.847-3.665 1.217-3.976 1.197-8.076 1.473-12.176 1.627-3.509.135-6.725 1.258-9.805 2.885-.273.148-.591.289-.766.531-.468.639-.832 1.365-1.306 1.997-.494.659-1.066 1.257-1.605 1.876.812.047 1.501-.148 2.202-.316 2.326-.552 4.64-1.184 6.992-1.621 2.059-.383 4.178-.484 6.107.552 2.021 1.082 4.185 1.197 6.368 1.244.409.006.955-.209 1.208-.518a207.613 207.613 0 0 0 5.341-6.717c.559-.733.91-1.654 1.358-2.488Zm-47.789-6.764c1.033-.948 1.891-1.882 2.885-2.595.676-.477.968-1.022 1.111-1.802.546-3.005.422-5.984-.123-8.976-.93-5.097-1.443-10.213-.592-15.39.02-.115-.084-.25-.143-.404-.201.094-.357.135-.474.229-2.969 2.38-4.945 5.634-7.089 8.734a1.252 1.252 0 0 0-.156.9c.605 2.105.975 4.304 2.424 6.052 1.04 1.257 1.683 2.75 1.819 4.384.189 2.353.234 4.713.325 7.073.033.572.013 1.143.013 1.795Zm-83.064 77.524c-.585-.444-1.007-.746-1.417-1.069-6.757-5.272-12.111-11.72-15.464-19.828-.37-.894-.851-1.493-1.683-1.95-.91-.498-1.689-1.244-2.534-1.863-.266-.195-.565-.322-.968-.544 0 .397-.02.612.007.82.039.37.104.746.162 1.116 1.053 6.226 3.834 11.525 8.05 16.056 3.834 4.122 8.18 7.605 12.755 10.792.247.168.526.296.786.437-.435-1.365-.695-2.643.306-3.967Zm176.408-95.839c-.527 0-.793-.047-1.034.007-3.547.813-7.088 1.614-10.623 2.48-.448.108-.903.518-1.202.908a52.737 52.737 0 0 1-7.849 8.25c-.247.209-.429.498-.793.928.669 0 1.079.007 1.488 0 1.098-.02 2.157-.013 3.041.894.253.263.871.243 1.3.196 1.494-.148 2.988-.377 4.483-.545.922-.1 1.67-.444 2.261-1.224 2.612-3.402 5.25-6.784 7.868-10.18.351-.443.611-.968 1.06-1.714ZM140.44 31.781c.253-.256.474-.39.565-.585a54.952 54.952 0 0 1 6.394-10.254c.266-.343.442-.867.442-1.317.032-3.645.026-7.296.013-10.94 0-.336-.117-.666-.208-1.156-.351.289-.566.43-.734.618-3.191 3.53-6.18 7.235-8.766 11.269-.286.45-.435 1.096-.415 1.64.065 1.607.253 3.208.376 4.808.065.82.241 1.5.975 2.057.442.337.656 1.063.858 1.654.227.653.318 1.352.5 2.206Zm-56.905 97.526c.09 0 .188-.007.28-.007-.046-.47-.066-.948-.13-1.418-.397-2.838-1.177-5.574-2.411-8.136-4.321-8.969-10.975-15.673-19.136-20.89-.227-.148-.513-.195-.948-.35.702 2.367 1.306 4.525 1.995 6.65.13.403.558.753.922 1.015 7.18 5.191 12.807 11.881 17.472 19.485.721 1.177 1.306 2.434 1.956 3.651Zm62.194-47.791c.52-.478.877-.854 1.28-1.17 1.819-1.426 3.606-2.892 5.497-4.21.695-.483 1.657-.846 2.469-.8.897.048 1.468-.235 2.073-.78.669-.598 1.39-1.129 2.072-1.714.273-.235.624-.477.748-.793.539-1.392 1.124-2.784 1.488-4.236.61-2.42-.325-3.47-2.71-3.18-2.956.356-5.581 1.647-8.083 3.213-.351.222-.578.72-.773 1.137a842.562 842.562 0 0 0-3.463 7.564c-.169.376-.39.773-.423 1.176-.097 1.17-.11 2.347-.175 3.793ZM57.311 104.96c.688 2.293 1.221 4.202 1.852 6.071.149.444.584.874.994 1.116 7.452 4.465 13.489 10.523 18.57 17.657 1.013 1.425 1.93 2.931 2.91 4.384.182.269.462.477.69.712.097-.04.194-.087.292-.127-.052-.498 0-1.043-.176-1.493-.702-1.842-1.319-3.745-2.248-5.466-2.937-5.44-6.829-10.126-11.117-14.463-2.95-2.979-6.199-5.56-9.89-7.504-.52-.282-1.078-.517-1.877-.887Zm116.409 48.558c0-.249.033-.37-.006-.45a33.727 33.727 0 0 0-.617-1.305c-1.878-3.839-3.717-7.698-4.302-12.035-.091-.673-.448-.995-1.007-1.284-1.715-.895-3.398-1.856-5.094-2.784-.299-.161-.624-.296-1.027-.484-.292 1.096-.402 2.151-.864 3.012-.474.888-1.286 1.587-1.988 2.407 2.554 4.727 10 11.249 14.905 12.923Zm-74.104-68.58c-1.65-2.044-3.132-3.84-4.561-5.675-.436-.565-.949-.524-1.52-.544-1.761-.061-3.542-.007-5.277-.283-2.352-.37-4.671-1.015-7.004-1.52-.461-.1-.93-.436-1.462-.14 2.066 4.18 10.638 10.924 15.614 12.242.253-2.501 2.378-3.093 4.21-4.081Zm92.889 55.201c4.437 2.071 14.574 2.367 18.589.578-.422-.154-.747-.275-1.072-.396-4.509-1.607-9.058-3.12-13.521-4.868-2.963-1.164-5.796-2.67-7.901-5.272-.364-.444-.774-.437-1.261-.322-1.319.302-2.631.618-3.957.86-2.306.417-4.62.773-7.271 1.217.761.195 1.202.323 1.644.424 4.607 1.055 9.22 2.104 13.827 3.18.806.188 1.618.43 2.365.793 1.235.606 1.358 1.836.312 2.69-.481.383-1.04.665-1.754 1.116ZM83.749 36.467c-.084.007-.169.02-.253.027-.02.35-.098.713-.052 1.056.338 2.71.591 5.446 1.085 8.129.54 2.91 1.468 5.708 3.002 8.25.169.282.428.504.747.873.169-.605.273-1.015.39-1.418.227-.746.539-1.432 1.403-1.533.858-.101 1.332.49 1.722 1.15a20.38 20.38 0 0 1 1.053 1.976c1.877 4.129 3.742 8.27 5.614 12.405.227.505.48 1.002.766 1.587.15-.255.24-.343.24-.417-.142-3.597-.305-7.187-.435-10.784-.02-.632-.28-.982-.786-1.25-1.89-1.003-3.372-2.522-4.646-4.223-1.546-2.085-3.053-4.216-4.418-6.428-1.884-3.086-3.626-6.26-5.432-9.4ZM44.96 175.532c.227.417.266.525.338.592.117.107.253.195.39.269 4.606 2.434 9.447 3.947 14.671 3.61 3.249-.208 6.38-.968 8.96-3.234.24-.215.41-.517.773-.988-8.492-1.311-16.711-1.822-25.132-.249Zm142.796-133.06c2.534.396 3.405 1.411 3.411 3.986 0 .8-.065 1.614-.182 2.408-.299 1.963-.656 3.913-.974 5.876-.085.525-.111 1.062-.163 1.594.611-.357.936-.76 1.228-1.184a49.924 49.924 0 0 0 5.016-9.258c.858-2.071 1.677-4.169 2.294-6.32.611-2.125.071-2.683-2.034-2.394-2.592.356-5.042 1.25-7.387 2.44-1.514.76-1.553.888-1.209 2.851Zm-45.899 24.393c-.545.275-.883.35-1.078.565-.994 1.082-1.943 2.198-2.911 3.3-1.027 1.164-1.176 2.448-.838 3.995a22.31 22.31 0 0 1 .195 8.633c-.078.457-.065.934-.085 1.31 1.397.78 2.651 1.48 3.97 2.22 1.274-2.354 2.151-4.693 2.508-7.195.117-.806-.097-1.68-.253-2.507-.28-1.466-.702-2.905-.923-4.378-.195-1.317-.188-2.676-.299-4.007-.045-.585-.162-1.15-.286-1.936Zm11.222 30.68c.474-.175.955-.316 1.41-.518 2.605-1.136 5.315-1.782 8.141-1.862.676-.02 1.352-.047 2.014-.135.338-.047.747-.155.968-.39.988-1.09 1.989-2.185 2.846-3.389.494-.692.722-1.586 1.215-2.723-1.267.128-2.176.175-3.073.323-2.56.43-5.107.962-7.706.343a1.365 1.365 0 0 0-.617.007c-2.456.625-4.51 1.983-6.309 3.47.402 1.754.74 3.247 1.111 4.874Zm-9.175-10.382c1.391.505 2.619.8 3.704 1.379 1.085.578 2.021 1.439 2.95 2.124 1.676-.988 3.307-1.936 4.912-2.918.279-.168.624-.49.656-.78.182-1.54.409-3.1.364-4.639-.052-1.728-.825-3.254-1.728-4.84-4.549 2.218-7.681 5.835-10.858 9.674Zm-53.28-31.21c-.09 10.145 2.554 19.182 9.805 26.228.871-.275 1.592-.51 2.45-.78-4.886-8.082-7.732-17.172-12.254-25.449Zm76.593 13.984c-1.644.511-8.433 5.783-9.895 7.659 1.507 2.783 1.786 5.87 1.228 9.124.415-.182.675-.41.942-.632 1.397-1.197 2.703-2.555 4.223-3.55 1.586-1.036 2.45-2.32 2.885-4.216.507-2.212.942-4.404.851-6.677-.019-.571-.149-1.123-.234-1.707Zm-3.145 63.815c8.291 5.775 17.368 6.495 26.894 4.222a2.308 2.308 0 0 0-.942-.504c-1.768-.444-3.535-.888-5.309-1.291-5.224-1.19-10.461-2.34-15.678-3.571-1.605-.376-3.165-.974-4.75-1.472-.072.901-.143 1.735-.215 2.616ZM75.198 170.51c1.462-1.332 2.697-2.454 3.925-3.571-.91-4.135-2.268-8.021-3.95-11.773-.696-1.553-1.534-3.046-2.36-4.538-.253-.464-.669-.841-1.201-1.5-1.71 7.82.201 14.571 3.586 21.382Zm128.534-64.406c1.8.249 3.548.491 5.296.719.201.027.429.047.617-.006 2.489-.753 5.062-1.238 7.355-2.596 1.196-.712 2.19-1.593 2.957-2.797.532-.84 1.254-1.56 1.897-2.333.214-.255.435-.504.793-.914-.644-.054-1.046-.128-1.443-.121-2.235.04-4.47.1-6.705.14-1.592.028-3.041.25-3.957 1.917-.39.713-1.131 1.264-1.8 1.762-1.261.941-2.58 1.808-3.892 2.676-.533.349-1.124.612-1.118 1.553Zm-82.33-90.83c-1.26 1.6-2.306 2.912-3.333 4.243a6.269 6.269 0 0 0-.741 1.224c-1.364 3.126-1.559 6.488-1.306 9.79.143 1.895 1.196 3.717 1.839 5.566.916-.168 1.046-.88 1.254-1.54.715-2.306 1.365-4.692 2.892-6.548 1.189-1.446 1.429-2.851.955-4.552-.098-.356-.104-.746-.176-1.11-.448-2.306-.903-4.605-1.384-7.073Zm62.831 47.173c.838-.746 1.67-1.452 2.456-2.219.195-.188.247-.564.299-.867.507-2.904 1.02-5.81 1.475-8.72.228-1.426.429-2.871.481-4.31.046-1.385-.559-1.863-1.748-1.264-1.715.86-3.327 1.95-4.951 2.998-.24.155-.37.612-.409.949-.202 1.64-.306 3.294-.546 4.928-.091.605.019.988.409 1.432 1.339 1.52 1.976 3.375 2.287 5.372.098.612.176 1.23.247 1.701Zm-1.715 17.885c-.331.115-.448.121-.52.182-2.963 2.87-6.153 5.426-9.688 7.51-.292.175-.526.645-.591 1.015-.279 1.574-.968 2.932-1.878 4.196-.266.376-.526.753-.922 1.324.461 0 .701.027.935-.006 3.269-.43 6.368-1.466 9.37-2.831.299-.134.585-.444.747-.74 1.007-1.822 1.904-3.704 2.281-5.782.285-1.567.558-3.14.266-4.868Zm-46.21-11.618c.324-.33.513-.491.662-.68 1.131-1.425 2.359-2.722 4.107-3.32.611-.21.682-.74.838-1.245 1.098-3.59 2.553-7.02 4.438-10.247.201-.342.325-.74.539-1.23-.416 0-.676-.04-.916.007-3.418.665-6.277 2.434-8.772 4.888-.24.235-.403.625-.468.968-.552 3.066-.909 6.146-.643 9.279.039.45.124.9.215 1.58Zm26.373-5.19c1.507-1.816 2.859-3.37 4.119-4.997.995-1.277 1.495-2.81 1.735-4.424.176-1.19-.117-1.58-1.234-1.351-2.333.477-4.639 1.102-6.953 1.674-.539.134-.818.484-1.046 1.042-.403.975-.909 1.93-1.52 2.77-1.027 1.412-2.177 2.73-3.262 4.095-.24.303-.429.645-.663 1.002 1.839-.357 3.548-.76 5.276-.995 1.222-.162 2.495-.155 3.548 1.183Zm-24.652 45.532c4.289 4.605 20.78 6.676 25.159 3.133-1.014-.424-2.112-.693-2.996-1.298-1.728-1.183-3.599-1.553-5.607-1.593-5.445-.115-10.883-.263-16.328-.39-.078-.007-.156.094-.228.148Zm-8.934-5.87c.13-.047.26-.088.39-.135-.461-1.862-.935-3.718-1.377-5.587-.936-3.967-1.852-7.94-2.794-11.9-.364-1.54-1.02-2.905-2.144-4.042-.624-.632-1.06-1.445-1.579-2.185-.228-.323-.442-.645-.67-.968-.104.054-.214.108-.318.161-.552 9.454 2.222 17.697 8.492 24.656Zm-79.633 64.412c.799 1.641 1.786 3.127 3.086 4.344.331.309.962.383 1.449.37 5.835-.135 11.618.302 17.348 1.459.234.047.514-.135.858-.229-4.503-4.095-18.356-7.732-22.741-5.944Zm107.846-116.42c.766 1.251 1.552 1.399 2.729.982 2.748-.975 5.555-1.768 8.511-1.721.28.007.67-.101.825-.303 1.203-1.613 2.47-3.187 3.49-4.915.805-1.358.396-2.023-1.157-2.346-2.131-.437-4.243-.108-6.328.363-.351.08-.696.437-.936.753a57.14 57.14 0 0 0-2.047 2.837c-.195.283-.357.652-.377.989-.097 1.533-.325 1.923-1.728 2.434-.923.33-1.878.585-2.982.928Zm7.303-14.032c.182-.148.292-.195.338-.282 1.728-3.49 3.456-6.972 5.152-10.476.163-.336.098-.793.163-1.445-.741.262-1.306.37-1.768.652-.851.511-1.696 1.062-2.449 1.708-4.133 3.543-7.843 7.53-11.299 11.773-.182.222-.306.484-.455.733 3.32-1.755 6.595-3.328 10.318-2.663Zm38.049 13.569c-.429.174-.753.235-.981.416-2.904 2.42-5.789 4.855-8.681 7.289-.428.356-.422.786-.24 1.297.916 2.576.669 5.171.033 7.753-.215.874-.462 1.735-.696 2.602.475-.229.787-.558 1.053-.921a98.343 98.343 0 0 0 7.706-12.257c.598-1.123 1.092-2.313 1.559-3.503.306-.767.566-1.594.247-2.676ZM72.521 170.698c-.961-2.844-1.877-5.567-2.82-8.284a1.553 1.553 0 0 0-.552-.739c-1.904-1.284-3.807-2.575-5.763-3.779-.533-.329-1.241-.356-1.884-.531-.104.329-.202.477-.189.619a25.908 25.908 0 0 0 2.287 8.31c.163.343.553.625.904.813.552.29 1.162.451 1.734.713 2.073.942 4.146 1.896 6.283 2.878ZM173.85 48.213c.618-.201.858-.262 1.085-.356 1.638-.652 3.243-1.412 5.081-1.29.312.02.67-.236.962-.425 1.228-.8 2.424-1.64 3.658-2.42.442-.282.715-.585.689-1.136-.059-1.338-.078-2.676-.202-4.008-.045-.477-.357-.928-.597-1.52-3.496 1.332-6.524 3.087-9.383 5.286.793 2.185-.175 3.873-1.293 5.87Zm20.799 22.807c.052.054.11.1.162.155 3.847-2.206 7.693-4.404 11.527-6.623.253-.148.546-.404.624-.666.454-1.533.961-3.066 1.241-4.632.234-1.345-.319-1.836-1.618-1.473-1.293.363-2.547.894-3.756 1.5-.565.275-1.078.813-1.436 1.358-1.195 1.815-2.28 3.711-3.456 5.533-1.066 1.64-2.19 3.234-3.288 4.848Zm-41.968-33.255c.39-.303.527-.383.631-.491 2.716-2.952 5.432-5.897 8.134-8.855.247-.269.566-.565.624-.887.299-1.628.631-3.262.741-4.909.091-1.27-.487-1.674-1.67-1.237-1.065.397-2.04 1.022-3.067 1.533-1.052.518-1.592 1.351-1.91 2.535-1.014 3.772-2.151 7.503-3.242 11.248-.065.243-.111.498-.241 1.063Zm-32.988 19.559c-.37.814-.649 1.264-.786 1.755-.734 2.682-1.546 5.358-2.111 8.082-.696 3.335-.611 3.368.981 6.367.305.571.428 1.331 1.351 1.688.098-.78.208-1.446.26-2.125.175-2.24.89-4.337 2.612-5.661 1.3-1.002 1.429-2.051 1.183-3.43-.085-.477-.085-.968-.208-1.432-.091-.35-.234-.786-.494-.968-1.371-.941-2.027-2.394-2.788-4.276Zm46.926 56.115c.013.128.032.249.045.377 1.572.45 3.145.914 4.73 1.338.176.047.403-.054.598-.121 3.678-1.358 7.225-2.992 10.409-5.379.24-.182.442-.41.773-.713-.338-.114-.513-.195-.695-.228-1.352-.229-2.618-.626-3.665-1.621-.24-.228-.662-.376-.987-.363-1.085.061-2.17.182-3.242.37-.286.047-.631.383-.748.672-1.137 2.737-3.197 4.277-5.912 5.016-.468.115-.871.424-1.306.652Zm-88.562 29.86c-.143.014-.286.02-.422.034-.35 2.972-.734 5.937-1.02 8.915-.052.538.26 1.123.455 1.668 1.208 3.422 2.436 6.831 3.658 10.247.097.275.247.537.5 1.082 1.839-8.015.24-15.128-3.17-21.946Zm41.5-104.754-.403-.101c-.247.518-.565 1.008-.734 1.553-.344 1.123-.728 2.26-.89 3.416-.371 2.649-.631 5.318-.916 7.974-.02.202.052.43.143.618.448.888.916 1.762 1.364 2.616.292-.121.396-.148.481-.202.084-.053.156-.148.24-.201 1.053-.666 1.709-.511 2.281.598.247.47.396.995.611 1.48.169.396.37.786.558 1.176-.11-6.502-1.059-12.775-2.735-18.927Zm81.726 66.806c-.065-.141-.137-.283-.202-.424-6.179-.296-12.319 0-18.42 1.258.429.248.858.342 1.293.423.461.088.929.141 1.377.269 1.254.35 1.566 1.015 1.079 2.259-.072.182-.169.35-.338.706 1.072.316 2.001.605 2.943.847.234.061.514 0 .754-.074 1.176-.389 2.372-.759 3.522-1.223 2.021-.821 4.041-1.661 6.023-2.589.715-.343 1.313-.961 1.969-1.452ZM84.12 162.509c.87-.78 1.221-1.648 1.526-2.515.995-2.871 1.332-5.85 1.144-8.889-.24-3.899-1.228-7.624-2.456-11.289-.104-.316-.325-.585-.702-1.23-.513 2.696-1.007 4.995-1.358 7.315-.117.753.02 1.614.26 2.347 1.358 4.188 1.93 8.465 1.592 12.869-.032.376-.007.746-.007 1.392Zm87.144-101.783c2.164-2.777 3.944-6.078 7.758-6.885.39-1.66.942-3.22.442-4.969-.468.068-.832.074-1.169.175-2.463.713-4.698 1.957-6.901 3.261-.546.323-.565.8-.604 1.358a12.18 12.18 0 0 1-1.767 5.594c-.189.31-.332.64-.488.942.897.174 1.729.336 2.729.524Zm5.439-29.631c1.078-2.938 2.384-5.79 1.832-9.292-.747.255-1.299.39-1.793.632-.981.484-1.924 1.056-2.905 1.54-.877.43-1.273 1.089-1.41 2.104-.123.935-.494 1.863-.87 2.737-.631 1.472-1.365 2.89-2.034 4.343-.13.29-.189.612-.364 1.184 2.515-1.534 4.672-3.2 7.544-3.248Zm-5.205 75.903c-.578-.054-1.124-.134-1.676-.154-2.196-.095-4.328-.397-6.342-1.439-.715-.37-1.605-.538-2.404-.511-1.494.053-3.002.248-4.477.524-1.488.282-2.943.74-4.418 1.123.02.114.033.222.052.336 1.338.088 2.696.074 4.015.283 1.216.188 2.541.356 3.568.974 1.981 1.177 4.087 1.823 6.27 2.334 2.046.47 4.665-1.137 5.412-3.47Zm-47.471-38.244c-1.826 1.392-3.002 4.169-2.319 5.755.864 1.997 1.663 4.082 3.235 5.655 1.072 1.076 1.781 2.373 2.21 3.84.331 1.129.61 2.279.929 3.415.091.316.247.612.37.914.156-2.682.227-5.305.13-7.92-.058-1.694-.78-3.167-1.754-4.572-.774-1.11-1.28-2.44-1.787-3.725-.409-1.035-.65-2.138-1.014-3.362Zm56.886.989c.072-1.063.098-1.856.195-2.643.084-.686.071-1.486.416-2.01.559-.854.513-1.708.448-2.616-.13-1.788-.474-3.516-1.481-5.022-.767-1.143-1.631-1.432-2.658-.747-2.111 1.419-3.482 3.523-4.749 5.736.63-.06 1.143-.276 1.669-.437 1.989-.592 3.249.148 3.711 2.218.149.673.285 1.399.201 2.071-.175 1.365.377 2.24 1.468 2.864.182.108.332.25.78.586Zm-.767 2.581a72.437 72.437 0 0 1-.786-.78c-1.533-1.52-1.813-1.506-3.203.142-.072.08-.137.161-.202.242-1.832 2.474-3.664 4.942-5.483 7.416-.137.188-.195.444-.345.8 2.04.659 3.873-.693 5.614-.128 1.514-2.636 2.937-5.117 4.405-7.692ZM148.51 58.75c1.092 1.661-.026 3.866 1.39 5.97.267-.456.403-.752.598-1 1.761-2.186 3.561-4.338 5.296-6.543 2.007-2.548 1.929-2.83-.994-4.538l-6.29 6.111Zm17.576-18.093c.714-.054 1.215-.128 1.722-.128 1.345-.006 2.722-.154 4.028.088 1.124.208 1.878-.068 2.833-.646 1.527-.92 2.008-2.158 1.91-3.832-.052-.888.137-1.83-.5-2.569-1.819.128-4.6 1.634-7.472 4.135-.903.794-2.034 1.44-2.521 2.952Zm9.954 23.385c-1.949.504-3.645 1.385-4.88 2.824-.779.907-1.364 2.232-1.507 3.436-.241 2.043-.065 4.135-.065 6.407.559-.74 1.078-1.445 1.611-2.131 1.592-2.044 2.885-4.344 4.932-5.984.182-.148.357-.437.357-.66.013-1.216.15-2.46-.448-3.892Zm11.955 9.07c.182-.087.312-.108.351-.181 1.677-3.248 2.885-6.63 2.762-10.389-.026-.793-.104-1.586-.78-2.353-1.904 1.298-3.424 2.938-4.698 4.828-.37.544-.071.995.228 1.459.974 1.546 1.624 3.22 1.871 5.056.071.518.175 1.035.266 1.58Zm-35.567-28.367c.156.034.299.108.435.087 2.248-.275 4.451-.107 6.556.814.689.302 1.131-.047 1.456-.538.987-1.5 1.936-3.026 2.865-4.565.169-.283.15-.68.221-1.029-3.177-.686-9.415 2.178-11.533 5.231Zm-4.529 4.693c1.722 1.123 1.923 1.87 1.02 3.718-.234.478-.513.928-.76 1.405-.253.485-.487.975-.734 1.466.494-.007.78-.134.994-.336 1.137-1.096 2.294-2.165 3.366-3.321 1.689-1.822 3.625-3.167 6.029-3.752.364-.088.709-.29 1.248-.511-1.598-.962-3.125-1.197-4.665-1.056-1.644.155-3.269.531-4.906.773-.877.115-1.397.579-1.592 1.614Zm35.529 17.636c-.085.511-.143.713-.143.915.013 2.965-.981 5.553-2.619 7.954-.773 1.136-1.397 2.387-2.06 3.604-.149.282-.175.638-.35 1.317.708-.638 1.124-1.028 1.553-1.412.591-.524 1.156-1.096 1.799-1.54 1.033-.705 1.709-.578 2.599.37.137.148.163.404.215.552.864-.545 1.436-.888 1.384-1.755-.117-1.876-.117-3.765-.345-5.628-.182-1.533-.779-2.965-2.033-4.377ZM72.112 177.038c1.06.222 1.767.377 2.476.511 2.267.444 3.924-.491 5.12-2.44a12.056 12.056 0 0 0 1.773-5.581c.026-.377-.097-.766-.188-1.405-3.262 2.864-6.361 5.486-9.18 8.915Zm116.715-63.894c-1.507-.538-2.989-1.117-4.503-1.58-.312-.095-.799.1-1.104.316-2.443 1.741-5.088 3.065-7.804 4.276-.247.107-.448.336-.708.538 2.352 1.405 11.676-.774 14.119-3.55Zm-74.481-45.318c.149-.712.24-1.237.37-1.741.65-2.481 1.235-4.99 2.015-7.43.324-1.022.396-1.782-.299-2.636-.462-.564-.767-1.27-1.131-1.922-.273-.478-.533-.955-.858-1.527-2.007 4.196-2.131 13.118-.097 15.256Zm60.557 14.355c-.747.101-1.404.236-2.06.276-.922.06-1.891.255-2.761.04-1.339-.323-2.469-.06-3.528.713-1.313.955-2.593 1.963-3.866 2.965-.26.209-.462.498-.943 1.035.962-.1 1.56-.154 2.158-.235 1.695-.235 3.398-.733 5.074-.645 1.378.074 2.398-.377 3.45-1.063.572-.37 1.118-.78 1.709-1.11.689-.382.929-.954.767-1.976Zm-30.058-8.156c.208-.08.351-.094.384-.154.864-2.01 1.754-4.007 2.553-6.038.325-.82.228-1.694-.201-2.495-.566-1.069-.728-2.218-.721-3.422.006-.612-.111-1.23-.176-1.862-1.319.33-1.351.316-1.65 1.143-.423 1.156-.793 2.333-1.163 3.51-.091.295-.189.672-.098.934.825 2.326.54 4.787.858 7.174.052.397.136.787.214 1.21Zm53.027 28.367c1.858.202 3.43.377 5.009.532.189.02.423-.068.579-.189a289.242 289.242 0 0 0 5.159-3.839c.253-.195.383-.551.695-1.022-1.969 0-3.71-.013-5.452.014-.234.006-.493.161-.695.316-1.683 1.324-3.366 2.662-5.295 4.188Zm-75.261-61.32c.123-.087.188-.113.208-.154.416-.981.669-2.077 1.267-2.925 1.904-2.716 1.345-5.54.591-8.41-.071-.263-.247-.498-.435-.861-1.716 2.185-2.437 4.646-3.184 7.086-.059.188-.026.43.032.626.488 1.512.994 3.025 1.521 4.639Zm40.921 28.24c1.501-.961 2.833-2.225 4.737-1.694.656-1.587 1.215-3.046.923-4.996-1.17.74-2.171 1.372-3.178 2.004-1.598 1.002-2.716 2.306-2.482 4.686Z"/>
</svg>
